<svg xmlns="http://www.w3.org/2000/svg" viewBox="0 0 1518 1640"><defs><style>.cls-1{fill:#8e813d;}</style></defs><title>Icons</title><g id="Layer_2" data-name="Layer 2"><path class="cls-1" d="M322.86,503.21h-5.22V291.31c0-1,.21-25.77,18-58.21,16.31-29.75,51.2-71.79,124.81-103.09,2.48-1.22,69.14-33.89,146.29-63.2,105.39-40,179.15-55.06,219.22-44.67,15.38,3.53,55.47,18,96.66,47.41a353.94,353.94,0,0,1,79.11,78c27.83,37.7,48.93,81.68,62.71,130.72l-5,1.41c-13.59-48.37-34.38-91.74-61.79-128.9A348.3,348.3,0,0,0,919.77,74C879.23,45,839.86,30.7,824.7,27.21c-38.53-10-113.22,5.39-216.09,44.47-78,29.63-145.26,62.71-145.93,63l-.14.06C390.26,165.5,356.11,206.57,340.2,235.61c-17.14,31.28-17.34,55.46-17.34,55.7Z"/><path class="cls-1" d="M179.16,954.9c-45.55,0-80.2-17.7-102-33.38-25.46-18.36-38.8-37.4-39.82-38.88-23.89-31-31.23-65.42-21.82-102.27C25.78,740.28,56,696.72,105.39,650.88c39.33-36.5,90.87-74.58,153.18-113.16,106-65.63,208-110.62,209-111.07l.16-.06c118.41-42.83,296.58-100.86,473-134.1C1044.32,273,1099.83,271.12,1102.38,271c58.65-5.25,113.64-1.8,163.41,10.25,39.9,9.66,76.55,24.84,109,45.11,54.83,34.3,78.28,70.86,79.6,73,49.86,73.54,64,149,42.13,224.24-18.59,63.87-59.7,114.5-90.91,145.73l-3.69-3.69c30.78-30.79,71.31-80.69,89.59-143.5,21.45-73.7,7.5-147.68-41.46-219.89-.29-.45-23.93-37.66-78.29-71.59-31.93-19.93-68-34.85-107.37-44.35-49.19-11.88-103.56-15.27-161.59-10.06h-.17c-.55,0-55.88,1.56-161.14,21.4C844.32,316,683.61,354.05,469.56,431.47c-3.31,1.46-103.81,46-208.29,110.72-62,38.4-113.28,76.27-152.35,112.54C60.3,699.87,30.58,742.57,20.6,781.66c-9,35.24-2,68.16,20.95,97.85l.09.12c.13.2,13.5,19.6,38.77,37.77,22.88,16.45,60.47,35.2,110.23,31.9,2.87-41.54,28.82-87.56,77.18-136.83,39.17-39.9,93.09-82.08,160.28-125.38,114.29-73.64,229-125.7,230.12-126.22,105.34-43,200.41-66.92,282.65-71.17,66.86-3.45,125.66,6,174.74,28.18,48.57,21.92,78.6,52.47,95.24,74.24,18.07,23.66,24.55,41.9,24.81,42.67l-4.92,1.72c-.07-.18-6.56-18.4-24.22-41.45-16.28-21.25-45.67-51.07-93.22-72.49C1065,500.8,1007,491.5,941,494.92c-81.62,4.24-176.07,28-280.72,70.74-1,.48-115.44,52.41-229.4,125.85-66.85,43.08-120.47,85-159.36,124.64-48.31,49.23-73.82,94.89-75.8,135.71l-.11,2.3-2.29.18Q186.08,954.91,179.16,954.9Z"/><path class="cls-1" d="M1164.21,905.86c-67.38-70.76-89.8-185.2-96.74-268.75v-.22c0-.87-.55-87.43-54.24-110.09l2-4.81c23.64,10,41.07,33.09,50.4,66.82a199,199,0,0,1,7,48c6.88,82.69,29,195.84,95.31,265.47Z"/><path class="cls-1" d="M1175.91,868.68c-44.1-50.94-61.33-130.41-68-188.12a712.93,712.93,0,0,1-4-113.95l5.21.34a707.16,707.16,0,0,0,4,113.1c6.61,57,23.56,135.3,66.77,185.22Z"/><path class="cls-1" d="M1214.19,910.8l-4.36-2.88c15.84-23.94,23.93-53.25,24.05-87.11.1-28.75-5.52-60.86-16.68-95.44C1198,665.84,1166,610.39,1144.38,581l4.21-3.09c21.81,29.72,54.16,85.75,73.57,145.86,11.34,35.11,17,67.77,16.94,97.07C1239,855.72,1230.6,886,1214.19,910.8Z"/><path class="cls-1" d="M1240.67,946.11l-4.35-2.88c24.65-37.24,34.54-83.86,29.41-138.54-5.08-54.07-23.77-101.84-34.47-125.5L1236,677c10.83,24,29.76,72.34,34.91,127.16C1276.18,860.1,1266,907.85,1240.67,946.11Z"/><path class="cls-1" d="M1334.19,1171.92c-7.56-14.37-7.62-33.48-.16-55.26a142.28,142.28,0,0,1,13.53-28.61l.08-.12c46.1-62.7,130-228.68-85.7-415.49l3.42-3.94C1297.83,696.62,1357,755,1388,830.16c16.9,40.88,23.61,82,19.94,122.09-4.34,47.32-23.2,94-56.06,138.7-1.21,1.91-29.55,47.26-13.09,78.54Z"/><path class="cls-1" d="M1242.77,1225.7a166,166,0,0,1-34.78-4.15l1.1-5.1c35.68,7.72,61.3,4.39,76.15-9.89,17.89-17.2,14-45.23,13.62-47.61-6.16-19.28-2.77-43.21,10.1-71.12a215.53,215.53,0,0,1,21.09-36.06c40.64-61.13,49.87-126.08,27.43-193-18.38-54.85-53.66-97-73-117.23l3.77-3.61c19.69,20.55,55.52,63.37,74.23,119.18,23,68.6,13.54,135.1-28.08,197.66l-.09.12c-.44.59-44.35,59.48-30.37,102.69l.09.35c.23,1.32,5.5,32.57-15.09,52.41C1278.24,1220.56,1262.79,1225.7,1242.77,1225.7Z"/><path class="cls-1" d="M1184.37,934.26l-4.76-2.14c14.12-31.42,20.53-66.82,19.05-105.2-1.19-30.79-7.43-63.56-18.56-97.4-19-57.74-45.93-99.09-46.2-99.5l4.36-2.87c.27.42,27.56,42.24,46.76,100.61,11.29,34.32,17.63,67.59,18.85,98.89C1205.4,865.87,1198.84,902.07,1184.37,934.26Z"/><path class="cls-1" d="M1173.71,808.49c-11.56-15.66-21.55-40.71-29.68-74.45-6-25-8.75-45.76-8.77-46l5.17-.66c.11.81,10.83,81.87,37.48,118Z"/><path class="cls-1" d="M1185.52,995.07a23.22,23.22,0,0,1-3.08-.21l.7-5.17c11.81,1.59,21.49-9.52,21.59-9.63,3.53-4.34,4.63-8.56,3.31-12.84-2.43-7.92-12.43-13.45-14.39-14l1.5-5c3,.91,14.75,7.34,17.88,17.51,1.84,6,.4,11.95-4.29,17.71C1208.27,984,1198.64,995.07,1185.52,995.07Z"/><path class="cls-1" d="M1168.15,1204.22c-.49-14.67,2.86-24.85,9.94-30.26,8.61-6.57,19.3-3.37,19.75-3.23l.27.1c24.37,10.59,42.72,11.63,54.52,3.11,17.56-12.67,15.08-42.87,15-43.18v-.16c-1.31-51.33,38.91-98.76,41.75-102,27.43-39.8,38.34-80.67,32.42-121.48-4.5-31-18.61-61.9-41.95-91.75l4.11-3.22c39,49.94,72.4,128.56,9.63,219.54l-.18.23c-.42.48-41.79,48.52-40.56,98.5.2,2.3,2.46,33.59-17.18,47.78-13.38,9.67-33.41,8.84-59.52-2.47-1-.28-8.92-2.2-15,2.45-5.64,4.33-8.28,13-7.85,25.91Z"/><path class="cls-1" d="M1233,1005l-1.82-4.89c59.68-22.17,67.13-65.51,67.2-65.95l0-.19c0-.14,3.32-14.5-1.88-21.86a9.75,9.75,0,0,0-7.34-4.08l.58-5.19a14.89,14.89,0,0,1,11,6.27c6.37,9,3,24.49,2.72,26-.22,1.26-2.32,12.44-11.66,26.33C1283,974.57,1265.58,992.85,1233,1005Z"/><path class="cls-1" d="M1180.67,1096.29c-18.36,0-32.77-18.51-33.42-19.36l4.14-3.17c.15.19,15.31,19.6,32.43,17.08,12.37-1.82,23.12-14.47,31.93-37.61,10.65-28,27.78-30.56,31-30.8,31-11.59,48.94-28.88,58.55-41.38,10.47-13.59,13.61-24.6,13.64-24.71l.11-.32c14.34-34.16,0-63.75-.15-64l-.08-.17C1314,880,1307,872.74,1298,870.32a22.79,22.79,0,0,0-11.7-.19l-1.57-5a28.05,28.05,0,0,1,14.62.13c7.28,2,17.4,7.8,24.3,24.46,1.09,2.21,15.25,32.38.31,68.16-1,3.55-14.67,46.89-75.72,69.57l-.44.16h-.46s-4.11.13-9.39,3.5c-4.94,3.15-12,9.87-17.32,23.95-9.54,25.06-21.68,38.83-36.07,40.93A27.2,27.2,0,0,1,1180.67,1096.29Z"/><path class="cls-1" d="M423,1230.72c-20.57-24.44-50.24-40.79-50.54-41C243.89,1122.22,214.2,1028.1,208,978l5.18-.65c6.13,49.08,35.29,141.34,161.75,207.81,1.29.7,30.85,17,52.08,42.19Z"/><path class="cls-1" d="M445.46,1200.63c-17.43-31.2-55.95-54.66-56.33-54.89-40-23.24-72.77-50.59-97.49-81.27-19.82-24.6-34.51-51.37-43.66-79.58-15.62-48.12-9.77-83.24-9.52-84.71l5.15.89c0,.09-1.51,8.93-1.09,23.46a212.06,212.06,0,0,0,10.52,59c9,27.55,23.38,53.73,42.79,77.78,24.31,30.12,56.59,57,96,79.9,1.66,1,40.11,24.4,58.23,56.83Z"/><path class="cls-1" d="M392.17,1089c-31.26-14.62-56.85-37.4-76-67.72-15.3-24.18-26.59-53.16-33.54-86.15-11.8-56-6.92-105-6.87-105.49l5.19.54c-.05.48-4.85,48.75,6.82,104,6.83,32.35,17.88,60.73,32.85,84.36,18.65,29.43,43.48,51.54,73.8,65.72Z"/><path class="cls-1" d="M368.27,1006.43c-26-15.31-44.4-49.25-53.17-98.15-7.33-40.86-6.14-80.87-4.28-98.07l5.19.56c-1.83,16.93-3,56.31,4.23,96.59,5.92,33,19.52,76.24,50.68,94.57Z"/><path class="cls-1" d="M769.57,736.94c-.15-.38-14.87-38.35,13.16-56.66l2.85,4.36c-10.17,6.65-15.17,17-14.86,30.88a63.49,63.49,0,0,0,3.7,19.49Z"/><path class="cls-1" d="M785.35,732.43c-.12-.37-12.47-37.49,14.45-54.53l2.79,4.41c-23.48,14.86-12.41,48.1-12.3,48.43Z"/><path class="cls-1" d="M801.14,727.92c-.1-.37-10.08-36.63,15.73-52.4l2.72,4.46c-22.46,13.72-13.52,46.18-13.43,46.51Z"/><path class="cls-1" d="M816.93,723.38A66.78,66.78,0,0,1,816,704c1.44-14.14,7.64-24.8,17.93-30.83l2.64,4.5C815.14,690.23,822,721.93,822,722.24Z"/><path class="cls-1" d="M832.73,718.84a67.79,67.79,0,0,1,.14-18.82c2-13.63,8.33-23.75,18.16-29.25l2.55,4.55c-20.44,11.44-15.75,42.39-15.7,42.7Z"/><path class="cls-1" d="M848.53,714.29a69.73,69.73,0,0,1,1.2-18.23c2.65-13.13,9-22.7,18.39-27.68l2.44,4.61c-19.42,10.31-16.86,40.51-16.83,40.81Z"/><path class="cls-1" d="M864.35,709.72a71.55,71.55,0,0,1,2.25-17.62c3.26-12.63,9.69-21.66,18.62-26.1l2.32,4.67c-18.37,9.15-18,38.64-18,38.93Z"/><path class="cls-1" d="M885.4,705.41l-5.22-.27a74.88,74.88,0,0,1,3.3-17c3.86-12.13,10.37-20.61,18.84-24.52l2.19,4.74C887.14,676.37,885.41,705.12,885.4,705.41Z"/><path class="cls-1" d="M899,706.62l-5.19-.53c.11-1,2.81-25,23.58-32.66l1.8,4.9C901.53,684.82,899.05,706.41,899,706.62Z"/><path class="cls-1" d="M910.43,711.56l-5.18-.59c.11-1,2.91-23.58,23-30.33l1.67,4.94C912.94,691.29,910.46,711.36,910.43,711.56Z"/><path class="cls-1" d="M921.84,716.51l-5.18-.66c.12-.9,3-22.13,22.33-28l1.52,5C924.48,697.72,921.94,715.75,921.84,716.51Z"/><path class="cls-1" d="M933.25,721.47l-5.17-.74c.12-.85,3.15-20.68,21.71-25.68l1.36,5C936,704.18,933.35,720.76,933.25,721.47Z"/><path class="cls-1" d="M944.65,726.42l-5.15-.82c.12-.79,3.27-19.24,21.11-23.35l1.17,5.09C947.33,710.67,944.68,726.26,944.65,726.42Z"/><path class="cls-1" d="M956.06,731.39l-5.14-.93c.13-.73,3.41-17.79,20.51-21l1,5.13C958.78,717.14,956.08,731.24,956.06,731.39Z"/><path class="cls-1" d="M967.46,736.36l-5.12-1.05c1.17-5.65,6.83-16.81,19.93-18.65l.73,5.17C970.22,723.63,967.48,736.24,967.46,736.36Z"/><path class="cls-1" d="M978.85,741.36l-5.08-1.21a21.93,21.93,0,0,1,19.35-16.27l.46,5.2C981.74,730.11,979,740.9,978.85,741.36Z"/><path class="cls-1" d="M990.24,746.36l-5-1.39A19.85,19.85,0,0,1,1004,731.09l.15,5.22A14.68,14.68,0,0,0,990.24,746.36Z"/><path class="cls-1" d="M1001.62,751.38l-5-1.61c1.35-4.15,6.88-11.88,18.24-11.45l-.2,5.22C1004.4,743.14,1001.65,751.3,1001.62,751.38Z"/><path class="cls-1" d="M1013,756.44l-4.86-1.9c1.42-3.64,7-10.2,17.69-9l-.59,5.19C1015.74,749.68,1013,756.38,1013,756.44Z"/><path class="cls-1" d="M1024.29,761.58l-4.68-2.31c.18-.37,4.51-9,17.14-6.44l-1,5.11C1027.17,756.23,1024.41,761.36,1024.29,761.58Z"/><path class="cls-1" d="M755.46,741.78c-19-34.2,8.21-59.25,8.49-59.49l3.49,3.88c-1,.9-24.36,22.57-7.41,53.08Z"/><path class="cls-1" d="M576.77,750.23,572,748.06l2.37,1.09L572,748.06a62.78,62.78,0,0,0,4.67-19.28c1-13.8-3.47-24.43-13.3-31.57l3.08-4.22C593.54,712.68,576.94,749.86,576.77,750.23Z"/><path class="cls-1" d="M561.23,745l-4.84-2,2.42,1-2.42-1c.1-.24,9.35-23.62-1.55-40.46a30.25,30.25,0,0,0-4.92-5.82,31.94,31.94,0,0,0-3-2.47L550,690a39.22,39.22,0,0,1,3.5,2.86,35.68,35.68,0,0,1,5.76,6.83c5.16,8,7.13,18.34,5.71,30A65.26,65.26,0,0,1,561.23,745Z"/><path class="cls-1" d="M545.68,739.67l-4.92-1.73c.08-.22,7.76-22.72-2.75-38.73a29.21,29.21,0,0,0-4.73-5.57,31.8,31.8,0,0,0-2.89-2.35l3.06-4.23a37.6,37.6,0,0,1,3.37,2.74,35,35,0,0,1,5.56,6.54C554.31,714.54,546,738.65,545.68,739.67Z"/><path class="cls-1" d="M530.14,734.37l-5-1.47,2.5.73-2.5-.73c.06-.21,6.17-21.84-3.94-37a29.51,29.51,0,0,0-4.54-5.3,28.69,28.69,0,0,0-2.76-2.24l3.05-4.24a35.86,35.86,0,0,1,3.24,2.64,34.06,34.06,0,0,1,5.35,6.25C537,710.21,530.42,733.39,530.14,734.37Z"/><path class="cls-1" d="M514.59,729l-5.09-1.15c.05-.21,4.59-21-5.13-35.35a28.88,28.88,0,0,0-4.35-5,28.44,28.44,0,0,0-2.63-2.13l3-4.24a31.4,31.4,0,0,1,3.11,2.52,33.44,33.44,0,0,1,5.15,6C519.7,705.88,514.8,728.11,514.59,729Z"/><path class="cls-1" d="M499,723.7l-5.15-.81,2.58.4-2.58-.4c0-.2,3-20.13-6.34-33.68a27.8,27.8,0,0,0-4.15-4.79,28.54,28.54,0,0,0-2.5-2l3-4.25a31.38,31.38,0,0,1,3,2.41,32.86,32.86,0,0,1,4.94,5.67C502.39,701.54,499.18,722.8,499,723.7Z"/><path class="cls-1" d="M483.47,718.33l-5.2-.42,2.6.21-2.6-.21c0-.19,1.43-19.28-7.55-32a27.2,27.2,0,0,0-4-4.53,26.38,26.38,0,0,0-2.35-1.9l3-4.25a29.57,29.57,0,0,1,2.86,2.29,33.14,33.14,0,0,1,4.72,5.38C485.07,697.19,483.54,717.48,483.47,718.33Z"/><path class="cls-1" d="M462.67,713c0-.19-.16-18.46-8.76-30.41a27.11,27.11,0,0,0-3.79-4.27,21.63,21.63,0,0,0-2.22-1.78l3-4.27a28,28,0,0,1,2.73,2.18,32.72,32.72,0,0,1,4.51,5.09c9.6,13.33,9.75,32.63,9.75,33.45Z"/><path class="cls-1" d="M449.51,713.42c0-.18-.71-18.23-13.71-27.26l3-4.29c15.19,10.56,15.92,30.56,16,31.4Z"/><path class="cls-1" d="M438.35,717.74c0-.17-.65-16.46-12.36-24.6l3-4.29c13.91,9.67,14.57,28,14.6,28.74l-5.22.14,2.61-.07Z"/><path class="cls-1" d="M427.19,722.05c0-.14-.59-14.68-11-21.93l3-4.29c12.63,8.77,13.23,25.37,13.25,26.07Z"/><path class="cls-1" d="M416,726.37c0-.13-.51-12.91-9.66-19.27l3-4.29c11.34,7.88,11.88,22.78,11.9,23.41Z"/><path class="cls-1" d="M404.86,730.68c0-.11-.45-11.14-8.31-16.6l3-4.29c10.06,7,10.54,20.18,10.56,20.74l-5.22.15,2.61-.08Z"/><path class="cls-1" d="M393.7,735c0-.09-.39-9.37-7-13.94l3-4.28c8.77,6.09,9.19,17.58,9.21,18.07l-5.22.14,2.61-.07Z"/><path class="cls-1" d="M382.54,739.32c0-.08-.33-7.6-5.62-11.28l3-4.28c7.49,5.2,7.85,15,7.86,15.4l-5.21.15,2.61-.08Z"/><path class="cls-1" d="M371.37,743.63c0-.06-.25-5.82-4.27-8.61l3-4.28c6.21,4.31,6.5,12.39,6.51,12.74l-5.22.14,2.61-.07Z"/><path class="cls-1" d="M360.21,748s-.19-4-2.92-5.94l3-4.29c4.92,3.42,5.15,9.8,5.16,10.07Z"/><path class="cls-1" d="M349.05,752.27a4.81,4.81,0,0,0-1.58-3.28l3-4.29c3.58,2.49,3.8,6.91,3.82,7.4l-5.22.15,2.61-.07Z"/><path class="cls-1" d="M337.89,756.62a1.27,1.27,0,0,0-.23-.65l3-4.29a6.23,6.23,0,0,1,2.46,4.74l-5.21.14,2.61-.07Z"/><path class="cls-1" d="M590.62,755.78,586.19,753c18.45-29.63-3.79-52.43-4.75-53.39l3.68-3.7C585.39,696.19,611.31,722.57,590.62,755.78Z"/><path class="cls-1" d="M366.57,923.21c-24-35.13-24.32-105.84-19.13-135.88l5.14.89c-2.4,13.89-4,38.5-1.26,65.87,2,20.08,7,47.86,19.55,66.17Z"/><path class="cls-1" d="M658.47,1053.7c-5.29,0-23.35-1.07-33.8-15-9.63-12.85-9.8-32.6-.5-58.67,15.21-42.67,30.36-105.4,16.12-162-8.44-33.55-23.32-49-23.47-49.2l3.73-3.65c.65.66,16,16.67,24.81,51.57,8,31.94,11.73,86.49-16.27,165-8.67,24.3-8.76,42.39-.27,53.76,10.38,13.9,30.62,13,30.82,13,12.71-.71,23.37-5.48,29.25-13.08,4.48-5.79,6-13.06,4.4-21.05l5.12-1c1.9,9.51,0,18.25-5.39,25.26-6.81,8.8-18.87,14.3-33.08,15.1C659.81,1053.68,659.3,1053.7,658.47,1053.7Z"/><path class="cls-1" d="M798.58,822.89,793.72,821c.28-.73,7.19-18.14,25.39-33.08,30.38-24.94,67.75-22.81,93.75-16.63,1.24.25,32.41,6.91,54.39,33.54l-4,3.33C942.45,783,912,776.45,911.73,776.38c-36.22-8.6-66.25-3.36-89.31,15.58A85.14,85.14,0,0,0,798.58,822.89Z"/><path class="cls-1" d="M946.67,841c-13-21.44-44.19-31.88-44.5-32-23.24-6.69-45.18-3.45-65.13,9.64a90.17,90.17,0,0,0-23.27,22l-4.34-2.91A93.78,93.78,0,0,1,834,814.36c14.66-9.67,38.65-19.31,69.71-10.37,1.44.47,33.39,11.19,47.42,34.26Z"/><path class="cls-1" d="M880.33,851.92a31.53,31.53,0,0,1-28.51-45.16l4.7,2.26a26.31,26.31,0,1,0,49.86,14.47,26.5,26.5,0,0,0-2.47-14.61l4.69-2.29a31.44,31.44,0,0,1-28.27,45.33Z"/><path class="cls-1" d="M880.25,836.64a13.47,13.47,0,1,1,13.47-13.47A13.48,13.48,0,0,1,880.25,836.64Zm0-21.72a8.25,8.25,0,1,0,8.25,8.25A8.26,8.26,0,0,0,880.25,814.92Z"/><path class="cls-1" d="M729.09,851.1c-.45-58.86,32.25-85.7,33.65-86.82l3.26,4.08-1.63-2,1.63,2c-.32.26-32.12,26.51-31.69,82.7Z"/><path class="cls-1" d="M670.56,1104.68c-8,0-15.38-3.63-22-10.79l-.42-.46-.17-.6c-.08-.27-7.81-26.68-30.51-32.56h0c-2.44,0-8.28.76-10.32,4.38s-.34,9.9,5,18.11l-4.39,2.83c-6.51-10.1-8.23-18-5.1-23.53,4.13-7.29,14.87-7,15.33-7h.27l.27.07c24.1,6,33,31.2,34.36,35.64,5.58,5.86,11.64,8.76,18.09,8.68,11-.17,20.06-9,22.18-11.2,1-5.06,7.41-30.87,36.29-38.23,1.71-.58,18.55-6,29.35,1.12,5.19,3.44,8.08,9.12,8.57,16.87l-5.21.33c-.38-6-2.48-10.35-6.24-12.84-9-6-24.7-.56-24.86-.51l-.22.07c-28.62,7.23-32.62,34.48-32.66,34.75l-.1.77-.51.59c-.47.54-11.65,13.25-26.48,13.5Z"/><path class="cls-1" d="M793.09,1069.09l-4.39-2.82c7.1-11,9.24-21.73,6.33-31.81-5.85-20.35-30.29-32-30.53-32.1-30.75-13.05-27.8-44.21-27.76-44.52l5.19.55-2.6-.28,2.6.28c-.12,1.12-2.51,27.65,24.69,39.2,1.18.54,26.89,12.76,33.42,35.4C803.39,1044.59,801.05,1056.74,793.09,1069.09Z"/><path class="cls-1" d="M619.19,832.08a85.61,85.61,0,0,0-26.05-29.41c-24.25-17.22-54.49-20.4-89.88-9.43-.38.1-30.29,8.67-49.32,35.17l-4.24-3c20.14-28,50.8-36.78,52.09-37.14,25.45-7.89,62.6-12.52,94.58,10.34,19.16,13.68,27.22,30.59,27.55,31.3Z"/><path class="cls-1" d="M478.85,861.61l-4.63-2.41c12.44-24,43.6-36.79,44.92-37.32,30.48-11,55.06-3,70.34,5.64a93.75,93.75,0,0,1,26.08,21.65l-4.14,3.19,2.07-1.59-2.07,1.59A90,90,0,0,0,586.73,832C566,820.24,543.84,818.48,521,826.75,520.8,826.84,490.4,839.38,478.85,861.61Z"/><path class="cls-1" d="M543.75,868.17c-16.55,0-30.88-13.7-31.52-30.34a31.3,31.3,0,0,1,2.3-13.06l4.83,2a26.18,26.18,0,0,0-1.91,10.9c.54,14.13,12.93,25.73,27,25.31a26.32,26.32,0,0,0,22.18-39.24l4.54-2.57a31.54,31.54,0,0,1-26.56,47Z"/><path class="cls-1" d="M543.92,852.88a13.48,13.48,0,0,1-13.43-12.57h0a13.47,13.47,0,1,1,14.34,12.54ZM535.69,840a8.25,8.25,0,1,0,16.46-1.1,8.25,8.25,0,1,0-16.46,1.1Z"/><path class="cls-1" d="M668.62,1222.07c-48.27,0-79.37-6.41-88.8-11.34a6.85,6.85,0,0,1-3.71-6.85,7.07,7.07,0,0,1,5-6.14l70.4-21.12a21.44,21.44,0,0,1,16.31,1.61l20.44,10.84a7.48,7.48,0,0,0,7.46-.26l23.33-14.52a21.94,21.94,0,0,1,16.66-2.69l100.54,24.21a6.3,6.3,0,0,1,4.92,6.52,6.39,6.39,0,0,1-5.44,6.12,1108.28,1108.28,0,0,1-135.57,12.76C689,1221.81,678.44,1222.07,668.62,1222.07Zm-10.87-41.15a16.26,16.26,0,0,0-4.72.7l-70.4,21.12a1.85,1.85,0,0,0-1.33,1.63,1.72,1.72,0,0,0,.93,1.74c11.67,6.09,55.92,13.19,117.76,9.88a1102.63,1102.63,0,0,0,135-12.7,1.23,1.23,0,0,0,.1-2.41L734.5,1176.67a16.71,16.71,0,0,0-12.68,2l-23.32,14.52a12.72,12.72,0,0,1-12.67.44l-20.44-10.84A16.24,16.24,0,0,0,657.75,1180.92Z"/><path class="cls-1" d="M669.09,1270.21c-25.42,0-55.19-5-69.44-25.7l4.29-3c11.63,16.87,37.32,24.9,74.3,23.23l55.7-.85c37.67.55,63.31-8.54,74.16-26.3l4.45,2.72c-11.86,19.43-39,29.38-78.61,28.8l-55.54.84C675.39,1270.13,672.28,1270.21,669.09,1270.21Z"/><path class="cls-1" d="M1112,965.58a15,15,0,0,1,3.16-27.45,14.5,14.5,0,0,1,11.2,1.39l.13.07a9.32,9.32,0,0,0,7.14,1.32,9.79,9.79,0,0,0,3-17.74l2.82-4.39a15,15,0,0,1-4.67,27.22,14.46,14.46,0,0,1-11-2,9.29,9.29,0,0,0-12.86,3.72,9.75,9.75,0,0,0,3.69,13.29Z"/><path class="cls-1" d="M1100,1002.64a15,15,0,0,1,3.16-27.46,14.5,14.5,0,0,1,11.2,1.39l.12.08a9.38,9.38,0,0,0,7.14,1.32,9.79,9.79,0,0,0,3-17.75l2.81-4.39a15,15,0,0,1-4.67,27.23,14.56,14.56,0,0,1-11-2,9.29,9.29,0,0,0-7.14-.89,9.79,9.79,0,0,0-2,17.89Z"/><path class="cls-1" d="M1085.85,1040.65a15,15,0,0,1,3.16-27.45,14.52,14.52,0,0,1,11.21,1.39l.12.08a9.28,9.28,0,0,0,13.09-3,9.76,9.76,0,0,0-3-13.47l2.82-4.39a15,15,0,0,1,4.53,20.68,14.55,14.55,0,0,1-20.24,4.57,9.29,9.29,0,0,0-12.85,3.72,9.74,9.74,0,0,0,3.68,13.29Z"/><path class="cls-1" d="M1073.76,1077.71a15,15,0,0,1-5.66-20.41,14.56,14.56,0,0,1,20-5.66l.13.08a9.36,9.36,0,0,0,7.14,1.32,9.78,9.78,0,0,0,3-17.74l2.81-4.4a15,15,0,0,1-4.66,27.23,14.55,14.55,0,0,1-11-2,9.29,9.29,0,0,0-12.86,3.71,9.75,9.75,0,0,0,3.69,13.29Z"/><path class="cls-1" d="M953.19,1417.52a15,15,0,0,1,3.16-27.45,14.5,14.5,0,0,1,11.2,1.39l.12.07a9.29,9.29,0,0,0,13.1-3,9.76,9.76,0,0,0-2.95-13.47l2.81-4.39a15,15,0,0,1,4.53,20.68,14.55,14.55,0,0,1-20.24,4.57,9.29,9.29,0,0,0-7.14-.88,9.79,9.79,0,0,0-2,17.89Z"/><path class="cls-1" d="M1135.88,1012.82a15,15,0,0,1,3.16-27.45,14.49,14.49,0,0,1,11.2,1.39l.13.07a9.28,9.28,0,0,0,13.09-3,9.76,9.76,0,0,0-3-13.47l2.81-4.4a15,15,0,0,1,4.53,20.69,14.55,14.55,0,0,1-20.23,4.57,9.29,9.29,0,0,0-7.14-.88,9.79,9.79,0,0,0-2,17.89Z"/><path class="cls-1" d="M1123.78,1049.87a15,15,0,0,1-5.65-20.4,14.55,14.55,0,0,1,20-5.66l.12.07a9.28,9.28,0,0,0,13.1-3,9.76,9.76,0,0,0-2.95-13.47l2.81-4.39a15,15,0,0,1,4.53,20.68,14.55,14.55,0,0,1-20.24,4.57,9.28,9.28,0,0,0-12.85,3.72,9.76,9.76,0,0,0,3.68,13.29Z"/><path class="cls-1" d="M1109.69,1087.89a15,15,0,0,1,3.16-27.45,14.52,14.52,0,0,1,11.21,1.39l.12.07a9.28,9.28,0,0,0,13.09-3,9.74,9.74,0,0,0-3-13.47l2.82-4.4a15,15,0,0,1,4.53,20.69,14.55,14.55,0,0,1-20.24,4.57,9.28,9.28,0,0,0-12.85,3.72,9.61,9.61,0,0,0-1.15,6.34,9.75,9.75,0,0,0,4.83,6.95Z"/><path class="cls-1" d="M1097.6,1124.94a15,15,0,0,1,3.16-27.45,14.49,14.49,0,0,1,11.2,1.39l.13.08a9.28,9.28,0,0,0,13.09-3,9.76,9.76,0,0,0-3-13.47l2.81-4.39a15,15,0,0,1,4.53,20.68,14.54,14.54,0,0,1-20.23,4.57,9.36,9.36,0,0,0-7.15-.88,9.79,9.79,0,0,0-2,17.89Z"/><path class="cls-1" d="M1058.4,1117.89a15,15,0,0,1-5.66-20.4,14.56,14.56,0,0,1,20-5.66l.12.07a9.33,9.33,0,0,0,7.14,1.32,9.6,9.6,0,0,0,6-4.27,9.76,9.76,0,0,0-3-13.47l2.82-4.4a15,15,0,0,1,4.53,20.68,14.79,14.79,0,0,1-9.2,6.55,14.55,14.55,0,0,1-11-2,9.28,9.28,0,0,0-12.85,3.72,9.72,9.72,0,0,0,3.68,13.28Z"/><path class="cls-1" d="M1046.31,1154.94a15,15,0,0,1-5.66-20.4,14.54,14.54,0,0,1,20-5.66l.13.07a9.32,9.32,0,0,0,7.14,1.32,9.59,9.59,0,0,0,6-4.27,9.76,9.76,0,0,0-3-13.47l2.81-4.4a15,15,0,0,1-4.66,27.23,14.55,14.55,0,0,1-11-2,9.29,9.29,0,0,0-12.86,3.72,9.75,9.75,0,0,0,3.69,13.29Z"/><path class="cls-1" d="M1032.21,1193a15,15,0,0,1-5.65-20.4,14.78,14.78,0,0,1,8.81-7,14.47,14.47,0,0,1,11.21,1.39l.12.07a9.33,9.33,0,0,0,7.14,1.32,9.78,9.78,0,0,0,3-17.74l2.82-4.4a15,15,0,0,1-4.67,27.23,14.55,14.55,0,0,1-11-2,9.29,9.29,0,0,0-7.14-.88,9.85,9.85,0,0,0-6.85,10.94,9.73,9.73,0,0,0,4.82,7Z"/><path class="cls-1" d="M1020.12,1230a15,15,0,0,1-5.66-20.4,14.56,14.56,0,0,1,20-5.66l.12.07a9.33,9.33,0,0,0,7.14,1.32,9.83,9.83,0,0,0,7.27-11.61,9.73,9.73,0,0,0-4.27-6.13l2.82-4.39a15,15,0,0,1-4.67,27.22,14.46,14.46,0,0,1-11-2,9.28,9.28,0,0,0-12.85,3.72,9.62,9.62,0,0,0-1.15,6.34,9.75,9.75,0,0,0,4.83,7Z"/><path class="cls-1" d="M1082.24,1165.12a15,15,0,0,1,3.16-27.45,14.52,14.52,0,0,1,11.21,1.39l.12.08a9.28,9.28,0,0,0,13.09-3,9.74,9.74,0,0,0-3-13.47l2.82-4.39a15,15,0,0,1,4.53,20.68,14.55,14.55,0,0,1-20.24,4.57,9.29,9.29,0,0,0-12.85,3.72,9.62,9.62,0,0,0-1.15,6.34,9.75,9.75,0,0,0,4.83,6.95Z"/><path class="cls-1" d="M1070.15,1202.18a15,15,0,0,1,3.16-27.45,14.45,14.45,0,0,1,11.2,1.39l.12.07a9.29,9.29,0,0,0,13.1-3,9.76,9.76,0,0,0-3-13.47l2.81-4.4a15,15,0,0,1,4.53,20.68,14.55,14.55,0,0,1-20.23,4.58,9.29,9.29,0,0,0-12.86,3.72,9.74,9.74,0,0,0,3.69,13.28Z"/><path class="cls-1" d="M1056.05,1240.2a15,15,0,0,1-7.41-10.67,15.1,15.1,0,0,1,1.75-9.74,14.87,14.87,0,0,1,8.82-7,14.52,14.52,0,0,1,11.21,1.39l.12.08a9.28,9.28,0,0,0,13.09-3,9.77,9.77,0,0,0-3-13.48l2.82-4.39a15,15,0,0,1,4.53,20.68,14.56,14.56,0,0,1-20.24,4.58,9.3,9.3,0,0,0-7.14-.89,9.79,9.79,0,0,0-2,17.89Z"/><path class="cls-1" d="M1044,1277.25a15,15,0,0,1-5.66-20.4,14.54,14.54,0,0,1,20-5.66l.13.07a9.28,9.28,0,0,0,13.09-3,9.76,9.76,0,0,0-3-13.47l2.82-4.4a15,15,0,0,1,4.53,20.68,14.79,14.79,0,0,1-9.2,6.55,14.55,14.55,0,0,1-11-2,9.29,9.29,0,0,0-12.86,3.72,9.65,9.65,0,0,0-1.14,6.34,9.77,9.77,0,0,0,4.83,7Z"/><path class="cls-1" d="M1119.54,1174.84a15,15,0,0,1,3.16-27.45,14.51,14.51,0,0,1,11.21,1.38l.12.08a9.37,9.37,0,0,0,7.14,1.32,9.6,9.6,0,0,0,5.95-4.27,9.75,9.75,0,0,0-2.95-13.47l2.82-4.4a15,15,0,0,1,4.53,20.68,14.8,14.8,0,0,1-9.2,6.55,14.55,14.55,0,0,1-11-2,9.28,9.28,0,0,0-12.85,3.71,9.76,9.76,0,0,0,3.68,13.29Z"/><path class="cls-1" d="M1107.45,1211.89a15,15,0,0,1,3.16-27.45,14.47,14.47,0,0,1,11.21,1.39l.12.07a9.33,9.33,0,0,0,7.14,1.32,9.78,9.78,0,0,0,3-17.74l2.82-4.4a15,15,0,0,1-4.67,27.23,14.55,14.55,0,0,1-11-2,9.29,9.29,0,0,0-7.14-.88,9.87,9.87,0,0,0-6.86,10.94,9.75,9.75,0,0,0,4.83,6.95Z"/><path class="cls-1" d="M1093.36,1249.91a15,15,0,0,1-5.66-20.4,14.54,14.54,0,0,1,20-5.66l.12.07a9.29,9.29,0,0,0,13.1-3,9.76,9.76,0,0,0-3-13.47l2.81-4.4a15,15,0,0,1,4.53,20.68,14.55,14.55,0,0,1-20.23,4.58,9.29,9.29,0,0,0-12.86,3.72,9.74,9.74,0,0,0,3.69,13.28Z"/><path class="cls-1" d="M1081.26,1287a15,15,0,0,1,3.16-27.45,14.52,14.52,0,0,1,11.21,1.39l.12.07a9.33,9.33,0,0,0,7.14,1.32,9.84,9.84,0,0,0,7.27-11.62,9.67,9.67,0,0,0-4.27-6.12l2.82-4.4a15,15,0,0,1-4.67,27.23,14.55,14.55,0,0,1-11-2,9.28,9.28,0,0,0-12.85,3.72,9.61,9.61,0,0,0-1.14,6.34,9.71,9.71,0,0,0,4.82,7Z"/><path class="cls-1" d="M1004.54,1267.54a14.92,14.92,0,0,1-7.41-10.66,15.1,15.1,0,0,1,1.75-9.74,14.57,14.57,0,0,1,20-5.66l.12.08a9.37,9.37,0,0,0,7.14,1.31,9.83,9.83,0,0,0,7.27-11.61,9.69,9.69,0,0,0-4.27-6.13l2.82-4.39a15,15,0,0,1-4.67,27.23,14.51,14.51,0,0,1-11-2,9.28,9.28,0,0,0-12.85,3.72,9.76,9.76,0,0,0,3.68,13.29Z"/><path class="cls-1" d="M992.45,1304.6a15,15,0,0,1,3.16-27.45,14.48,14.48,0,0,1,11.2,1.38l.13.08a9.28,9.28,0,0,0,13.09-2.95,9.76,9.76,0,0,0-2.95-13.47l2.82-4.4a15,15,0,0,1,4.53,20.68,14.57,14.57,0,0,1-20.24,4.58,9.3,9.3,0,0,0-7.14-.89,9.79,9.79,0,0,0-2,17.89Z"/><path class="cls-1" d="M978.35,1342.61a15,15,0,0,1,3.17-27.45,14.5,14.5,0,0,1,11.2,1.39l.12.08a9.29,9.29,0,0,0,13.1-3,9.77,9.77,0,0,0-3-13.48l2.81-4.39a15,15,0,0,1-4.67,27.23,14.52,14.52,0,0,1-11-2,9.3,9.3,0,0,0-12.85,3.72,9.76,9.76,0,0,0,3.68,13.29Z"/><path class="cls-1" d="M966.26,1379.67a15,15,0,0,1,3.16-27.45,14.47,14.47,0,0,1,11.21,1.39l.12.07a9.28,9.28,0,0,0,13.09-3,9.76,9.76,0,0,0-3-13.47l2.82-4.4a15,15,0,0,1,4.53,20.68,14.57,14.57,0,0,1-20.24,4.58,9.34,9.34,0,0,0-7.14-.89,9.79,9.79,0,0,0-2,17.89Z"/><path class="cls-1" d="M1028.38,1314.78a15,15,0,0,1,3.16-27.45,14.52,14.52,0,0,1,11.21,1.39l.12.07a9.33,9.33,0,0,0,7.14,1.32,9.56,9.56,0,0,0,6-4.27,9.74,9.74,0,0,0-3-13.47l2.82-4.4a15,15,0,0,1-4.67,27.23,14.55,14.55,0,0,1-11-2,9.29,9.29,0,0,0-7.14-.88,9.87,9.87,0,0,0-6.86,10.94,9.75,9.75,0,0,0,4.83,7Z"/><path class="cls-1" d="M1016.29,1351.83a15,15,0,0,1-5.66-20.4,14.56,14.56,0,0,1,20-5.66l.13.08a9.36,9.36,0,0,0,7.14,1.31,9.59,9.59,0,0,0,5.95-4.27,9.76,9.76,0,0,0-2.95-13.47l2.82-4.39a15,15,0,0,1,4.52,20.68,14.73,14.73,0,0,1-9.19,6.54,14.46,14.46,0,0,1-11-2,9.29,9.29,0,0,0-12.86,3.72,9.75,9.75,0,0,0,3.69,13.29Z"/><path class="cls-1" d="M1002.19,1389.85a15,15,0,0,1,3.17-27.45,14.5,14.5,0,0,1,11.2,1.39l.12.07a9.33,9.33,0,0,0,7.14,1.32,9.56,9.56,0,0,0,5.95-4.27,9.75,9.75,0,0,0-3-13.47l2.82-4.39a15,15,0,0,1,4.53,20.68,14.75,14.75,0,0,1-9.2,6.54,14.47,14.47,0,0,1-11-2,9.29,9.29,0,0,0-7.14-.88,9.79,9.79,0,0,0-2,17.89Z"/><path class="cls-1" d="M990.1,1426.9a15,15,0,0,1,3.16-27.45,14.52,14.52,0,0,1,11.21,1.39l.12.08a9.37,9.37,0,0,0,7.14,1.31,9.55,9.55,0,0,0,5.95-4.27,9.74,9.74,0,0,0-2.95-13.47l2.82-4.39a15,15,0,0,1-4.67,27.23,14.51,14.51,0,0,1-11-2,9.34,9.34,0,0,0-7.14-.88,9.79,9.79,0,0,0-2,17.89Z"/><path class="cls-1" d="M1065.69,1324.49a14.95,14.95,0,0,1-5.66-20.4,14.55,14.55,0,0,1,20-5.66l.12.07a9.34,9.34,0,0,0,7.14,1.32,9.61,9.61,0,0,0,6-4.27,9.77,9.77,0,0,0-3-13.47l2.81-4.39a15,15,0,0,1,4.53,20.68,14.75,14.75,0,0,1-9.2,6.54,14.51,14.51,0,0,1-11-2,9.28,9.28,0,0,0-12.85,3.72,9.75,9.75,0,0,0,3.69,13.29Z"/><path class="cls-1" d="M1053.59,1361.55a15,15,0,0,1,3.16-27.46,14.52,14.52,0,0,1,11.21,1.39l.12.08a9.28,9.28,0,0,0,13.09-3,9.74,9.74,0,0,0-3-13.47l2.82-4.4a15,15,0,0,1-4.67,27.23,14.51,14.51,0,0,1-11-2,9.3,9.3,0,0,0-12.85,3.72,9.74,9.74,0,0,0,3.68,13.29Z"/><path class="cls-1" d="M1039.5,1399.56a15,15,0,0,1,3.16-27.45,14.5,14.5,0,0,1,11.2,1.39l.13.08a9.36,9.36,0,0,0,7.14,1.31,9.79,9.79,0,0,0,3-17.74l2.81-4.39a15,15,0,0,1-4.66,27.22,14.46,14.46,0,0,1-11-2,9.29,9.29,0,0,0-12.86,3.72,9.75,9.75,0,0,0,3.69,13.29Z"/><path class="cls-1" d="M854.13,1345.23a14.89,14.89,0,0,1-7.41-10.66,15,15,0,0,1,1.75-9.74,14.57,14.57,0,0,1,20-5.66l.12.08a9.37,9.37,0,0,0,7.14,1.31,9.59,9.59,0,0,0,6-4.27,9.76,9.76,0,0,0-3-13.47l2.82-4.39a15,15,0,0,1-4.67,27.23,14.51,14.51,0,0,1-11-2A9.29,9.29,0,0,0,853,1327.4a9.75,9.75,0,0,0,3.69,13.29Z"/><path class="cls-1" d="M904.16,1317.4a15,15,0,0,1-5.66-20.4,14.54,14.54,0,0,1,20-5.66l.13.07a9.3,9.3,0,0,0,7.13,1.32,9.65,9.65,0,0,0,6-4.27,9.77,9.77,0,0,0-3-13.47l2.81-4.4a15,15,0,0,1,4.53,20.69,14.8,14.8,0,0,1-9.19,6.54,14.54,14.54,0,0,1-11-2,9.29,9.29,0,0,0-12.86,3.72,9.75,9.75,0,0,0,3.69,13.29Z"/><path class="cls-1" d="M890.06,1355.42a14.93,14.93,0,0,1-7.41-10.67,15.1,15.1,0,0,1,1.75-9.74,14.56,14.56,0,0,1,20-5.65l.12.07a9.28,9.28,0,0,0,13.09-3,9.76,9.76,0,0,0-2.95-13.47l2.82-4.4a15,15,0,0,1,4.53,20.68,14.79,14.79,0,0,1-9.2,6.55,14.55,14.55,0,0,1-11-2,9.28,9.28,0,0,0-12.85,3.72,9.72,9.72,0,0,0,3.68,13.28Z"/><path class="cls-1" d="M878,1392.47a15,15,0,0,1,3.16-27.45,14.49,14.49,0,0,1,11.2,1.39l.13.07a9.32,9.32,0,0,0,7.14,1.32,9.59,9.59,0,0,0,5.95-4.27,9.76,9.76,0,0,0-2.95-13.47l2.82-4.4a15,15,0,0,1-4.67,27.23,14.55,14.55,0,0,1-11-2,9.29,9.29,0,0,0-12.86,3.72,9.75,9.75,0,0,0,3.69,13.29Z"/><path class="cls-1" d="M953.55,1290.06a15,15,0,0,1-5.65-20.4,14.75,14.75,0,0,1,8.81-7.05,14.47,14.47,0,0,1,11.21,1.39l.12.07a9.33,9.33,0,0,0,7.14,1.32,9.78,9.78,0,0,0,3-17.74l2.82-4.4a15,15,0,0,1-4.67,27.23,14.55,14.55,0,0,1-11-2,9.34,9.34,0,0,0-7.14-.89,9.79,9.79,0,0,0-2,17.89Z"/><path class="cls-1" d="M941.46,1327.11a15,15,0,0,1,3.16-27.45,14.52,14.52,0,0,1,11.21,1.39l.12.07a9.33,9.33,0,0,0,7.14,1.32,9.59,9.59,0,0,0,5.95-4.27,9.74,9.74,0,0,0-2.95-13.47l2.82-4.39a15,15,0,0,1-4.67,27.22,14.5,14.5,0,0,1-11-2,9.29,9.29,0,0,0-7.14-.88,9.87,9.87,0,0,0-6.86,10.94,9.75,9.75,0,0,0,4.83,7Z"/><path class="cls-1" d="M927.37,1365.13a15,15,0,0,1,3.16-27.45,14.5,14.5,0,0,1,11.2,1.39l.12.07a9.34,9.34,0,0,0,7.14,1.32,9.78,9.78,0,0,0,3-17.74l2.81-4.4a15,15,0,0,1-4.66,27.23,14.55,14.55,0,0,1-11-2,9.29,9.29,0,0,0-12.86,3.72,9.75,9.75,0,0,0,3.69,13.29Z"/><path class="cls-1" d="M915.27,1402.18a14.92,14.92,0,0,1-7.41-10.66,15.08,15.08,0,0,1,1.75-9.74,14.56,14.56,0,0,1,20-5.66l.12.07a9.33,9.33,0,0,0,7.14,1.32,9.56,9.56,0,0,0,6-4.27,9.76,9.76,0,0,0-3-13.47l2.82-4.39a15,15,0,0,1,4.53,20.68,14.78,14.78,0,0,1-9.2,6.54,14.5,14.5,0,0,1-11-2,9.28,9.28,0,0,0-12.85,3.72,9.76,9.76,0,0,0,3.68,13.29Z"/><path class="cls-1" d="M890.94,1483a15,15,0,0,1,3.17-27.45,14.5,14.5,0,0,1,11.2,1.39l.12.07a9.29,9.29,0,0,0,13.1-3,9.76,9.76,0,0,0-2.95-13.47l2.81-4.4a15,15,0,0,1,4.53,20.69,14.55,14.55,0,0,1-20.24,4.57,9.28,9.28,0,0,0-12.85,3.72,9.75,9.75,0,0,0,3.69,13.29Z"/><path class="cls-1" d="M878.85,1520.05A15,15,0,0,1,882,1492.6a14.52,14.52,0,0,1,11.21,1.39l.12.08a9.28,9.28,0,0,0,13.09-3,9.74,9.74,0,0,0-2.95-13.47l2.82-4.39a15,15,0,0,1,4.53,20.68,14.55,14.55,0,0,1-20.24,4.57,9.34,9.34,0,0,0-7.14-.88,9.87,9.87,0,0,0-6.86,10.94,9.75,9.75,0,0,0,4.83,7Z"/><path class="cls-1" d="M941,1455.17a15,15,0,0,1-5.66-20.41,14.57,14.57,0,0,1,20-5.66l.12.08a9.37,9.37,0,0,0,7.14,1.32,9.6,9.6,0,0,0,5.95-4.27,9.74,9.74,0,0,0-2.95-13.47l2.82-4.4a15,15,0,0,1-4.67,27.23,14.55,14.55,0,0,1-11-2,9.28,9.28,0,0,0-12.85,3.71,9.74,9.74,0,0,0,3.68,13.29Z"/><path class="cls-1" d="M928.88,1492.22a15,15,0,0,1,3.16-27.45,14.45,14.45,0,0,1,11.2,1.39l.13.07a9.28,9.28,0,0,0,13.09-3,9.76,9.76,0,0,0-3-13.47l2.81-4.4a15,15,0,0,1,4.53,20.68,14.53,14.53,0,0,1-20.23,4.58,9.29,9.29,0,0,0-12.86,3.72,9.75,9.75,0,0,0,3.69,13.29Z"/><path class="cls-1" d="M914.78,1530.24a15,15,0,0,1,3.17-27.45,14.45,14.45,0,0,1,11.2,1.39l.12.07a9.28,9.28,0,0,0,13.09-3,9.75,9.75,0,0,0-2.94-13.47l2.81-4.4a15,15,0,0,1-4.67,27.23,14.56,14.56,0,0,1-11-2,9.28,9.28,0,0,0-12.85,3.72,9.58,9.58,0,0,0-1.14,6.33,9.69,9.69,0,0,0,4.82,7Z"/><path class="cls-1" d="M978.28,1464.88a15,15,0,0,1-5.66-20.4,14.77,14.77,0,0,1,8.82-7,14.45,14.45,0,0,1,11.2,1.39l.12.07a9.29,9.29,0,0,0,13.1-3,9.77,9.77,0,0,0-3-13.47l2.81-4.4a15,15,0,0,1,4.53,20.68,14.77,14.77,0,0,1-9.2,6.55,14.56,14.56,0,0,1-11-2,9.28,9.28,0,0,0-12.85,3.72,9.74,9.74,0,0,0,3.69,13.28Z"/><path class="cls-1" d="M899.69,1441.92a15,15,0,0,1,3.17-27.45,14.5,14.5,0,0,1,11.2,1.39l.12.07a9.29,9.29,0,0,0,13.1-3,9.77,9.77,0,0,0-2.95-13.47l2.81-4.39a15,15,0,0,1,4.53,20.68,14.75,14.75,0,0,1-9.2,6.54,14.47,14.47,0,0,1-11-2,9.28,9.28,0,0,0-12.85,3.72,9.76,9.76,0,0,0,3.68,13.29Z"/><path class="cls-1" d="M753.21,1403.54a15,15,0,0,1-5.66-20.41,14.56,14.56,0,0,1,20-5.66l.13.08a9.36,9.36,0,0,0,7.14,1.32,9.78,9.78,0,0,0,3-17.74l2.81-4.4A15,15,0,0,1,776,1384a14.55,14.55,0,0,1-11-2,9.3,9.3,0,0,0-12.86,3.71,9.75,9.75,0,0,0,3.69,13.29Z"/><path class="cls-1" d="M741.12,1440.59a15,15,0,0,1,3.16-27.45,14.5,14.5,0,0,1,11.2,1.39l.12.07a9.29,9.29,0,0,0,13.1-2.95,9.76,9.76,0,0,0-3-13.47l2.81-4.4a15,15,0,0,1,4.53,20.69,14.55,14.55,0,0,1-20.24,4.57,9.28,9.28,0,0,0-12.85,3.72,9.75,9.75,0,0,0,3.69,13.29Z"/><path class="cls-1" d="M803.24,1375.7a14.95,14.95,0,0,1-5.66-20.4,14.55,14.55,0,0,1,20-5.66l.12.07a9.33,9.33,0,0,0,7.14,1.32,9.81,9.81,0,0,0,7.27-11.61,9.71,9.71,0,0,0-4.26-6.13l2.81-4.39a15,15,0,0,1-4.67,27.22,14.47,14.47,0,0,1-11-2,9.28,9.28,0,0,0-12.85,3.72,9.75,9.75,0,0,0,3.69,13.29Z"/><path class="cls-1" d="M791.14,1412.76a15,15,0,0,1,3.16-27.46,14.52,14.52,0,0,1,11.21,1.39l.12.08a9.41,9.41,0,0,0,7.14,1.32,9.6,9.6,0,0,0,6-4.27,9.74,9.74,0,0,0-3-13.47l2.82-4.4a15,15,0,0,1-4.67,27.23,14.55,14.55,0,0,1-11-2,9.3,9.3,0,0,0-7.14-.89,9.79,9.79,0,0,0-2,17.89Z"/><path class="cls-1" d="M777.05,1450.77a15,15,0,0,1,3.16-27.45,14.5,14.5,0,0,1,11.2,1.39l.13.08a9.28,9.28,0,0,0,13.09-3,9.76,9.76,0,0,0-3-13.47l2.81-4.39a15,15,0,0,1,4.53,20.68,14.54,14.54,0,0,1-20.23,4.57,9.29,9.29,0,0,0-12.86,3.72,9.75,9.75,0,0,0,3.69,13.29Z"/><path class="cls-1" d="M765,1487.83a15,15,0,0,1-5.65-20.41,14.56,14.56,0,0,1,20-5.66l.12.08a9.33,9.33,0,0,0,7.14,1.32,9.6,9.6,0,0,0,5.95-4.27,9.76,9.76,0,0,0-2.94-13.47l2.81-4.4a15,15,0,0,1,4.53,20.68,14.8,14.8,0,0,1-9.2,6.55,14.55,14.55,0,0,1-11-2,9.28,9.28,0,0,0-12.85,3.71,9.76,9.76,0,0,0,3.68,13.29Z"/><path class="cls-1" d="M840.54,1385.41A15,15,0,0,1,843.7,1358a14.5,14.5,0,0,1,11.2,1.39l.13.08a9.36,9.36,0,0,0,7.14,1.31,9.55,9.55,0,0,0,6-4.27,9.76,9.76,0,0,0-3-13.47l2.82-4.39a15,15,0,0,1,4.52,20.68,14.78,14.78,0,0,1-9.19,6.55,14.51,14.51,0,0,1-11-2,9.34,9.34,0,0,0-7.14-.88,9.79,9.79,0,0,0-2,17.89Z"/><path class="cls-1" d="M828.45,1422.47a15,15,0,0,1-5.66-20.4,14.77,14.77,0,0,1,8.82-7,14.45,14.45,0,0,1,11.2,1.39l.12.07a9.34,9.34,0,0,0,7.14,1.32,9.78,9.78,0,0,0,3-17.74l2.81-4.4a15,15,0,0,1-4.67,27.23,14.55,14.55,0,0,1-11-2A9.34,9.34,0,0,0,833,1400a9.79,9.79,0,0,0-2,17.89Z"/><path class="cls-1" d="M814.35,1460.49a15,15,0,0,1,3.16-27.46,14.52,14.52,0,0,1,11.21,1.39l.12.08a9.37,9.37,0,0,0,7.14,1.32,9.6,9.6,0,0,0,5.95-4.27,9.75,9.75,0,0,0-2.95-13.48l2.82-4.39a15,15,0,0,1-4.67,27.23,14.55,14.55,0,0,1-11-2,9.3,9.3,0,0,0-7.14-.89,9.79,9.79,0,0,0-2,17.89Z"/><path class="cls-1" d="M802.26,1497.54a15,15,0,0,1,3.16-27.45,14.45,14.45,0,0,1,11.2,1.39l.13.07a9.32,9.32,0,0,0,7.14,1.32,9.78,9.78,0,0,0,3-17.74l2.81-4.4A15,15,0,0,1,825,1478a14.55,14.55,0,0,1-11-2,9.29,9.29,0,0,0-7.14-.88,9.84,9.84,0,0,0-6.86,10.94,9.71,9.71,0,0,0,4.83,7Z"/><path class="cls-1" d="M861.73,1433.09a15,15,0,0,1-5.66-20.4,14.55,14.55,0,0,1,20-5.66l.13.07a9.33,9.33,0,0,0,7.14,1.32,9.79,9.79,0,0,0,3-17.74l2.82-4.39a15,15,0,0,1-4.67,27.22,14.5,14.5,0,0,1-11-2,9.29,9.29,0,0,0-12.86,3.72,9.75,9.75,0,0,0,3.69,13.29Z"/><path class="cls-1" d="M849.64,1470.15a15,15,0,0,1,3.16-27.46,14.5,14.5,0,0,1,11.2,1.39l.12.08a9.29,9.29,0,0,0,13.1-3,9.76,9.76,0,0,0-3-13.47l2.81-4.4a15,15,0,0,1,4.53,20.68,14.55,14.55,0,0,1-20.23,4.58,9.29,9.29,0,0,0-12.86,3.71,9.75,9.75,0,0,0,3.69,13.29Z"/><path class="cls-1" d="M835.54,1508.16a15,15,0,0,1,3.16-27.45,14.52,14.52,0,0,1,11.21,1.39l.12.08a9.28,9.28,0,0,0,13.09-3,9.74,9.74,0,0,0-3-13.47l2.82-4.39a15,15,0,0,1-4.67,27.22,14.46,14.46,0,0,1-11-2,9.28,9.28,0,0,0-12.85,3.72,9.74,9.74,0,0,0,3.68,13.29Z"/><path class="cls-1" d="M823.45,1545.22a15,15,0,0,1-5.66-20.41,14.56,14.56,0,0,1,20-5.66l.13.08a9.32,9.32,0,0,0,7.14,1.32,9.63,9.63,0,0,0,5.95-4.27,9.76,9.76,0,0,0-2.95-13.47l2.82-4.4a15,15,0,0,1,4.52,20.68,14.78,14.78,0,0,1-9.19,6.55,14.55,14.55,0,0,1-11-2,9.3,9.3,0,0,0-12.86,3.71,9.75,9.75,0,0,0,3.69,13.29Z"/><path class="cls-1" d="M813,1583.63a15,15,0,0,1-5.66-20.4,14.54,14.54,0,0,1,20-5.66l.13.07a9.32,9.32,0,0,0,7.14,1.32,9.79,9.79,0,0,0,3-17.74l2.81-4.39a15,15,0,0,1-4.66,27.22,14.55,14.55,0,0,1-11-2,9.29,9.29,0,0,0-12.86,3.72,9.75,9.75,0,0,0,3.69,13.29Z"/><path class="cls-1" d="M800.85,1620.68a15,15,0,0,1,3.17-27.45,14.5,14.5,0,0,1,11.2,1.39l.12.08a9.28,9.28,0,0,0,13.09-3,9.75,9.75,0,0,0-2.94-13.47l2.81-4.39a15,15,0,0,1,4.53,20.68,14.55,14.55,0,0,1-20.24,4.57,9.28,9.28,0,0,0-12.85,3.72,9.76,9.76,0,0,0,3.68,13.29Z"/><path class="cls-1" d="M863,1555.8a15,15,0,0,1,3.16-27.45,14.47,14.47,0,0,1,11.21,1.39l.12.07a9.37,9.37,0,0,0,7.14,1.32,9.78,9.78,0,0,0,3-17.74l2.82-4.4a15,15,0,0,1-4.67,27.23,14.55,14.55,0,0,1-11-2,9.3,9.3,0,0,0-7.14-.89,9.79,9.79,0,0,0-2,17.89Z"/><path class="cls-1" d="M850.88,1592.85A15,15,0,0,1,854,1565.4a14.52,14.52,0,0,1,11.21,1.39l.12.07a9.33,9.33,0,0,0,7.14,1.32,9.59,9.59,0,0,0,6-4.27,9.74,9.74,0,0,0-3-13.47l2.82-4.4a15,15,0,0,1-4.67,27.23,14.55,14.55,0,0,1-11-2,9.29,9.29,0,0,0-7.14-.88,9.87,9.87,0,0,0-6.86,10.94,9.75,9.75,0,0,0,4.83,7Z"/><path class="cls-1" d="M900.28,1565.51a15,15,0,0,1-5.66-20.4,14.54,14.54,0,0,1,20-5.66l.13.07a9.32,9.32,0,0,0,7.14,1.32,9.78,9.78,0,0,0,3-17.74l2.81-4.4a15,15,0,0,1-4.66,27.23,14.55,14.55,0,0,1-11-2,9.29,9.29,0,0,0-12.86,3.72,9.75,9.75,0,0,0,3.69,13.29Z"/><path class="cls-1" d="M699.08,1552.34a14.92,14.92,0,0,1-7.41-10.66,15.08,15.08,0,0,1,1.75-9.74,14.83,14.83,0,0,1,8.82-7,14.52,14.52,0,0,1,11.21,1.39l.12.07a9.28,9.28,0,0,0,13.09-2.95,9.74,9.74,0,0,0-2.95-13.47l2.82-4.4a15,15,0,0,1,4.53,20.69,14.56,14.56,0,0,1-20.24,4.57,9.29,9.29,0,0,0-7.14-.88,9.79,9.79,0,0,0-2,17.89Z"/><path class="cls-1" d="M687,1589.39a15,15,0,0,1-5.66-20.4,14.55,14.55,0,0,1,20-5.66l.13.07a9.27,9.27,0,0,0,13.09-3,9.76,9.76,0,0,0-3-13.47l2.82-4.39a15,15,0,0,1,4.53,20.68,14.78,14.78,0,0,1-9.2,6.54,14.46,14.46,0,0,1-11-2,9.29,9.29,0,0,0-12.86,3.72,9.75,9.75,0,0,0,3.69,13.29Z"/><path class="cls-1" d="M749.11,1524.51a15,15,0,0,1,3.16-27.46,14.49,14.49,0,0,1,11.2,1.39l.13.08a9.28,9.28,0,0,0,13.09-3,9.76,9.76,0,0,0-3-13.47l2.82-4.4a15,15,0,0,1-4.67,27.23,14.51,14.51,0,0,1-11-2,9.31,9.31,0,0,0-12.86,3.72,9.75,9.75,0,0,0,3.69,13.29Z"/><path class="cls-1" d="M737,1561.56a15,15,0,0,1-5.66-20.4,14.54,14.54,0,0,1,20-5.66l.12.07a9.34,9.34,0,0,0,7.14,1.32,9.65,9.65,0,0,0,6-4.27,9.77,9.77,0,0,0-3-13.47l2.81-4.4a15,15,0,0,1,4.53,20.68,14.77,14.77,0,0,1-9.19,6.55,14.57,14.57,0,0,1-11-2,9.28,9.28,0,0,0-12.85,3.72,9.61,9.61,0,0,0-1.14,6.34,9.71,9.71,0,0,0,4.83,7Z"/><path class="cls-1" d="M722.92,1599.58a15,15,0,0,1-5.66-20.41,14.57,14.57,0,0,1,20-5.66l.12.08a9.33,9.33,0,0,0,7.14,1.32,9.6,9.6,0,0,0,6-4.27,9.76,9.76,0,0,0-3-13.47l2.82-4.4a15,15,0,0,1,4.53,20.68,14.83,14.83,0,0,1-9.2,6.55,14.55,14.55,0,0,1-11-2,9.28,9.28,0,0,0-12.85,3.71,9.74,9.74,0,0,0,3.68,13.29Z"/><path class="cls-1" d="M786.41,1534.22a15,15,0,0,1-5.66-20.4,14.56,14.56,0,0,1,20-5.66l.12.07a9.28,9.28,0,0,0,13.09-3,9.74,9.74,0,0,0-3-13.47l2.82-4.4a15,15,0,0,1,4.53,20.68,14.56,14.56,0,0,1-20.24,4.58,9.28,9.28,0,0,0-12.85,3.72,9.75,9.75,0,0,0,3.68,13.28Z"/><path class="cls-1" d="M774.32,1571.27a15,15,0,0,1,3.16-27.45,14.49,14.49,0,0,1,11.2,1.39l.13.07a9.28,9.28,0,0,0,13.09-3,9.76,9.76,0,0,0-2.95-13.47l2.82-4.4a15,15,0,0,1,4.53,20.69,14.56,14.56,0,0,1-20.24,4.57,9.29,9.29,0,0,0-7.14-.88,9.79,9.79,0,0,0-2,17.89Z"/><path class="cls-1" d="M761.08,1609.68a15,15,0,0,1-5.66-20.4,14.77,14.77,0,0,1,8.82-7,14.45,14.45,0,0,1,11.2,1.39l.12.07a9.38,9.38,0,0,0,7.14,1.32,9.78,9.78,0,0,0,3-17.74l2.81-4.4a15,15,0,0,1-4.67,27.23,14.56,14.56,0,0,1-11-2,9.34,9.34,0,0,0-7.14-.89,9.79,9.79,0,0,0-2,17.89Z"/><path class="cls-1" d="M639,1494.51a15,15,0,0,1-5.65-20.4,14.54,14.54,0,0,1,20-5.66l.12.07a9.28,9.28,0,0,0,13.09-3,9.76,9.76,0,0,0-3-13.47l2.82-4.4a15,15,0,0,1,4.53,20.68,14.56,14.56,0,0,1-20.24,4.58,9.28,9.28,0,0,0-12.85,3.72,9.59,9.59,0,0,0-1.14,6.34,9.73,9.73,0,0,0,4.82,7Z"/><path class="cls-1" d="M627,1531.56a15,15,0,0,1,3.16-27.45,14.52,14.52,0,0,1,11.21,1.39l.12.07a9.28,9.28,0,0,0,13.09-3,9.74,9.74,0,0,0-2.95-13.47l2.82-4.39a15,15,0,0,1,4.53,20.68,14.55,14.55,0,0,1-20.24,4.57,9.29,9.29,0,0,0-7.14-.88,9.87,9.87,0,0,0-6.86,10.94,9.75,9.75,0,0,0,4.83,7Z"/><path class="cls-1" d="M689.07,1466.67a14.89,14.89,0,0,1-7.41-10.66,15,15,0,0,1,1.75-9.74,14.56,14.56,0,0,1,20-5.66l.12.08a9.37,9.37,0,0,0,7.14,1.31,9.59,9.59,0,0,0,5.95-4.27,9.76,9.76,0,0,0-2.95-13.47l2.82-4.39a15,15,0,0,1,4.53,20.68,14.83,14.83,0,0,1-9.2,6.55,14.51,14.51,0,0,1-11-2,9.29,9.29,0,0,0-12.86,3.72,9.75,9.75,0,0,0,3.69,13.29Z"/><path class="cls-1" d="M677,1503.73a15,15,0,0,1-5.66-20.41,14.56,14.56,0,0,1,20-5.66l.13.08a9.36,9.36,0,0,0,7.14,1.32,9.78,9.78,0,0,0,3-17.74l2.81-4.4a15,15,0,0,1-4.66,27.23,14.55,14.55,0,0,1-11-2,9.29,9.29,0,0,0-12.86,3.71,9.75,9.75,0,0,0,3.69,13.29Z"/><path class="cls-1" d="M662.88,1541.74a14.92,14.92,0,0,1-7.41-10.66,15.1,15.1,0,0,1,1.75-9.74,14.87,14.87,0,0,1,8.82-7,14.52,14.52,0,0,1,11.21,1.39l.12.08a9.37,9.37,0,0,0,7.14,1.31,9.53,9.53,0,0,0,6-4.27,9.74,9.74,0,0,0-3-13.47l2.82-4.39a15,15,0,0,1-4.67,27.23,14.51,14.51,0,0,1-11-2,9.3,9.3,0,0,0-12.85,3.72,9.76,9.76,0,0,0,3.68,13.29Z"/><path class="cls-1" d="M726.37,1476.39a15,15,0,0,1,3.16-27.46,14.52,14.52,0,0,1,11.21,1.39l.12.08a9.28,9.28,0,0,0,13.09-3,9.74,9.74,0,0,0-3-13.47l2.82-4.4a15,15,0,0,1,4.53,20.68,14.56,14.56,0,0,1-20.24,4.58A9.29,9.29,0,0,0,731,1454a9.79,9.79,0,0,0-2,17.89Z"/><path class="cls-1" d="M714.28,1513.44a15,15,0,0,1,3.16-27.45,14.47,14.47,0,0,1,11.21,1.39l.12.07a9.28,9.28,0,0,0,13.09-3,9.76,9.76,0,0,0-3-13.47l2.82-4.4a15,15,0,0,1,4.53,20.68,14.56,14.56,0,0,1-20.24,4.58,9.29,9.29,0,0,0-7.14-.88A9.87,9.87,0,0,0,712,1502a9.75,9.75,0,0,0,4.83,7Z"/><path class="cls-1" d="M724.07,1359a14.92,14.92,0,0,1-7.41-10.66,15.08,15.08,0,0,1,1.75-9.74,14.56,14.56,0,0,1,20-5.66l.12.07a9.33,9.33,0,0,0,7.14,1.32,9.78,9.78,0,0,0,3-17.74l2.82-4.4a15,15,0,0,1-4.67,27.23,14.55,14.55,0,0,1-11-2,9.28,9.28,0,0,0-12.85,3.72,9.74,9.74,0,0,0,3.68,13.29Z"/><path class="cls-1" d="M760,1369.13a15,15,0,0,1-5.65-20.4,14.55,14.55,0,0,1,20-5.66l.12.07a9.28,9.28,0,0,0,13.1-3,9.76,9.76,0,0,0-3-13.47l2.81-4.39A15,15,0,0,1,792,1343a14.55,14.55,0,0,1-20.24,4.57,9.28,9.28,0,0,0-12.85,3.72,9.76,9.76,0,0,0,3.68,13.29Z"/><path class="cls-1" d="M811.4,1340.83a14.93,14.93,0,0,1-7.41-10.67,15.1,15.1,0,0,1,1.75-9.74,14.82,14.82,0,0,1,8.82-7,14.51,14.51,0,0,1,11.21,1.38l.12.08a9.28,9.28,0,0,0,13.09-2.95,9.76,9.76,0,0,0-3-13.47l2.82-4.4a15,15,0,0,1,4.53,20.68,14.57,14.57,0,0,1-20.24,4.58,9.3,9.3,0,0,0-7.14-.89,9.79,9.79,0,0,0-2,17.89Z"/><path class="cls-1" d="M709,1395.13a14.93,14.93,0,0,1-7.41-10.67,15.1,15.1,0,0,1,1.75-9.74,14.57,14.57,0,0,1,20-5.66l.12.08a9.37,9.37,0,0,0,7.14,1.32,9.78,9.78,0,0,0,3-17.74l2.82-4.4a15,15,0,0,1-4.67,27.23,14.55,14.55,0,0,1-11-2,9.28,9.28,0,0,0-12.85,3.71,9.76,9.76,0,0,0,3.68,13.29Z"/><path class="cls-1" d="M696.89,1432.18a15,15,0,0,1,3.16-27.45,14.52,14.52,0,0,1,11.21,1.39l.12.07a9.33,9.33,0,0,0,7.14,1.32,9.78,9.78,0,0,0,3-17.74l2.82-4.4a15,15,0,0,1-4.67,27.23,14.55,14.55,0,0,1-11-2,9.29,9.29,0,0,0-7.14-.88,9.84,9.84,0,0,0-6.86,10.94,9.75,9.75,0,0,0,4.83,7Z"/><path class="cls-1" d="M597.81,1363.8a15,15,0,0,1,3.16-27.45,14.52,14.52,0,0,1,11.21,1.39l.12.08a9.28,9.28,0,0,0,13.09-3,9.77,9.77,0,0,0-2.95-13.48l2.82-4.39a15,15,0,0,1,4.53,20.68,14.56,14.56,0,0,1-20.24,4.58,9.3,9.3,0,0,0-7.14-.89,9.79,9.79,0,0,0-2,17.89Z"/><path class="cls-1" d="M585.72,1400.86a15,15,0,0,1-5.66-20.4,14.56,14.56,0,0,1,20-5.66l.12.07a9.28,9.28,0,0,0,13.09-2.95,9.74,9.74,0,0,0-2.95-13.47l2.82-4.4a15,15,0,0,1,4.53,20.68,14.56,14.56,0,0,1-20.24,4.58,9.28,9.28,0,0,0-12.85,3.72,9.6,9.6,0,0,0-1.15,6.34,9.73,9.73,0,0,0,4.83,6.94Z"/><path class="cls-1" d="M635.75,1373a15,15,0,0,1-5.66-20.4,14.56,14.56,0,0,1,20-5.66l.13.08a9.36,9.36,0,0,0,7.14,1.31,9.79,9.79,0,0,0,3-17.74l2.81-4.39a15,15,0,0,1-4.66,27.23,14.51,14.51,0,0,1-11-2,9.3,9.3,0,0,0-12.86,3.72,9.75,9.75,0,0,0,3.69,13.29Z"/><path class="cls-1" d="M621.65,1411a14.92,14.92,0,0,1-7.41-10.66,15.08,15.08,0,0,1,1.75-9.74,14.83,14.83,0,0,1,8.82-7.05A14.52,14.52,0,0,1,636,1385l.12.07a9.33,9.33,0,0,0,7.14,1.32,9.83,9.83,0,0,0,7.27-11.61,9.69,9.69,0,0,0-4.27-6.13l2.82-4.39a15,15,0,0,1-4.67,27.22,14.55,14.55,0,0,1-11-2,9.29,9.29,0,0,0-7.14-.88,9.79,9.79,0,0,0-2,17.89Z"/><path class="cls-1" d="M685.14,1345.68a15,15,0,0,1,3.16-27.45,14.52,14.52,0,0,1,11.21,1.39l.12.07a9.26,9.26,0,0,0,13.09-3,9.74,9.74,0,0,0-3-13.47l2.82-4.39a15,15,0,0,1,4.53,20.68,14.55,14.55,0,0,1-20.24,4.57,9.28,9.28,0,0,0-12.85,3.72,9.76,9.76,0,0,0,3.68,13.29Z"/><path class="cls-1" d="M673.05,1382.74a15,15,0,0,1,3.16-27.46,14.52,14.52,0,0,1,11.21,1.39l.12.08a9.28,9.28,0,0,0,13.09-3,9.77,9.77,0,0,0-3-13.48l2.82-4.39a15,15,0,0,1,4.53,20.68,14.83,14.83,0,0,1-9.2,6.55,14.55,14.55,0,0,1-11-2,9.28,9.28,0,0,0-12.85,3.71,9.62,9.62,0,0,0-1.15,6.34,9.75,9.75,0,0,0,4.83,7Z"/><path class="cls-1" d="M606.64,1445a15,15,0,0,1,3.16-27.45A14.52,14.52,0,0,1,621,1419l.12.08a9.37,9.37,0,0,0,7.14,1.31,9.53,9.53,0,0,0,6-4.27,9.74,9.74,0,0,0-3-13.47l2.82-4.39a15,15,0,0,1-4.67,27.23,14.51,14.51,0,0,1-11-2,9.34,9.34,0,0,0-7.14-.88,9.79,9.79,0,0,0-2,17.89Z"/><path class="cls-1" d="M594.55,1482.09a15,15,0,0,1-5.66-20.4,14.55,14.55,0,0,1,20-5.66l.12.07a9.37,9.37,0,0,0,7.14,1.32,9.78,9.78,0,0,0,3-17.74l2.82-4.4a15,15,0,0,1-4.67,27.23,14.55,14.55,0,0,1-11-2,9.29,9.29,0,0,0-12.86,3.72,9.74,9.74,0,0,0,3.69,13.28Z"/><path class="cls-1" d="M656.67,1417.2a15,15,0,0,1-5.66-20.4,14.54,14.54,0,0,1,20-5.66l.13.07a9.32,9.32,0,0,0,7.14,1.32,9.59,9.59,0,0,0,6-4.27,9.74,9.74,0,0,0-3-13.47l2.82-4.4a15,15,0,0,1-4.67,27.23,14.55,14.55,0,0,1-11-2,9.29,9.29,0,0,0-12.86,3.72,9.75,9.75,0,0,0,3.69,13.29Z"/><path class="cls-1" d="M644.58,1454.25a15,15,0,0,1,3.16-27.45,14.5,14.5,0,0,1,11.2,1.39l.12.07a9.28,9.28,0,0,0,13.1-3,9.76,9.76,0,0,0-2.95-13.47l2.81-4.39a15,15,0,0,1,4.53,20.68,14.54,14.54,0,0,1-20.23,4.57,9.29,9.29,0,0,0-12.86,3.72,9.75,9.75,0,0,0,3.69,13.29Z"/><path class="cls-1" d="M583.61,1519.62a15,15,0,0,1-5.66-20.4,14.54,14.54,0,0,1,20-5.66l.13.07a9.32,9.32,0,0,0,7.14,1.32,9.78,9.78,0,0,0,3-17.74l2.81-4.4a15,15,0,0,1-4.66,27.23,14.55,14.55,0,0,1-11-2,9.29,9.29,0,0,0-12.86,3.72,9.75,9.75,0,0,0,3.69,13.29Z"/><path class="cls-1" d="M571.25,1437.51a15,15,0,0,1-5.66-20.41,14.55,14.55,0,0,1,20-5.65l.12.07a9.29,9.29,0,0,0,13.1-3,9.77,9.77,0,0,0-3-13.47l2.81-4.4a15,15,0,0,1,4.53,20.68A14.55,14.55,0,0,1,583,1416a9.29,9.29,0,0,0-12.86,3.72,9.74,9.74,0,0,0,3.69,13.28Z"/><path class="cls-1" d="M559.15,1474.56a14.92,14.92,0,0,1-7.41-10.66,15.08,15.08,0,0,1,1.75-9.74,14.83,14.83,0,0,1,8.82-7.05,14.52,14.52,0,0,1,11.21,1.39l.12.07a9.28,9.28,0,0,0,13.09-3,9.74,9.74,0,0,0-3-13.47l2.82-4.4a15,15,0,0,1,4.53,20.69,14.55,14.55,0,0,1-20.24,4.57,9.29,9.29,0,0,0-7.14-.88,9.79,9.79,0,0,0-2,17.89Z"/><path class="cls-1" d="M650.71,1579.66a15,15,0,0,1-5.66-20.4,14.55,14.55,0,0,1,20-5.66l.12.07a9.32,9.32,0,0,0,7.14,1.32,9.78,9.78,0,0,0,3-17.74l2.82-4.4a15,15,0,0,1-4.67,27.23,14.55,14.55,0,0,1-11-2,9.29,9.29,0,0,0-12.86,3.72,9.75,9.75,0,0,0,3.69,13.29Z"/><path class="cls-1" d="M614.51,1568.18a15,15,0,0,1,3.16-27.45,14.52,14.52,0,0,1,11.21,1.39l.12.07a9.32,9.32,0,0,0,7.14,1.32,9.59,9.59,0,0,0,6-4.27,9.74,9.74,0,0,0-3-13.47l2.82-4.4a15,15,0,0,1-4.67,27.23,14.55,14.55,0,0,1-11-2,9.29,9.29,0,0,0-7.14-.88,9.84,9.84,0,0,0-6.86,10.94,9.75,9.75,0,0,0,4.83,7Z"/><path class="cls-1" d="M562.68,1346.54a15,15,0,0,1,3.17-27.46,14.5,14.5,0,0,1,11.2,1.39l.12.08a9.29,9.29,0,0,0,13.1-3,9.76,9.76,0,0,0-2.95-13.47l2.81-4.4a15,15,0,0,1,4.53,20.68,14.56,14.56,0,0,1-20.24,4.58,9.29,9.29,0,0,0-7.14-.89,9.79,9.79,0,0,0-2,17.89Z"/><path class="cls-1" d="M550.59,1383.59a15,15,0,0,1,3.16-27.45,14.47,14.47,0,0,1,11.21,1.39l.12.07a9.28,9.28,0,0,0,13.09-2.95,9.76,9.76,0,0,0-2.95-13.47l2.82-4.4a15,15,0,0,1,4.53,20.68,14.56,14.56,0,0,1-20.24,4.58,9.29,9.29,0,0,0-7.14-.88,9.87,9.87,0,0,0-6.86,10.94,9.75,9.75,0,0,0,4.83,7Z"/><path class="cls-1" d="M534.21,1418.05a15,15,0,0,1-5.66-20.4,14.56,14.56,0,0,1,20-5.66l.12.07a9.33,9.33,0,0,0,7.14,1.32,9.83,9.83,0,0,0,7.27-11.61,9.73,9.73,0,0,0-4.27-6.13l2.82-4.39a15,15,0,0,1-4.67,27.22,14.46,14.46,0,0,1-11-2,9.29,9.29,0,0,0-12.86,3.72,9.75,9.75,0,0,0,3.69,13.29Z"/><path class="cls-1" d="M522.12,1455.11a15,15,0,0,1-5.66-20.41,14.56,14.56,0,0,1,20-5.66l.13.08a9.36,9.36,0,0,0,7.14,1.32,9.78,9.78,0,0,0,3-17.74l2.81-4.4a15,15,0,0,1-4.66,27.23,14.55,14.55,0,0,1-11-2,9.29,9.29,0,0,0-12.86,3.71,9.75,9.75,0,0,0,3.69,13.29Z"/><path class="cls-1" d="M525.33,1332.44a15,15,0,0,1-5.65-20.4,14.54,14.54,0,0,1,20-5.66l.12.07a9.28,9.28,0,0,0,13.09-3A9.75,9.75,0,0,0,550,1290l2.82-4.4a15,15,0,0,1,4.53,20.68,14.56,14.56,0,0,1-20.24,4.58,9.28,9.28,0,0,0-12.85,3.72,9.61,9.61,0,0,0-1.14,6.34,9.71,9.71,0,0,0,4.82,7Z"/><path class="cls-1" d="M513.24,1369.49a15,15,0,0,1-5.66-20.4,14.56,14.56,0,0,1,20-5.66l.12.07a9.26,9.26,0,0,0,13.09-3,9.74,9.74,0,0,0-3-13.47l2.82-4.39a15,15,0,0,1,4.53,20.68,14.55,14.55,0,0,1-20.24,4.57,9.28,9.28,0,0,0-12.85,3.72A9.62,9.62,0,0,0,511,1358a9.75,9.75,0,0,0,4.83,7Z"/><path class="cls-1" d="M496.86,1404A15,15,0,0,1,500,1376.5a14.56,14.56,0,0,1,11.21,1.39l.12.08a9.28,9.28,0,0,0,13.09-3,9.76,9.76,0,0,0-3-13.47l2.82-4.4a15,15,0,0,1,4.53,20.68,14.83,14.83,0,0,1-9.2,6.55,14.55,14.55,0,0,1-11-2,9.3,9.3,0,0,0-12.86,3.71,9.75,9.75,0,0,0,3.69,13.29Z"/><path class="cls-1" d="M500.61,1289.18a15,15,0,0,1-5.66-20.41,14.57,14.57,0,0,1,20-5.66l.12.08a9.41,9.41,0,0,0,7.14,1.32,9.6,9.6,0,0,0,6-4.27,9.75,9.75,0,0,0-3-13.48l2.82-4.39a15,15,0,0,1-4.67,27.23,14.51,14.51,0,0,1-11-2,9.3,9.3,0,0,0-12.85,3.72,9.74,9.74,0,0,0,3.68,13.29Z"/><path class="cls-1" d="M488.52,1326.23a15,15,0,0,1,3.16-27.45,14.45,14.45,0,0,1,11.2,1.39l.13.07a9.28,9.28,0,0,0,13.09-3,9.76,9.76,0,0,0-3-13.47l2.82-4.4a15,15,0,0,1,4.52,20.68,14.75,14.75,0,0,1-9.19,6.55,14.55,14.55,0,0,1-11-2,9.29,9.29,0,0,0-12.86,3.72,9.75,9.75,0,0,0,3.69,13.29Z"/><path class="cls-1" d="M472.14,1360.69a15,15,0,0,1,3.16-27.45,14.49,14.49,0,0,1,11.2,1.39l.13.07a9.32,9.32,0,0,0,7.14,1.32,9.79,9.79,0,0,0,3-17.74l2.81-4.39a15,15,0,0,1-4.66,27.22,14.46,14.46,0,0,1-11-2,9.29,9.29,0,0,0-12.86,3.72,9.75,9.75,0,0,0,3.69,13.29Z"/><path class="cls-1" d="M463.8,1283a15,15,0,0,1,3.16-27.45,14.5,14.5,0,0,1,11.2,1.39l.13.08a9.34,9.34,0,0,0,7.13,1.31,9.59,9.59,0,0,0,6-4.26,9.77,9.77,0,0,0-2.95-13.48l2.81-4.39a15,15,0,0,1-4.66,27.23,14.51,14.51,0,0,1-11-2,9.36,9.36,0,0,0-7.15-.88,9.79,9.79,0,0,0-2,17.89Z"/><path class="cls-1" d="M447.42,1317.43a15,15,0,0,1,3.16-27.45,14.45,14.45,0,0,1,11.2,1.39l.12.07a9.29,9.29,0,0,0,13.1-3,9.77,9.77,0,0,0-2.95-13.47l2.81-4.4a15,15,0,0,1,4.53,20.68,14.55,14.55,0,0,1-20.24,4.58A9.29,9.29,0,0,0,452,1295a9.79,9.79,0,0,0-2,17.89Z"/><path class="cls-1" d="M454.7,1250.33a15,15,0,0,1,3.16-27.45,14.51,14.51,0,0,1,11.21,1.38l.12.08a9.28,9.28,0,0,0,13.09-2.95,9.76,9.76,0,0,0-2.95-13.47l2.82-4.4a15,15,0,0,1,4.53,20.68,14.57,14.57,0,0,1-20.24,4.58,9.3,9.3,0,0,0-7.14-.89,9.79,9.79,0,0,0-2,17.89Z"/><path class="cls-1" d="M1226.51,1270.76a157.5,157.5,0,0,1-27.84-2.48c-35.49-6.37-57.8-22.39-58.73-23.07L1143,1241c.22.16,22.44,16.08,56.82,22.2a153.29,153.29,0,0,0,60.39-1.28c25-5.55,49.43-17.42,72.72-35.28l3.18,4.14C1295.48,1261.94,1257,1270.76,1226.51,1270.76Z"/><path class="cls-1" d="M585.63,1076.35c-7.17-14.81-8.65-27.72-4.39-38.36a33.21,33.21,0,0,1,17.66-17.84l1.83,4.89-.91-2.45.92,2.44a28.37,28.37,0,0,0-14.68,15c-3.65,9.21-2.22,20.68,4.27,34.08Z"/><path class="cls-1" d="M1227.62,1144.65c-7.73-33.34,4.38-60,15.89-76.48a119.93,119.93,0,0,1,27.07-28l3,4.29a117.75,117.75,0,0,0-25.85,26.84c-15.79,22.67-20.83,47-15,72.16Z"/><path class="cls-1" d="M536.56,1206.38l-5.22,0c.08-13.28,6.53-25.59,18.65-35.6a74.87,74.87,0,0,1,18.27-11.13l1.91,4.86-1-2.43,1,2.43C569.83,1164.61,536.73,1178,536.56,1206.38Z"/><path class="cls-1" d="M859,873.26c-18.27,0-44.31-15.5-45.41-16.16l2.68-4.48c.26.16,25.91,15.42,42.73,15.42Z"/><path class="cls-1" d="M569.56,889.7v-5.22c16.82,0,42.47-15.26,42.73-15.41l2.68,4.47C613.87,874.2,587.83,889.7,569.56,889.7Z"/><path class="cls-1" d="M969.66,849.79l-.35-5.21.17,2.61-.17-2.61a42.46,42.46,0,0,0,22.57-9.88l3.45,3.92A47.15,47.15,0,0,1,969.66,849.79Z"/><path class="cls-1" d="M1003,876.19c-9.29-13.09-29.92-14-30.13-14L973,857c1,0,23.43,1,34.2,16.18Z"/></g></svg>