<svg id="Layer_1" data-name="Layer 1" xmlns="http://www.w3.org/2000/svg" viewBox="0 0 2520 2160"><defs><style>.cls-1{fill:none;stroke:#fff;stroke-miterlimit:10;stroke-width:6px;}.cls-2{fill:#fff;}</style></defs><title>Main Library Floor Maps</title><path d="M2340.22,297.58a65.59,65.59,0,0,1-46.4-112h0a65.61,65.61,0,1,1,46.4,112Zm0-118a52,52,0,0,0-37,15.34h0a52.39,52.39,0,1,0,37-15.34Zm-41.72,10.66Z"/><polygon points="2340.77 240.45 2366.38 256.15 2338.87 195.17 2313.37 256.14 2340.77 240.45"/><path d="M2354.31,121.94v31.73h-4.85L2332,132.18v21.49h-5.84V121.94H2331l17.49,21.48V121.94Z"/><polyline class="cls-1" points="838.27 1949.85 374.19 1949.85 376.94 1463.98 364.19 1463.98 364.19 731.98 374.19 731.98 374.19 230.91 2142.02 230.91 2142.02 732.11 2151.02 731.98 2153.02 1459.98 2142.02 1459.98 2142.02 1949.85 1662.01 1949.85 1662.01 2023.55 840.25 2023.55 840.25 1865.54"/><polyline class="cls-1" points="1625.27 895.62 1667.98 895.62 1667.98 368.98 1433.96 368.98 1433.96 895.62 1477.27 895.62"/><line class="cls-1" x1="1589.27" y1="895.62" x2="1508.27" y2="895.62"/><polyline class="cls-1" points="1433.96 818.98 1548.27 818.98 1667.98 818.98"/><line class="cls-1" x1="1550.97" y1="895.62" x2="1550.97" y2="818.98"/><polyline class="cls-1" points="1433.96 368.98 1077.27 368.98 1077.27 895.62 997.27 895.62"/><line class="cls-1" x1="968.27" y1="895.62" x2="968.27" y2="416.98"/><polyline class="cls-1" points="1077.27 416.98 958.27 416.98 958.27 367.98"/><line class="cls-1" x1="1953.27" y1="230.91" x2="1953.27" y2="331.98"/><line class="cls-1" x1="1781.27" y1="230.91" x2="1781.27" y2="331.98"/><line class="cls-1" x1="1667.98" y1="230.91" x2="1667.98" y2="331.98"/><line class="cls-1" x1="1544.27" y1="230.91" x2="1544.27" y2="331.98"/><line class="cls-1" x1="1490.27" y1="230.91" x2="1490.27" y2="331.98"/><line class="cls-1" x1="1433.96" y1="230.91" x2="1433.96" y2="331.98"/><line class="cls-1" x1="1077.27" y1="230.91" x2="1077.27" y2="331.98"/><line class="cls-1" x1="1023.27" y1="230.91" x2="1023.27" y2="331.98"/><line class="cls-1" x1="958.27" y1="230.91" x2="958.27" y2="331.98"/><polyline class="cls-1" points="1077.1 656.3 1252.55 656.3 1436.27 656.3"/><line class="cls-1" x1="364.19" y1="1064.98" x2="471.27" y2="1064.98"/><line class="cls-1" x1="364.19" y1="1132.98" x2="471.27" y2="1132.98"/><line class="cls-1" x1="395.19" y1="1098.98" x2="451.27" y2="1098.98"/><line class="cls-1" x1="495.27" y1="1132.98" x2="495.27" y2="1064.98"/><path class="cls-2" d="M591.14,554.64V560H565.48V525.75h25v5.33H571.84V540h16.52v5.23H571.84v9.44Z"/><path class="cls-2" d="M616.2,536.33q3,2.76,3,8.33V560h-5.76v-3.18a7.08,7.08,0,0,1-3.21,2.61,13.94,13.94,0,0,1-10.14-.09,7.94,7.94,0,0,1-3.4-2.79,7.05,7.05,0,0,1-1.2-4,6.93,6.93,0,0,1,2.62-5.65q2.61-2.13,8.24-2.13h6.74v-.39a5.35,5.35,0,0,0-1.63-4.2,7.11,7.11,0,0,0-4.87-1.47,13.84,13.84,0,0,0-4.32.69,10.63,10.63,0,0,0-3.6,1.9l-2.39-4.45a14.8,14.8,0,0,1,4.93-2.39,22.16,22.16,0,0,1,6.11-.83Q613.15,533.57,616.2,536.33Zm-5.57,18.48a5.73,5.73,0,0,0,2.51-3v-3h-6.3q-5.28,0-5.28,3.47a3.11,3.11,0,0,0,1.32,2.64,6.05,6.05,0,0,0,3.66,1A7.91,7.91,0,0,0,610.63,554.81Z"/><path class="cls-2" d="M628.93,559.48a15.75,15.75,0,0,1-4.84-2.11l2.35-4.64a15,15,0,0,0,4.23,1.88,17.22,17.22,0,0,0,4.86.71q5.47,0,5.48-2.88a1.94,1.94,0,0,0-1.4-1.91,24.26,24.26,0,0,0-4.47-1,35.93,35.93,0,0,1-5.25-1.12,8,8,0,0,1-3.52-2.22,6.21,6.21,0,0,1-1.5-4.43,7,7,0,0,1,3.11-5.94q3.1-2.22,8.38-2.22a24.06,24.06,0,0,1,5.38.61,15,15,0,0,1,4.4,1.64l-2.35,4.64a14.49,14.49,0,0,0-7.48-2,8.27,8.27,0,0,0-4.08.8,2.41,2.41,0,0,0-1.39,2.13,2.13,2.13,0,0,0,1.49,2.08,23.58,23.58,0,0,0,4.62,1.14,36.57,36.57,0,0,1,5.13,1.13,8,8,0,0,1,3.45,2.15,6,6,0,0,1,1.44,4.3,6.81,6.81,0,0,1-3.18,5.87c-2.12,1.46-5,2.2-8.65,2.2A23.54,23.54,0,0,1,628.93,559.48Z"/><path class="cls-2" d="M667.94,558.55a7.46,7.46,0,0,1-2.61,1.32,11.92,11.92,0,0,1-3.25.44,9.22,9.22,0,0,1-6.65-2.25q-2.35-2.25-2.35-6.55V539h-4.3v-4.89h4.3v-6h6.11v6h7V539h-7v12.41a4.14,4.14,0,0,0,.93,2.91,3.49,3.49,0,0,0,2.69,1,5.39,5.39,0,0,0,3.42-1.07Z"/><path class="cls-2" d="M709.25,552.05H692.14L688.77,560h-6.56l15.4-34.22h6.26L719.32,560h-6.65Zm-2.11-5-6.45-15-6.4,15Z"/><path class="cls-2" d="M724.69,559.48a15.75,15.75,0,0,1-4.84-2.11l2.35-4.64a15,15,0,0,0,4.23,1.88,17.33,17.33,0,0,0,4.86.71q5.48,0,5.48-2.88a1.94,1.94,0,0,0-1.39-1.91,24.2,24.2,0,0,0-4.48-1,35.93,35.93,0,0,1-5.25-1.12,8,8,0,0,1-3.52-2.22,6.2,6.2,0,0,1-1.49-4.43,7,7,0,0,1,3.1-5.94,14.16,14.16,0,0,1,8.38-2.22,24,24,0,0,1,5.38.61,15,15,0,0,1,4.4,1.64l-2.34,4.64a14.52,14.52,0,0,0-7.48-2,8.29,8.29,0,0,0-4.09.8,2.43,2.43,0,0,0-1.39,2.13,2.13,2.13,0,0,0,1.49,2.08,24,24,0,0,0,4.62,1.14,36.25,36.25,0,0,1,5.13,1.13,8,8,0,0,1,3.45,2.15,6,6,0,0,1,1.44,4.3,6.82,6.82,0,0,1-3.17,5.87c-2.12,1.46-5,2.2-8.66,2.2A23.54,23.54,0,0,1,724.69,559.48Z"/><path class="cls-2" d="M748.31,528.51a3.59,3.59,0,0,1,0-5.23,3.89,3.89,0,0,1,2.78-1,4,4,0,0,1,2.79,1,3.23,3.23,0,0,1,1.12,2.52,3.66,3.66,0,0,1-1.1,2.71,3.81,3.81,0,0,1-2.81,1.1A3.89,3.89,0,0,1,748.31,528.51Zm-.3,5.35h6.11V560H748Z"/><path class="cls-2" d="M780.93,536.33q3.06,2.76,3.06,8.33V560h-5.77v-3.18a7.11,7.11,0,0,1-3.2,2.61,13.94,13.94,0,0,1-10.14-.09,7.94,7.94,0,0,1-3.4-2.79,7.05,7.05,0,0,1-1.2-4,6.9,6.9,0,0,1,2.62-5.65q2.61-2.13,8.23-2.13h6.75v-.39a5.36,5.36,0,0,0-1.64-4.2,7.06,7.06,0,0,0-4.86-1.47,14,14,0,0,0-4.33.69,10.58,10.58,0,0,0-3.59,1.9l-2.4-4.45A14.86,14.86,0,0,1,766,534.4a22.11,22.11,0,0,1,6.11-.83Q777.89,533.57,780.93,536.33Zm-5.57,18.48a5.71,5.71,0,0,0,2.52-3v-3h-6.31q-5.28,0-5.28,3.47a3.11,3.11,0,0,0,1.32,2.64,6.08,6.08,0,0,0,3.67,1A7.89,7.89,0,0,0,775.36,554.81Z"/><path class="cls-2" d="M814.54,536.45q3,2.89,3,8.56v15h-6.11V545.79a7.32,7.32,0,0,0-1.61-5.16,6,6,0,0,0-4.6-1.73,7,7,0,0,0-5.32,2,8,8,0,0,0-2,5.84V560h-6.11V533.86h5.82v3.37a9.6,9.6,0,0,1,3.81-2.73,13.7,13.7,0,0,1,5.18-.93A10.92,10.92,0,0,1,814.54,536.45Z"/><path class="cls-2" d="M575.48,616.84a16.7,16.7,0,0,1-6.55-6.28,18.38,18.38,0,0,1,0-18.09,17,17,0,0,1,6.58-6.28,19.32,19.32,0,0,1,9.36-2.27,19.63,19.63,0,0,1,7.67,1.46,15.66,15.66,0,0,1,5.87,4.26l-4.11,3.86a12,12,0,0,0-9.14-4,12.75,12.75,0,0,0-6.3,1.54,11.05,11.05,0,0,0-4.35,4.28,13,13,0,0,0,0,12.41,11,11,0,0,0,4.35,4.28,12.75,12.75,0,0,0,6.3,1.54,11.88,11.88,0,0,0,9.14-4.06l4.11,3.92a15.74,15.74,0,0,1-5.89,4.25,19.67,19.67,0,0,1-7.7,1.46A19.24,19.24,0,0,1,575.48,616.84Z"/><path class="cls-2" d="M607.57,617.26a12.45,12.45,0,0,1-5-4.77,13.46,13.46,0,0,1-1.78-6.92,13.32,13.32,0,0,1,1.78-6.89,12.51,12.51,0,0,1,5-4.74,15.84,15.84,0,0,1,14.32,0,12.54,12.54,0,0,1,5,4.74,13.32,13.32,0,0,1,1.78,6.89,13.46,13.46,0,0,1-1.78,6.92,12.47,12.47,0,0,1-5,4.77,15.84,15.84,0,0,1-14.32,0Zm12.71-5.77a9.05,9.05,0,0,0,0-11.83,7.46,7.46,0,0,0-5.57-2.25,7.38,7.38,0,0,0-5.55,2.25,9.15,9.15,0,0,0,0,11.83,7.38,7.38,0,0,0,5.55,2.25A7.46,7.46,0,0,0,620.28,611.49Z"/><path class="cls-2" d="M634.51,582.35h6.11v36.28h-6.11Z"/><path class="cls-2" d="M648.63,582.35h6.11v36.28h-6.11Z"/><path class="cls-2" d="M687.2,607.53H666.72a7.08,7.08,0,0,0,2.81,4.57,9.26,9.26,0,0,0,5.65,1.69,9.5,9.5,0,0,0,7.08-2.84l3.28,3.76a10.89,10.89,0,0,1-4.45,3.18,17.61,17.61,0,0,1-13.64-.63,12.33,12.33,0,0,1-5.06-4.77,13.46,13.46,0,0,1-1.78-6.92,13.68,13.68,0,0,1,1.73-6.86,12.35,12.35,0,0,1,4.82-4.77,14.05,14.05,0,0,1,6.94-1.71,13.64,13.64,0,0,1,6.82,1.69,11.88,11.88,0,0,1,4.69,4.74,14.29,14.29,0,0,1,1.69,7.06C687.3,606.14,687.27,606.75,687.2,607.53Zm-18.06-8.68a7.31,7.31,0,0,0-2.47,4.62h14.81a7.13,7.13,0,0,0-7.38-6.35A7.38,7.38,0,0,0,669.14,598.85Z"/><path class="cls-2" d="M697.86,617.26a12.59,12.59,0,0,1-5-4.77,13.38,13.38,0,0,1-1.81-6.92,13.25,13.25,0,0,1,1.81-6.89,12.71,12.71,0,0,1,5-4.74,15.29,15.29,0,0,1,7.31-1.71,14.1,14.1,0,0,1,6.77,1.56,10.19,10.19,0,0,1,4.38,4.5l-4.7,2.74a7.46,7.46,0,0,0-2.81-2.72,8.22,8.22,0,0,0-9.36,1.32,9,9,0,0,0,0,11.88,7.68,7.68,0,0,0,5.69,2.23,7.59,7.59,0,0,0,3.69-.91,7.35,7.35,0,0,0,2.81-2.71l4.7,2.74a10.61,10.61,0,0,1-4.43,4.52,13.79,13.79,0,0,1-6.72,1.59A15.31,15.31,0,0,1,697.86,617.26Z"/><path class="cls-2" d="M737.6,617.21a7.43,7.43,0,0,1-2.62,1.32,11.87,11.87,0,0,1-3.25.44,9.23,9.23,0,0,1-6.65-2.25q-2.34-2.25-2.34-6.55V597.61h-4.3v-4.89h4.3v-6h6.11v6h7v4.89h-7V610a4.14,4.14,0,0,0,.93,2.91,3.47,3.47,0,0,0,2.69,1,5.41,5.41,0,0,0,3.42-1.07Z"/><path class="cls-2" d="M742.93,587.17a3.59,3.59,0,0,1,0-5.23,3.93,3.93,0,0,1,2.78-1.05,4,4,0,0,1,2.79,1,3.23,3.23,0,0,1,1.12,2.52,3.66,3.66,0,0,1-1.1,2.71,3.81,3.81,0,0,1-2.81,1.1A3.93,3.93,0,0,1,742.93,587.17Zm-.3,5.35h6.11v26.11h-6.11Z"/><path class="cls-2" d="M761.36,617.26a12.47,12.47,0,0,1-5-4.77,13.46,13.46,0,0,1-1.78-6.92,13.32,13.32,0,0,1,1.78-6.89,12.54,12.54,0,0,1,5-4.74,14.77,14.77,0,0,1,7.13-1.71,15,15,0,0,1,7.19,1.71,12.51,12.51,0,0,1,5,4.74,13.32,13.32,0,0,1,1.78,6.89,13.46,13.46,0,0,1-1.78,6.92,12.45,12.45,0,0,1-5,4.77,15,15,0,0,1-7.19,1.71A14.77,14.77,0,0,1,761.36,617.26Zm12.71-5.77a9.05,9.05,0,0,0,0-11.83,7.48,7.48,0,0,0-5.58-2.25,7.38,7.38,0,0,0-5.55,2.25,9.15,9.15,0,0,0,0,11.83,7.38,7.38,0,0,0,5.55,2.25A7.48,7.48,0,0,0,774.07,611.49Z"/><path class="cls-2" d="M811,595.11q3,2.89,3,8.56v15h-6.11V604.45a7.37,7.37,0,0,0-1.61-5.16,6,6,0,0,0-4.6-1.73,7,7,0,0,0-5.32,2,8,8,0,0,0-2,5.84v13.2h-6.11V592.52h5.82v3.37a9.6,9.6,0,0,1,3.81-2.73,13.7,13.7,0,0,1,5.18-.93A10.92,10.92,0,0,1,811,595.11Z"/><path class="cls-2" d="M653.28,1142l0-22.68L642,1138.1h-2.83l-11.24-18.47V1142h-6.07V1107.8h5.23l13.59,22.68L654,1107.8h5.23l0,34.21Z"/><path class="cls-2" d="M693.21,1115.91V1142H687.4v-3.32a9.7,9.7,0,0,1-3.67,2.71,11.74,11.74,0,0,1-4.74,1c-3.49,0-6.23-1-8.24-2.91s-3-4.82-3-8.63v-14.91h6.12V1130c0,2.34.52,4.1,1.58,5.25A5.83,5.83,0,0,0,680,1137a6.85,6.85,0,0,0,5.2-2,8.13,8.13,0,0,0,1.93-5.84v-13.2Z"/><path class="cls-2" d="M703.09,1141.52a15.41,15.41,0,0,1-4.84-2.1l2.34-4.64a15.25,15.25,0,0,0,4.23,1.88,17.71,17.71,0,0,0,4.87.71q5.47,0,5.47-2.88a1.92,1.92,0,0,0-1.39-1.91,24.26,24.26,0,0,0-4.47-1,35.81,35.81,0,0,1-5.26-1.12,8.12,8.12,0,0,1-3.52-2.23,6.2,6.2,0,0,1-1.49-4.42,6.94,6.94,0,0,1,3.1-5.94q3.11-2.22,8.39-2.22a24,24,0,0,1,5.37.61,14.9,14.9,0,0,1,4.4,1.64l-2.34,4.64a14.52,14.52,0,0,0-7.48-2,8.26,8.26,0,0,0-4.08.81,2.42,2.42,0,0,0-1.4,2.13,2.12,2.12,0,0,0,1.5,2.07,22.8,22.8,0,0,0,4.61,1.15,35.37,35.37,0,0,1,5.14,1.13,8,8,0,0,1,3.44,2.15,6,6,0,0,1,1.45,4.3,6.82,6.82,0,0,1-3.18,5.87c-2.12,1.46-5,2.2-8.65,2.2A23.14,23.14,0,0,1,703.09,1141.52Z"/><path class="cls-2" d="M726.7,1110.56a3.59,3.59,0,0,1,0-5.23,3.93,3.93,0,0,1,2.78-1,4,4,0,0,1,2.79,1,3.24,3.24,0,0,1,1.13,2.52,3.71,3.71,0,0,1-1.1,2.71,3.85,3.85,0,0,1-2.82,1.1A3.93,3.93,0,0,1,726.7,1110.56Zm-.29,5.35h6.11V1142h-6.11Z"/><path class="cls-2" d="M745.22,1140.65a12.57,12.57,0,0,1-5-4.77,13.28,13.28,0,0,1-1.81-6.92,13.15,13.15,0,0,1,1.81-6.89,12.64,12.64,0,0,1,5-4.74,15.26,15.26,0,0,1,7.31-1.71,14.12,14.12,0,0,1,6.77,1.56,10.06,10.06,0,0,1,4.37,4.5l-4.69,2.74a7.53,7.53,0,0,0-2.81-2.72,8.22,8.22,0,0,0-9.36,1.32,9,9,0,0,0,0,11.88,8.22,8.22,0,0,0,9.39,1.32,7.5,7.5,0,0,0,2.81-2.71l4.69,2.74a10.59,10.59,0,0,1-4.42,4.52,13.79,13.79,0,0,1-6.72,1.59A15.32,15.32,0,0,1,745.22,1140.65Z"/><path class="cls-2" d="M575.48,1198.89a16.77,16.77,0,0,1-6.55-6.28,18.38,18.38,0,0,1,0-18.09,16.92,16.92,0,0,1,6.58-6.28,19.18,19.18,0,0,1,9.36-2.27,19.63,19.63,0,0,1,7.67,1.46,15.66,15.66,0,0,1,5.87,4.26l-4.11,3.86a12,12,0,0,0-9.14-4,12.75,12.75,0,0,0-6.3,1.54,11.05,11.05,0,0,0-4.35,4.28,13,13,0,0,0,0,12.41,11.05,11.05,0,0,0,4.35,4.28,12.75,12.75,0,0,0,6.3,1.54,11.88,11.88,0,0,0,9.14-4.06l4.11,3.91a15.65,15.65,0,0,1-5.89,4.26,19.86,19.86,0,0,1-7.7,1.46A19.35,19.35,0,0,1,575.48,1198.89Z"/><path class="cls-2" d="M607.57,1199.31a12.51,12.51,0,0,1-5-4.77,13.46,13.46,0,0,1-1.78-6.92,13.32,13.32,0,0,1,1.78-6.89,12.51,12.51,0,0,1,5-4.74,15.84,15.84,0,0,1,14.32,0,12.54,12.54,0,0,1,5,4.74,13.32,13.32,0,0,1,1.78,6.89,13.46,13.46,0,0,1-1.78,6.92,12.54,12.54,0,0,1-5,4.77,15.84,15.84,0,0,1-14.32,0Zm12.71-5.77a9.05,9.05,0,0,0,0-11.83,7.46,7.46,0,0,0-5.57-2.25,7.38,7.38,0,0,0-5.55,2.25,9.15,9.15,0,0,0,0,11.83,7.38,7.38,0,0,0,5.55,2.25A7.46,7.46,0,0,0,620.28,1193.54Z"/><path class="cls-2" d="M634.51,1164.4h6.11v36.27h-6.11Z"/><path class="cls-2" d="M648.63,1164.4h6.11v36.27h-6.11Z"/><path class="cls-2" d="M687.2,1189.58H666.72a7.11,7.11,0,0,0,2.81,4.57,9.26,9.26,0,0,0,5.65,1.68,9.49,9.49,0,0,0,7.08-2.83l3.28,3.76a11.08,11.08,0,0,1-4.45,3.18,17.61,17.61,0,0,1-13.64-.63,12.4,12.4,0,0,1-5.06-4.77,13.46,13.46,0,0,1-1.78-6.92,13.75,13.75,0,0,1,1.73-6.87,12.39,12.39,0,0,1,4.82-4.76,14.05,14.05,0,0,1,6.94-1.71,13.73,13.73,0,0,1,6.82,1.68,12,12,0,0,1,4.69,4.75,14.29,14.29,0,0,1,1.69,7.06C687.3,1188.19,687.27,1188.79,687.2,1189.58Zm-18.06-8.68a7.31,7.31,0,0,0-2.47,4.62h14.81a7.11,7.11,0,0,0-7.38-6.35A7.33,7.33,0,0,0,669.14,1180.9Z"/><path class="cls-2" d="M697.86,1199.31a12.66,12.66,0,0,1-5-4.77,13.38,13.38,0,0,1-1.81-6.92,13.25,13.25,0,0,1,1.81-6.89,12.71,12.71,0,0,1,5-4.74,15.29,15.29,0,0,1,7.31-1.71,14.1,14.1,0,0,1,6.77,1.56,10.14,10.14,0,0,1,4.38,4.5l-4.7,2.74a7.46,7.46,0,0,0-2.81-2.72,8.22,8.22,0,0,0-9.36,1.32,9,9,0,0,0,0,11.88,8.21,8.21,0,0,0,9.38,1.32,7.43,7.43,0,0,0,2.81-2.71l4.7,2.74a10.61,10.61,0,0,1-4.43,4.52,13.79,13.79,0,0,1-6.72,1.59A15.31,15.31,0,0,1,697.86,1199.31Z"/><path class="cls-2" d="M737.6,1199.26a7.43,7.43,0,0,1-2.62,1.32,11.87,11.87,0,0,1-3.25.44,9.23,9.23,0,0,1-6.65-2.25c-1.56-1.5-2.34-3.69-2.34-6.55v-12.57h-4.3v-4.88h4.3v-6h6.11v6h7v4.88h-7v12.42a4.14,4.14,0,0,0,.93,2.91,3.47,3.47,0,0,0,2.69,1,5.43,5.43,0,0,0,3.42-1.07Z"/><path class="cls-2" d="M742.93,1169.22a3.59,3.59,0,0,1,0-5.23,3.93,3.93,0,0,1,2.78-1,4,4,0,0,1,2.79,1,3.23,3.23,0,0,1,1.12,2.52,3.66,3.66,0,0,1-1.1,2.71,3.81,3.81,0,0,1-2.81,1.1A3.93,3.93,0,0,1,742.93,1169.22Zm-.3,5.35h6.11v26.1h-6.11Z"/><path class="cls-2" d="M761.36,1199.31a12.54,12.54,0,0,1-5-4.77,13.46,13.46,0,0,1-1.78-6.92,13.32,13.32,0,0,1,1.78-6.89,12.54,12.54,0,0,1,5-4.74,14.77,14.77,0,0,1,7.13-1.71,15,15,0,0,1,7.19,1.71,12.51,12.51,0,0,1,5,4.74,13.32,13.32,0,0,1,1.78,6.89,13.46,13.46,0,0,1-1.78,6.92,12.51,12.51,0,0,1-5,4.77,15,15,0,0,1-7.19,1.71A14.77,14.77,0,0,1,761.36,1199.31Zm12.71-5.77a9.08,9.08,0,0,0,0-11.83,7.48,7.48,0,0,0-5.58-2.25,7.38,7.38,0,0,0-5.55,2.25,9.15,9.15,0,0,0,0,11.83,7.38,7.38,0,0,0,5.55,2.25A7.48,7.48,0,0,0,774.07,1193.54Z"/><path class="cls-2" d="M811,1177.16c2,1.92,3,4.78,3,8.56v15h-6.11V1186.5a7.37,7.37,0,0,0-1.61-5.16,6,6,0,0,0-4.6-1.73,7,7,0,0,0-5.32,2,8.08,8.08,0,0,0-2,5.85v13.19h-6.11v-26.1h5.82v3.37a9.5,9.5,0,0,1,3.81-2.73,13.7,13.7,0,0,1,5.18-.93A10.92,10.92,0,0,1,811,1177.16Z"/><path class="cls-2" d="M583.3,1684.53a11.24,11.24,0,0,1,5.06,4.21,12.85,12.85,0,0,1,0,13,11.14,11.14,0,0,1-5.06,4.22,18.9,18.9,0,0,1-7.75,1.47h-7.72v9.88h-6.36v-34.22h14.08A19.07,19.07,0,0,1,583.3,1684.53Zm-1.74,15.74a6.95,6.95,0,0,0,0-10.07q-2.14-1.76-6.3-1.76h-7.43V1702h7.43C578,1702,580.13,1701.45,581.56,1700.27Z"/><path class="cls-2" d="M599.92,1716.65a15.91,15.91,0,0,1-5.84-3l2.2-4.94a17.23,17.23,0,0,0,5.16,2.71,18.72,18.72,0,0,0,6.13,1,10.59,10.59,0,0,0,5.7-1.22,3.7,3.7,0,0,0,1.88-3.22,3.11,3.11,0,0,0-1-2.42,7.18,7.18,0,0,0-2.67-1.49c-1.07-.36-2.54-.77-4.4-1.23a52.18,52.18,0,0,1-6.33-1.85,10.39,10.39,0,0,1-4.15-2.91,7.84,7.84,0,0,1-1.74-5.36,9.16,9.16,0,0,1,1.54-5.15A10.42,10.42,0,0,1,601,1684a18.68,18.68,0,0,1,7.6-1.37,24.65,24.65,0,0,1,6.16.78,17,17,0,0,1,5.23,2.25l-2,4.94a19.93,19.93,0,0,0-4.69-2,17.79,17.79,0,0,0-4.74-.68,9.89,9.89,0,0,0-5.6,1.27,3.92,3.92,0,0,0-1.83,3.37,3.06,3.06,0,0,0,1,2.4,7.62,7.62,0,0,0,2.66,1.46c1.08.36,2.55.77,4.4,1.22a46.19,46.19,0,0,1,6.26,1.84,10.62,10.62,0,0,1,4.18,2.91,7.64,7.64,0,0,1,1.73,5.28,9,9,0,0,1-1.53,5.13,10.6,10.6,0,0,1-4.67,3.67,19.07,19.07,0,0,1-7.63,1.36A26.08,26.08,0,0,1,599.92,1716.65Z"/><path class="cls-2" d="M660.56,1700.42a9.24,9.24,0,0,1,2.49,6.6,10.1,10.1,0,0,1-1.51,5.43,10.43,10.43,0,0,1-4.57,3.88,17.41,17.41,0,0,1-7.46,1.44,23.76,23.76,0,0,1-7.06-1,17.88,17.88,0,0,1-5.79-2.91l2.73-4.93a14.1,14.1,0,0,0,4.52,2.47,17.09,17.09,0,0,0,5.5.9,8.93,8.93,0,0,0,5.31-1.39,4.71,4.71,0,0,0,.1-7.53,9.47,9.47,0,0,0-5.6-1.35h-3.13v-4.35l7.77-9.23H638.32v-5.33h23.32v4.25l-8.31,9.87A11.51,11.51,0,0,1,660.56,1700.42Z"/><path class="cls-2" d="M688.13,1699.13a9.32,9.32,0,0,1,3.47,7.65,10.19,10.19,0,0,1-6.06,9.53,17.08,17.08,0,0,1-7.48,1.46,24.05,24.05,0,0,1-7.09-1,17.48,17.48,0,0,1-5.77-2.91l2.69-4.93a14.7,14.7,0,0,0,4.57,2.47,17.09,17.09,0,0,0,5.5.9,8.93,8.93,0,0,0,5.31-1.39,4.5,4.5,0,0,0,1.93-3.84,4.44,4.44,0,0,0-2.08-4q-2.08-1.35-7.11-1.35h-8.26l1.75-18.62h20.1v5.33H674.88l-.73,7.91h3.27Q684.67,1696.31,688.13,1699.13Z"/><path class="cls-2" d="M707.1,1683.07v34.22h-6.36V1688.4h-7.23v-5.33Z"/><path class="cls-2" d="M739.7,1683.07v4.25l-13.29,30h-6.8l12.86-28.85H719v5.82h-5.91v-11.19Z"/><path class="cls-2" d="M755,1701.69h24.44v4H755Z"/><path class="cls-2" d="M824.07,1711.91v5.38H794.89V1713L815,1688.44h-19.8v-5.37h28.21v4.25l-20.14,24.59Z"/><path class="cls-2" d="M1219.11,1217h4.51v10.22a14.13,14.13,0,0,1-4.62,2.42,17.51,17.51,0,0,1-5.43.85,14.59,14.59,0,0,1-7.07-1.71,12.48,12.48,0,0,1-5-4.71,13.67,13.67,0,0,1,0-13.56,12.46,12.46,0,0,1,5-4.71,14.77,14.77,0,0,1,7.13-1.71,15.72,15.72,0,0,1,5.86,1.06,11.55,11.55,0,0,1,4.44,3.12l-3,2.93a9.64,9.64,0,0,0-7.07-2.93,10,10,0,0,0-4.83,1.14,8.21,8.21,0,0,0-3.29,3.19,9.12,9.12,0,0,0-1.2,4.69,9,9,0,0,0,1.2,4.62,8.49,8.49,0,0,0,3.29,3.22,9.61,9.61,0,0,0,4.79,1.18,10.35,10.35,0,0,0,5.28-1.32Z"/><path class="cls-2" d="M1240.78,1210.29v4.37a5.39,5.39,0,0,0-1.07-.11,5.58,5.58,0,0,0-4.18,1.55,6.24,6.24,0,0,0-1.5,4.5v9.49h-4.58v-19.58h4.36v2.86Q1235.79,1210.3,1240.78,1210.29Z"/><path class="cls-2" d="M1247.93,1229.06a9.36,9.36,0,0,1-3.73-3.57,10.75,10.75,0,0,1,0-10.36,9.45,9.45,0,0,1,3.73-3.55,11,11,0,0,1,5.35-1.29,11.16,11.16,0,0,1,5.39,1.29,9.35,9.35,0,0,1,3.72,3.55,10.68,10.68,0,0,1,0,10.36,9.27,9.27,0,0,1-3.72,3.57,11.16,11.16,0,0,1-5.39,1.29A11,11,0,0,1,1247.93,1229.06Zm9.53-4.32a6.79,6.79,0,0,0,0-8.87,5.59,5.59,0,0,0-4.18-1.69,5.5,5.5,0,0,0-4.16,1.69,6.85,6.85,0,0,0,0,8.87,5.53,5.53,0,0,0,4.16,1.68A5.62,5.62,0,0,0,1257.46,1224.74Z"/><path class="cls-2" d="M1287.08,1210.51v19.58h-4.36v-2.49a7.26,7.26,0,0,1-2.75,2,8.81,8.81,0,0,1-3.56.72,8.55,8.55,0,0,1-6.18-2.18q-2.25-2.19-2.25-6.47v-11.19h4.58v10.56a5.68,5.68,0,0,0,1.19,3.94,4.37,4.37,0,0,0,3.39,1.3,5.13,5.13,0,0,0,3.91-1.52,6.12,6.12,0,0,0,1.45-4.38v-9.9Z"/><path class="cls-2" d="M1309.06,1211.54a9,9,0,0,1,3.54,3.52,11.41,11.41,0,0,1,0,10.5,9,9,0,0,1-3.54,3.54,10.4,10.4,0,0,1-5.11,1.25,7.9,7.9,0,0,1-6.27-2.64v9.49h-4.59v-26.69h4.37v2.57a7,7,0,0,1,2.8-2.09,9.55,9.55,0,0,1,3.69-.7A10.4,10.4,0,0,1,1309.06,1211.54Zm-1.47,13.2a6.85,6.85,0,0,0,0-8.87,5.5,5.5,0,0,0-4.16-1.69,5.9,5.9,0,0,0-3,.75,5.48,5.48,0,0,0-2.09,2.15,6.55,6.55,0,0,0-.77,3.22,6.62,6.62,0,0,0,.77,3.23,5.45,5.45,0,0,0,2.09,2.14,5.9,5.9,0,0,0,3,.75A5.53,5.53,0,0,0,1307.59,1224.74Z"/><path class="cls-2" d="M1211.13,1274.09l-5.24-7.52c-.22,0-.55,0-1,0h-5.79v7.48h-4.77v-25.67h10.56a14.24,14.24,0,0,1,5.81,1.1,8.56,8.56,0,0,1,3.8,3.15,8.84,8.84,0,0,1,1.32,4.88,8.73,8.73,0,0,1-1.41,5,8.4,8.4,0,0,1-4.06,3.11l5.91,8.44Zm-1.72-20.32a7.37,7.37,0,0,0-4.73-1.31h-5.57v10.22h5.57a7.25,7.25,0,0,0,4.73-1.33,4.66,4.66,0,0,0,1.61-3.8A4.59,4.59,0,0,0,1209.41,1253.77Z"/><path class="cls-2" d="M1224.15,1273.06a9.36,9.36,0,0,1-3.72-3.58,10.66,10.66,0,0,1,0-10.35,9.38,9.38,0,0,1,3.72-3.56,11.9,11.9,0,0,1,10.74,0,9.38,9.38,0,0,1,3.72,3.56,10.66,10.66,0,0,1,0,10.35,9.36,9.36,0,0,1-3.72,3.58,11.9,11.9,0,0,1-10.74,0Zm9.53-4.33a6.79,6.79,0,0,0,0-8.87,6,6,0,0,0-8.34,0,6.85,6.85,0,0,0,0,8.87,6,6,0,0,0,8.34,0Z"/><path class="cls-2" d="M1247.8,1273.06a9.36,9.36,0,0,1-3.72-3.58,10.66,10.66,0,0,1,0-10.35,9.38,9.38,0,0,1,3.72-3.56,11.13,11.13,0,0,1,5.35-1.28,11.26,11.26,0,0,1,5.39,1.28,9.38,9.38,0,0,1,3.72,3.56,10.66,10.66,0,0,1,0,10.35,9.36,9.36,0,0,1-3.72,3.58,11.15,11.15,0,0,1-5.39,1.28A11,11,0,0,1,1247.8,1273.06Zm9.53-4.33a6.79,6.79,0,0,0,0-8.87,5.61,5.61,0,0,0-4.18-1.69,5.55,5.55,0,0,0-4.16,1.69,6.85,6.85,0,0,0,0,8.87,5.52,5.52,0,0,0,4.16,1.69A5.58,5.58,0,0,0,1257.33,1268.73Z"/><path class="cls-2" d="M1298.57,1256.43q2.17,2.14,2.17,6.44v11.22h-4.59v-10.64a5.74,5.74,0,0,0-1.13-3.86,4.11,4.11,0,0,0-3.27-1.31,4.76,4.76,0,0,0-3.7,1.53,6.18,6.18,0,0,0-1.39,4.34v9.94h-4.58v-10.64a5.69,5.69,0,0,0-1.14-3.86,4.1,4.1,0,0,0-3.26-1.31,4.82,4.82,0,0,0-3.73,1.51,6.26,6.26,0,0,0-1.37,4.36v9.94H1268v-19.58h4.36V1257a7.17,7.17,0,0,1,2.75-2,9.41,9.41,0,0,1,3.67-.69,8.87,8.87,0,0,1,3.9.82,6.29,6.29,0,0,1,2.69,2.44,8.13,8.13,0,0,1,3.12-2.4,10.2,10.2,0,0,1,4.22-.86A7.94,7.94,0,0,1,1298.57,1256.43Z"/><path class="cls-2" d="M1308,1273.72a11.62,11.62,0,0,1-3.63-1.58l1.76-3.48a11,11,0,0,0,3.17,1.41,13,13,0,0,0,3.65.53q4.1,0,4.1-2.16a1.45,1.45,0,0,0-1-1.43,17.74,17.74,0,0,0-3.36-.77,28,28,0,0,1-3.94-.84,6.17,6.17,0,0,1-2.64-1.67,4.7,4.7,0,0,1-1.12-3.32,5.21,5.21,0,0,1,2.33-4.45,10.54,10.54,0,0,1,6.29-1.67,17.86,17.86,0,0,1,4,.46,11.13,11.13,0,0,1,3.3,1.22l-1.76,3.49a10.83,10.83,0,0,0-5.61-1.47,6.15,6.15,0,0,0-3.06.61,1.78,1.78,0,0,0-1,1.59,1.6,1.6,0,0,0,1.11,1.56,18.35,18.35,0,0,0,3.47.86,28.81,28.81,0,0,1,3.85.84,6,6,0,0,1,2.58,1.62,4.48,4.48,0,0,1,1.08,3.22,5.09,5.09,0,0,1-2.38,4.4,11.24,11.24,0,0,1-6.49,1.65A17.67,17.67,0,0,1,1308,1273.72Z"/><path class="cls-2" d="M1124.28,295.61a11.83,11.83,0,0,1-4.38-2.23l1.65-3.71a12.94,12.94,0,0,0,3.86,2,14.26,14.26,0,0,0,4.6.79,8,8,0,0,0,4.28-.92,2.78,2.78,0,0,0,1.41-2.42,2.35,2.35,0,0,0-.79-1.81,5.52,5.52,0,0,0-2-1.12c-.81-.27-1.91-.58-3.3-.92a38.87,38.87,0,0,1-4.75-1.39,7.86,7.86,0,0,1-3.11-2.18,5.87,5.87,0,0,1-1.3-4,6.89,6.89,0,0,1,1.15-3.87,7.78,7.78,0,0,1,3.48-2.76,14.08,14.08,0,0,1,5.71-1,18.39,18.39,0,0,1,4.61.59,12.81,12.81,0,0,1,3.93,1.68l-1.51,3.71a15,15,0,0,0-3.52-1.51,13.18,13.18,0,0,0-3.55-.51,7.5,7.5,0,0,0-4.2,1,2.93,2.93,0,0,0-1.37,2.53,2.3,2.3,0,0,0,.78,1.8,5.9,5.9,0,0,0,2,1.1c.81.27,1.91.57,3.3.92a34,34,0,0,1,4.69,1.37,8,8,0,0,1,3.14,2.18,5.75,5.75,0,0,1,1.3,4,6.76,6.76,0,0,1-1.15,3.85,7.81,7.81,0,0,1-3.51,2.75,14.3,14.3,0,0,1-5.72,1A19.3,19.3,0,0,1,1124.28,295.61Z"/><path class="cls-2" d="M1156.45,295a5.41,5.41,0,0,1-2,1,8.88,8.88,0,0,1-2.44.33,6.92,6.92,0,0,1-5-1.69,6.49,6.49,0,0,1-1.76-4.91v-9.42h-3.22v-3.67h3.22v-4.47h4.59v4.47h5.24v3.67h-5.24v9.31a3.12,3.12,0,0,0,.69,2.18,2.63,2.63,0,0,0,2,.75,4,4,0,0,0,2.56-.81Z"/><path class="cls-2" d="M1179.18,276.51v19.58h-4.36V293.6a7.26,7.26,0,0,1-2.75,2,8.81,8.81,0,0,1-3.56.72,8.54,8.54,0,0,1-6.18-2.18q-2.25-2.19-2.25-6.48V276.51h4.58v10.56a5.68,5.68,0,0,0,1.19,3.94,4.37,4.37,0,0,0,3.39,1.3,5.13,5.13,0,0,0,3.91-1.52,6.12,6.12,0,0,0,1.45-4.38v-9.9Z"/><path class="cls-2" d="M1204.37,268.89v27.2H1200v-2.53a7.09,7.09,0,0,1-2.81,2.09,9.54,9.54,0,0,1-3.68.7,10.34,10.34,0,0,1-5.08-1.25,9,9,0,0,1-3.54-3.54,11.41,11.41,0,0,1,0-10.5,9,9,0,0,1,3.54-3.52,10.34,10.34,0,0,1,5.08-1.25,9.27,9.27,0,0,1,3.55.66,7.06,7.06,0,0,1,2.75,2v-10ZM1197,291.67a5.45,5.45,0,0,0,2.09-2.14,6.62,6.62,0,0,0,.77-3.23,6.55,6.55,0,0,0-.77-3.22,5.48,5.48,0,0,0-2.09-2.15,6.26,6.26,0,0,0-5.94,0,5.41,5.41,0,0,0-2.09,2.15,6.55,6.55,0,0,0-.77,3.22,6.62,6.62,0,0,0,.77,3.23,5.38,5.38,0,0,0,2.09,2.14,6.26,6.26,0,0,0,5.94,0Z"/><path class="cls-2" d="M1228.71,276.51l-9.17,21.16a9.86,9.86,0,0,1-3.11,4.49,7.44,7.44,0,0,1-4.44,1.3,9,9,0,0,1-2.89-.48,6.14,6.14,0,0,1-2.35-1.32l1.83-3.37a5.1,5.1,0,0,0,3.38,1.36,3.08,3.08,0,0,0,2-.63,5.4,5.4,0,0,0,1.45-2.09l.33-.77-8.54-19.65H1212l6.16,14.48,6.19-14.48Z"/><path class="cls-2" d="M1242.13,270.43h4.76v21.63h13.42v4h-18.18Z"/><path class="cls-2" d="M1266.91,295.06a9.27,9.27,0,0,1-3.72-3.57,10.68,10.68,0,0,1,0-10.36,9.35,9.35,0,0,1,3.72-3.55,11.82,11.82,0,0,1,10.74,0,9.45,9.45,0,0,1,3.73,3.55,10.75,10.75,0,0,1,0,10.36,9.36,9.36,0,0,1-3.73,3.57,11.82,11.82,0,0,1-10.74,0Zm9.53-4.32a6.79,6.79,0,0,0,0-8.87,6,6,0,0,0-8.34,0,6.85,6.85,0,0,0,0,8.87,6,6,0,0,0,8.34,0Z"/><path class="cls-2" d="M1306.07,276.51v19.58h-4.36V293.6a7.34,7.34,0,0,1-2.75,2,8.81,8.81,0,0,1-3.56.72,8.52,8.52,0,0,1-6.18-2.18Q1287,292,1287,287.69V276.51h4.58v10.56a5.68,5.68,0,0,0,1.19,3.94,4.37,4.37,0,0,0,3.39,1.3,5.13,5.13,0,0,0,3.91-1.52,6.12,6.12,0,0,0,1.44-4.38v-9.9Z"/><path class="cls-2" d="M1329.13,278.46q2.23,2.16,2.24,6.41v11.22h-4.59V285.46a5.49,5.49,0,0,0-1.21-3.87,4.44,4.44,0,0,0-3.44-1.3,5.31,5.31,0,0,0-4,1.52,6.06,6.06,0,0,0-1.47,4.38v9.9h-4.58V276.51h4.36V279a7.17,7.17,0,0,1,2.86-2.05,10.21,10.21,0,0,1,3.89-.7A8.15,8.15,0,0,1,1329.13,278.46Z"/><path class="cls-2" d="M1356.81,276.51v16.61q0,10.33-10.56,10.34a19.42,19.42,0,0,1-5.35-.72,11.15,11.15,0,0,1-4.18-2.07l2-3.44a9.92,9.92,0,0,0,3.24,1.7,12.7,12.7,0,0,0,4,.64,6.6,6.6,0,0,0,4.73-1.46,6,6,0,0,0,1.51-4.48v-1a7.69,7.69,0,0,1-2.86,1.94,10.11,10.11,0,0,1-3.71.66,10.68,10.68,0,0,1-5-1.19,8.84,8.84,0,0,1-3.55-3.36,10,10,0,0,1,0-9.88,8.78,8.78,0,0,1,3.55-3.31,10.67,10.67,0,0,1,5-1.18,10.22,10.22,0,0,1,3.87.7,7.12,7.12,0,0,1,2.92,2.13v-2.61Zm-6.18,13.26a5.31,5.31,0,0,0,1.67-4.06,5.2,5.2,0,0,0-1.67-4,6.75,6.75,0,0,0-8.58,0,5.2,5.2,0,0,0-1.67,4,5.31,5.31,0,0,0,1.67,4.06,6.71,6.71,0,0,0,8.58,0Z"/><path class="cls-2" d="M1381.15,287.77h-15.36a5.34,5.34,0,0,0,2.11,3.43,6.94,6.94,0,0,0,4.23,1.26,7.14,7.14,0,0,0,5.32-2.13l2.46,2.83a8.34,8.34,0,0,1-3.34,2.38,13.16,13.16,0,0,1-10.23-.48,9.14,9.14,0,0,1-3.79-3.57,10,10,0,0,1-1.34-5.19,10.24,10.24,0,0,1,1.3-5.15,9.18,9.18,0,0,1,3.61-3.57,10.51,10.51,0,0,1,5.21-1.29,10.2,10.2,0,0,1,5.11,1.27,9,9,0,0,1,3.52,3.55,10.85,10.85,0,0,1,1.27,5.3C1381.23,286.73,1381.2,287.18,1381.15,287.77Zm-13.54-6.51a5.46,5.46,0,0,0-1.86,3.47h11.11a5.38,5.38,0,0,0-1.79-3.45,6,6,0,0,0-7.46,0Z"/><path class="cls-2" d="M1228.64,336.05v4h-18.92V336.9l10.19-9.68a11.1,11.1,0,0,0,2.33-2.88,5.52,5.52,0,0,0,.6-2.44,3.29,3.29,0,0,0-1.21-2.75,5.67,5.67,0,0,0-3.55-.95,7.2,7.2,0,0,0-6,2.67l-3.33-2.56a9.86,9.86,0,0,1,4-3.14,14.14,14.14,0,0,1,5.7-1.11,10.41,10.41,0,0,1,6.67,2,6.5,6.5,0,0,1,2.5,5.39,9,9,0,0,1-.88,3.93,15.39,15.39,0,0,1-3.38,4.18l-6.85,6.52Z"/><path class="cls-2" d="M1236.48,338.89a10.49,10.49,0,0,1-3.81-4.54,18.8,18.8,0,0,1,0-14.19,10.58,10.58,0,0,1,3.81-4.55,10.57,10.57,0,0,1,11,0,10.55,10.55,0,0,1,3.83,4.55,18.8,18.8,0,0,1,0,14.19,10.46,10.46,0,0,1-3.83,4.54,10.51,10.51,0,0,1-11,0Zm9.85-4.85q1.59-2.28,1.59-6.79t-1.59-6.78a5.26,5.26,0,0,0-8.66,0q-1.59,2.28-1.59,6.78t1.59,6.79a5.26,5.26,0,0,0,8.66,0Z"/><path class="cls-2" d="M1261.16,338.89a10.44,10.44,0,0,1-3.82-4.54,18.8,18.8,0,0,1,0-14.19,10.53,10.53,0,0,1,3.82-4.55,10.55,10.55,0,0,1,11,0,10.48,10.48,0,0,1,3.83,4.55,18.68,18.68,0,0,1,0,14.19,10.39,10.39,0,0,1-3.83,4.54,10.49,10.49,0,0,1-11,0ZM1271,334q1.59-2.28,1.59-6.79t-1.59-6.78a5.26,5.26,0,0,0-8.65,0q-1.61,2.28-1.6,6.78t1.6,6.79a5.26,5.26,0,0,0,8.65,0Z"/><path class="cls-2" d="M1289.31,314.42v25.67h-4.76V318.42h-5.43v-4Z"/><path class="cls-2" d="M1783.68,619.4h4.51v10.23a14.32,14.32,0,0,1-4.62,2.42,17.81,17.81,0,0,1-5.43.85,14.59,14.59,0,0,1-7.07-1.71,12.75,12.75,0,0,1-5-4.71,13.69,13.69,0,0,1,0-13.57,12.67,12.67,0,0,1,5-4.71,14.87,14.87,0,0,1,7.13-1.7,15.52,15.52,0,0,1,5.86,1.06,11.55,11.55,0,0,1,4.44,3.12l-3,2.93a9.64,9.64,0,0,0-7.07-2.93,10.06,10.06,0,0,0-4.82,1.13,8.3,8.3,0,0,0-3.3,3.19,9.16,9.16,0,0,0-1.2,4.7,9,9,0,0,0,1.2,4.62,8.45,8.45,0,0,0,3.3,3.22,9.57,9.57,0,0,0,4.78,1.18,10.35,10.35,0,0,0,5.28-1.32Z"/><path class="cls-2" d="M1797.46,631.5a9.4,9.4,0,0,1-3.72-3.57,10.75,10.75,0,0,1,0-10.36,9.58,9.58,0,0,1,3.72-3.56,11.93,11.93,0,0,1,10.75,0,9.51,9.51,0,0,1,3.72,3.56,10.68,10.68,0,0,1,0,10.36,9.33,9.33,0,0,1-3.72,3.57,11.84,11.84,0,0,1-10.75,0Zm9.54-4.32a6.8,6.8,0,0,0,0-8.88,5.62,5.62,0,0,0-4.18-1.68,5.53,5.53,0,0,0-4.16,1.68,6.83,6.83,0,0,0,0,8.88,5.53,5.53,0,0,0,4.16,1.68A5.62,5.62,0,0,0,1807,627.18Z"/><path class="cls-2" d="M1835.45,613l-8.4,19.58h-4.73L1813.93,613h4.76l6.09,14.52,6.27-14.52Z"/><path class="cls-2" d="M1842.49,605.91a3,3,0,0,1,.84,2.17,5,5,0,0,1-.17,1.28c-.11.41-.32,1-.64,1.87l-1.9,5.2h-3l1.46-5.64a2.43,2.43,0,0,1-1.26-1,3,3,0,0,1-.46-1.7,3,3,0,0,1,.84-2.17,2.89,2.89,0,0,1,2.13-.84A2.92,2.92,0,0,1,1842.49,605.91Z"/><path class="cls-2" d="M1859.75,631.47a5.41,5.41,0,0,1-2,1,8.82,8.82,0,0,1-2.44.33,6.92,6.92,0,0,1-5-1.69,6.45,6.45,0,0,1-1.76-4.91v-9.43h-3.23V613.1h3.23v-4.47h4.58v4.47h5.24v3.66h-5.24v9.32a3.07,3.07,0,0,0,.7,2.18,2.6,2.6,0,0,0,2,.75,4,4,0,0,0,2.57-.81Z"/><path class="cls-2" d="M1778.22,650.86H1783v25.66h-4.76Z"/><path class="cls-2" d="M1806.52,658.89q2.24,2.16,2.24,6.42v11.21h-4.59V665.89A5.49,5.49,0,0,0,1803,662a4.48,4.48,0,0,0-3.44-1.3,5.31,5.31,0,0,0-4,1.52,6.08,6.08,0,0,0-1.47,4.39v9.89h-4.58V657h4.36v2.53a7.19,7.19,0,0,1,2.86-2.06,10.41,10.41,0,0,1,3.89-.69A8.19,8.19,0,0,1,1806.52,658.89Z"/><path class="cls-2" d="M1819.64,655.92v1.17H1825v3.67h-5.24v15.76h-4.58V660.76H1812v-3.67h3.23v-1.24a6.67,6.67,0,0,1,1.83-5,8.38,8.38,0,0,1,9.31-.75l-1.28,3.44a4.41,4.41,0,0,0-2.53-.8Q1819.65,652.77,1819.64,655.92Z"/><path class="cls-2" d="M1831.27,675.5a9.45,9.45,0,0,1-3.73-3.58,10.73,10.73,0,0,1,0-10.35,9.47,9.47,0,0,1,3.73-3.56,11,11,0,0,1,5.35-1.28A11.15,11.15,0,0,1,1842,658a9.38,9.38,0,0,1,3.72,3.56,10.66,10.66,0,0,1,0,10.35,9.36,9.36,0,0,1-3.72,3.58,11.26,11.26,0,0,1-5.39,1.28A11.13,11.13,0,0,1,1831.27,675.5Zm9.53-4.33a6.79,6.79,0,0,0,0-8.87,5.61,5.61,0,0,0-4.18-1.69,5.54,5.54,0,0,0-4.16,1.69,6.85,6.85,0,0,0,0,8.87,5.5,5.5,0,0,0,4.16,1.69A5.58,5.58,0,0,0,1840.8,671.17Z"/><path class="cls-2" d="M1779,719.9a39.28,39.28,0,0,1,0-18.87,26,26,0,0,1,3.32-7.71h4.36a32.6,32.6,0,0,0-3.28,8.15,39.46,39.46,0,0,0,0,18,32.67,32.67,0,0,0,3.28,8.16h-4.36A26.47,26.47,0,0,1,1779,719.9Z"/><path class="cls-2" d="M1791,694.86h4.77v21.63h13.42v4H1791Z"/><path class="cls-2" d="M1817.32,719.18a12.67,12.67,0,0,1-4.92-4.71,13.82,13.82,0,0,1,0-13.57,12.76,12.76,0,0,1,4.93-4.71,14.52,14.52,0,0,1,7-1.7,14.71,14.71,0,0,1,5.76,1.1,11.72,11.72,0,0,1,4.4,3.19l-3.08,2.89a9,9,0,0,0-6.86-3,9.63,9.63,0,0,0-4.73,1.15,8.32,8.32,0,0,0-3.26,3.21,9.85,9.85,0,0,0,0,9.31,8.32,8.32,0,0,0,3.26,3.21,9.63,9.63,0,0,0,4.73,1.16,8.94,8.94,0,0,0,6.86-3.05l3.08,2.94a11.82,11.82,0,0,1-4.42,3.19,14.83,14.83,0,0,1-5.77,1.1A14.42,14.42,0,0,1,1817.32,719.18Z"/><path class="cls-2" d="M1836.47,727.63a33,33,0,0,0,3.3-8.17,38.61,38.61,0,0,0,0-18,33,33,0,0,0-3.3-8.17h4.36a25.13,25.13,0,0,1,3.32,7.68,37.29,37.29,0,0,1,1.16,9.47,36.88,36.88,0,0,1-1.16,9.44,26.26,26.26,0,0,1-3.32,7.72Z"/><path class="cls-2" d="M1978.67,654.53l0-17-8.44,14.07h-2.12l-8.43-13.85v16.79h-4.55V628.86H1959l10.19,17,10-17h3.93l0,25.67Z"/><path class="cls-2" d="M2003.77,636.8c1.53,1.38,2.29,3.47,2.29,6.25v11.48h-4.33v-2.39a5.35,5.35,0,0,1-2.4,2,9.43,9.43,0,0,1-3.76.67,9.25,9.25,0,0,1-3.85-.75,5.94,5.94,0,0,1-2.54-2.09,5.29,5.29,0,0,1-.9-3,5.2,5.2,0,0,1,2-4.24q2-1.59,6.18-1.59h5.06v-.3a4,4,0,0,0-1.23-3.15,5.34,5.34,0,0,0-3.65-1.1,10.27,10.27,0,0,0-3.24.52,7.87,7.87,0,0,0-2.7,1.42l-1.79-3.33a11.2,11.2,0,0,1,3.7-1.8,16.67,16.67,0,0,1,4.58-.62Q2001.47,634.73,2003.77,636.8Zm-4.18,13.86a4.34,4.34,0,0,0,1.89-2.26v-2.27h-4.73q-4,0-4,2.6a2.31,2.31,0,0,0,1,2,4.52,4.52,0,0,0,2.75.74A5.86,5.86,0,0,0,1999.59,650.66Z"/><path class="cls-2" d="M2023.69,653.46a5.33,5.33,0,0,1-2,1,8.82,8.82,0,0,1-2.44.33,6.92,6.92,0,0,1-5-1.68,6.52,6.52,0,0,1-1.76-4.92v-9.42h-3.23V635.1h3.23v-4.48h4.58v4.48h5.24v3.66h-5.24v9.31a3.1,3.1,0,0,0,.7,2.19,2.6,2.6,0,0,0,2,.75,4,4,0,0,0,2.57-.81Z"/><path class="cls-2" d="M2044.52,636.89q2.24,2.16,2.23,6.42v11.22h-4.58V643.89A5.45,5.45,0,0,0,2041,640a4.44,4.44,0,0,0-3.44-1.3,5.28,5.28,0,0,0-4,1.52,6,6,0,0,0-1.47,4.38v9.9h-4.58V627.32h4.58v9.9a7.61,7.61,0,0,1,2.81-1.85,10.23,10.23,0,0,1,3.72-.64A8.19,8.19,0,0,1,2044.52,636.89Z"/><path class="cls-2" d="M1967.24,687.5a6.5,6.5,0,0,1,1.24,4.06,5.92,5.92,0,0,1-2.57,5.15q-2.57,1.81-7.47,1.81h-12.76V672.86h12q4.54,0,7,1.78a5.71,5.71,0,0,1,2.45,4.89,6.37,6.37,0,0,1-.88,3.37,6,6,0,0,1-2.42,2.28A6.83,6.83,0,0,1,1967.24,687.5Zm-16.8-10.9v7.07h6.75a6.93,6.93,0,0,0,3.83-.89,3.27,3.27,0,0,0,0-5.28,6.84,6.84,0,0,0-3.83-.9Zm13.24,14.48q0-3.71-5.54-3.7h-7.7v7.4h7.7Q1963.67,694.78,1963.68,691.08Z"/><path class="cls-2" d="M1976.58,697.5a9.42,9.42,0,0,1-3.72-3.58,10.68,10.68,0,0,1,0-10.36,9.42,9.42,0,0,1,3.72-3.55,11.84,11.84,0,0,1,10.75,0,9.48,9.48,0,0,1,3.72,3.55,10.68,10.68,0,0,1,0,10.36,9.49,9.49,0,0,1-3.72,3.58,11.93,11.93,0,0,1-10.75,0Zm9.54-4.33a6.79,6.79,0,0,0,0-8.87,5.59,5.59,0,0,0-4.18-1.69,5.5,5.5,0,0,0-4.16,1.69,6.82,6.82,0,0,0,0,8.87,5.54,5.54,0,0,0,4.16,1.69A5.63,5.63,0,0,0,1986.12,693.17Z"/><path class="cls-2" d="M2000.23,697.5a9.36,9.36,0,0,1-3.72-3.58,10.68,10.68,0,0,1,0-10.36,9.35,9.35,0,0,1,3.72-3.55,11.82,11.82,0,0,1,10.74,0,9.35,9.35,0,0,1,3.72,3.55,10.68,10.68,0,0,1,0,10.36,9.36,9.36,0,0,1-3.72,3.58,11.9,11.9,0,0,1-10.74,0Zm9.53-4.33a6.79,6.79,0,0,0,0-8.87,6,6,0,0,0-8.34,0,6.85,6.85,0,0,0,0,8.87,6,6,0,0,0,8.34,0Z"/><path class="cls-2" d="M2028.42,690.13l-3.41,3.22v5.17h-4.58v-27.2H2025v16.42l9.5-8.8h5.5l-8.18,8.22,9,11.36h-5.57Z"/><path class="cls-2" d="M2044.52,698.16a11.86,11.86,0,0,1-3.63-1.58l1.76-3.48a11.59,11.59,0,0,0,3.17,1.41,13.32,13.32,0,0,0,3.65.53c2.74,0,4.1-.72,4.1-2.16a1.43,1.43,0,0,0-1-1.43,17.74,17.74,0,0,0-3.36-.77,27.81,27.81,0,0,1-3.94-.85,6,6,0,0,1-2.64-1.67,4.66,4.66,0,0,1-1.11-3.31,5.22,5.22,0,0,1,2.32-4.46,10.63,10.63,0,0,1,6.29-1.67,18.39,18.39,0,0,1,4,.46,11.41,11.41,0,0,1,3.3,1.23l-1.76,3.48a10.92,10.92,0,0,0-5.61-1.46,6.28,6.28,0,0,0-3.06.6,1.83,1.83,0,0,0-1,1.6,1.6,1.6,0,0,0,1.12,1.56,18.2,18.2,0,0,0,3.46.86,26,26,0,0,1,3.85.84,6.2,6.2,0,0,1,2.59,1.61,4.52,4.52,0,0,1,1.08,3.23,5.11,5.11,0,0,1-2.39,4.4,11.21,11.21,0,0,1-6.49,1.65A17.73,17.73,0,0,1,2044.52,698.16Z"/><rect class="cls-1" x="1738.27" y="435.98" width="340" height="459.63"/><path class="cls-2" d="M1864.13,1080.26h4.51v10.23a14.32,14.32,0,0,1-4.62,2.42,17.79,17.79,0,0,1-5.42.84,14.7,14.7,0,0,1-7.08-1.7,12.75,12.75,0,0,1-5-4.71,13.75,13.75,0,0,1,0-13.57,12.73,12.73,0,0,1,5-4.71,14.76,14.76,0,0,1,7.13-1.7,15.57,15.57,0,0,1,5.87,1.06,11.44,11.44,0,0,1,4.43,3.12l-3,2.93a9.64,9.64,0,0,0-7.08-2.93,10,10,0,0,0-4.82,1.13,8.24,8.24,0,0,0-3.3,3.19,9.21,9.21,0,0,0-1.19,4.69,9,9,0,0,0,1.19,4.62,8.47,8.47,0,0,0,3.3,3.23,9.67,9.67,0,0,0,4.78,1.17,10.3,10.3,0,0,0,5.28-1.32Z"/><path class="cls-2" d="M1877.92,1092.36a9.4,9.4,0,0,1-3.72-3.57,10,10,0,0,1-1.34-5.19,9.91,9.91,0,0,1,1.34-5.17,9.38,9.38,0,0,1,3.72-3.56,11.9,11.9,0,0,1,10.74,0,9.38,9.38,0,0,1,3.72,3.56,10,10,0,0,1,1.34,5.17,10.13,10.13,0,0,1-1.34,5.19,9.4,9.4,0,0,1-3.72,3.57,11.9,11.9,0,0,1-10.74,0Zm9.53-4.33a6.79,6.79,0,0,0,0-8.87,5.61,5.61,0,0,0-4.18-1.69,5.55,5.55,0,0,0-4.16,1.69,6.85,6.85,0,0,0,0,8.87,5.52,5.52,0,0,0,4.16,1.69A5.58,5.58,0,0,0,1887.45,1088Z"/><path class="cls-2" d="M1915.9,1073.81l-8.4,19.58h-4.72l-8.4-19.58h4.77l6.08,14.52,6.27-14.52Z"/><path class="cls-2" d="M1922.94,1066.77a2.92,2.92,0,0,1,.84,2.16,5.07,5.07,0,0,1-.16,1.29c-.11.41-.33,1-.64,1.87l-1.91,5.2h-3l1.47-5.64a2.54,2.54,0,0,1-1.27-1,3.16,3.16,0,0,1-.46-1.71,3,3,0,0,1,5.1-2.16Z"/><path class="cls-2" d="M1940.21,1092.32a5.49,5.49,0,0,1-2,1,8.93,8.93,0,0,1-2.44.33,6.94,6.94,0,0,1-5-1.68,6.53,6.53,0,0,1-1.76-4.92v-9.42h-3.23V1074h3.23v-4.48h4.58V1074h5.25v3.66h-5.25v9.31a3.15,3.15,0,0,0,.7,2.19,2.62,2.62,0,0,0,2,.75,4,4,0,0,0,2.56-.81Z"/><path class="cls-2" d="M1858.67,1111.72h4.77v25.66h-4.77Z"/><path class="cls-2" d="M1887,1119.75q2.23,2.16,2.24,6.41v11.22h-4.58v-10.63a5.54,5.54,0,0,0-1.21-3.87,4.48,4.48,0,0,0-3.45-1.3,5.31,5.31,0,0,0-4,1.52,6.11,6.11,0,0,0-1.46,4.38v9.9h-4.59V1117.8h4.37v2.53a7.1,7.1,0,0,1,2.86-2,10.36,10.36,0,0,1,3.88-.7A8.15,8.15,0,0,1,1887,1119.75Z"/><path class="cls-2" d="M1900.1,1116.78V1118h5.39v3.67h-5.24v15.76h-4.59v-15.76h-3.22V1118h3.22v-1.25a6.63,6.63,0,0,1,1.84-5,7,7,0,0,1,5.16-1.82,7.18,7.18,0,0,1,4.15,1.06l-1.29,3.45a4.35,4.35,0,0,0-2.53-.81C1901.06,1113.62,1900.1,1114.68,1900.1,1116.78Z"/><path class="cls-2" d="M1911.72,1136.36a9.36,9.36,0,0,1-3.72-3.58,10.68,10.68,0,0,1,0-10.36,9.35,9.35,0,0,1,3.72-3.55,11.82,11.82,0,0,1,10.74,0,9.35,9.35,0,0,1,3.72,3.55,10.68,10.68,0,0,1,0,10.36,9.36,9.36,0,0,1-3.72,3.58,11.9,11.9,0,0,1-10.74,0Zm9.53-4.33a6.79,6.79,0,0,0,0-8.87,6,6,0,0,0-8.34,0,6.85,6.85,0,0,0,0,8.87,6,6,0,0,0,8.34,0Z"/><path class="cls-2" d="M1859.49,1180.75a39.24,39.24,0,0,1,0-18.86,26.06,26.06,0,0,1,3.32-7.72h4.37a32.33,32.33,0,0,0-3.29,8.16,39.46,39.46,0,0,0,0,18,32.33,32.33,0,0,0,3.29,8.16h-4.37A26.54,26.54,0,0,1,1859.49,1180.75Z"/><path class="cls-2" d="M1871.43,1155.71h4.76v21.63h13.42v4h-18.18Z"/><path class="cls-2" d="M1897.77,1180a12.57,12.57,0,0,1-4.91-4.71,13.75,13.75,0,0,1,0-13.57,12.69,12.69,0,0,1,4.93-4.71,15.45,15.45,0,0,1,12.77-.6,11.54,11.54,0,0,1,4.4,3.19l-3.08,2.89a9,9,0,0,0-6.85-3,9.6,9.6,0,0,0-4.73,1.15,8.25,8.25,0,0,0-3.26,3.21,9.77,9.77,0,0,0,0,9.31,8.25,8.25,0,0,0,3.26,3.21,9.6,9.6,0,0,0,4.73,1.15,8.91,8.91,0,0,0,6.85-3l3.08,2.93a11.57,11.57,0,0,1-4.41,3.19,14.7,14.7,0,0,1-5.78,1.1A14.52,14.52,0,0,1,1897.77,1180Z"/><path class="cls-2" d="M1916.93,1188.49a33.1,33.1,0,0,0,3.3-8.18,38.57,38.57,0,0,0,0-18,33.1,33.1,0,0,0-3.3-8.18h4.36a25.59,25.59,0,0,1,3.32,7.68,37.43,37.43,0,0,1,1.15,9.48,36.94,36.94,0,0,1-1.15,9.44,26.64,26.64,0,0,1-3.32,7.72Z"/><rect class="cls-1" x="1800.45" y="978.99" width="183.23" height="295.34"/><polyline class="cls-1" points="1192.27 978.99 1077.27 978.99 1077.27 1471.38 1200.27 1471.38"/><polyline class="cls-1" points="1310.96 1471.38 1433.96 1471.38 1433.96 978.99 1318.96 978.99 1318.96 1007.98"/><polyline class="cls-1" points="1317.96 1028.98 1317.96 1053.98 1773.41 1053.98 1773.41 1216.07 1433.96 1216.07"/><path class="cls-2" d="M1725.83,1538.8h6.36V1573h-6.36Z"/><path class="cls-2" d="M1748.37,1544.17H1737v-5.37h29v5.37h-11.34V1573h-6.35Z"/><path class="cls-2" d="M1776.84,1571.23a16.77,16.77,0,0,1-6.55-6.28,17.44,17.44,0,0,1-2.37-9,17.26,17.26,0,0,1,2.4-9,16.82,16.82,0,0,1,6.57-6.28,19.24,19.24,0,0,1,9.36-2.27,19.72,19.72,0,0,1,7.68,1.46,15.62,15.62,0,0,1,5.86,4.26l-4.1,3.86a12,12,0,0,0-9.15-4,12.78,12.78,0,0,0-6.3,1.54,11.05,11.05,0,0,0-4.35,4.28,13,13,0,0,0,0,12.41,11.05,11.05,0,0,0,4.35,4.28,12.78,12.78,0,0,0,6.3,1.54,11.91,11.91,0,0,0,9.15-4.06l4.1,3.91a15.57,15.57,0,0,1-5.89,4.26,19.86,19.86,0,0,1-7.7,1.46A19.35,19.35,0,0,1,1776.84,1571.23Z"/><path class="cls-2" d="M1621,1630.84a52.11,52.11,0,0,1,0-25.15,34.63,34.63,0,0,1,4.42-10.29h5.82a43.38,43.38,0,0,0-4.38,10.88,52.49,52.49,0,0,0,0,24,43.38,43.38,0,0,0,4.38,10.88h-5.82A35.27,35.27,0,0,1,1621,1630.84Z"/><path class="cls-2" d="M1659.13,1623.75H1642l-3.37,7.92h-6.55l15.4-34.21h6.25l15.45,34.21h-6.65Zm-2.1-5-6.45-15-6.41,15Z"/><path class="cls-2" d="M1698.29,1595.4v36.27h-5.87v-3.37a9.47,9.47,0,0,1-3.74,2.79,12.6,12.6,0,0,1-4.91.93,13.72,13.72,0,0,1-6.77-1.67,12,12,0,0,1-4.72-4.71,14.15,14.15,0,0,1-1.71-7,14,14,0,0,1,1.71-7,12,12,0,0,1,4.72-4.69,13.72,13.72,0,0,1,6.77-1.66,12.31,12.31,0,0,1,4.74.88,9.44,9.44,0,0,1,3.67,2.64v-13.4Zm-9.83,30.38a7.18,7.18,0,0,0,2.79-2.86,9.49,9.49,0,0,0,0-8.6,7.25,7.25,0,0,0-2.79-2.86,8.34,8.34,0,0,0-7.92,0,7.22,7.22,0,0,0-2.78,2.86,9.49,9.49,0,0,0,0,8.6,7.16,7.16,0,0,0,2.78,2.86,8.27,8.27,0,0,0,7.92,0Z"/><path class="cls-2" d="M1731.87,1595.4v36.27H1726v-3.37a9.4,9.4,0,0,1-3.74,2.79,12.6,12.6,0,0,1-4.91.93,13.75,13.75,0,0,1-6.77-1.67,12,12,0,0,1-4.72-4.71,14.15,14.15,0,0,1-1.71-7,14,14,0,0,1,1.71-7,12,12,0,0,1,4.72-4.69,13.75,13.75,0,0,1,6.77-1.66,12.31,12.31,0,0,1,4.74.88,9.37,9.37,0,0,1,3.67,2.64v-13.4Zm-9.83,30.38a7.12,7.12,0,0,0,2.79-2.86,9.49,9.49,0,0,0,0-8.6,7.18,7.18,0,0,0-2.79-2.86,8.34,8.34,0,0,0-7.92,0,7.22,7.22,0,0,0-2.78,2.86,9.49,9.49,0,0,0,0,8.6,7.16,7.16,0,0,0,2.78,2.86,8.27,8.27,0,0,0,7.92,0Z"/><path class="cls-2" d="M1740.18,1600.22a3.61,3.61,0,0,1,0-5.23,3.93,3.93,0,0,1,2.79-1,4,4,0,0,1,2.78,1,3.24,3.24,0,0,1,1.13,2.52,3.7,3.7,0,0,1-1.1,2.71,3.83,3.83,0,0,1-2.81,1.1A3.93,3.93,0,0,1,1740.18,1600.22Zm-.29,5.35H1746v26.1h-6.11Z"/><path class="cls-2" d="M1769.71,1630.26a7.43,7.43,0,0,1-2.62,1.32,11.92,11.92,0,0,1-3.25.44,9.22,9.22,0,0,1-6.65-2.25c-1.56-1.5-2.35-3.69-2.35-6.55v-12.57h-4.3v-4.88h4.3v-6H1761v6h7v4.88h-7v12.42a4.13,4.13,0,0,0,.92,2.91,3.49,3.49,0,0,0,2.69,1,5.39,5.39,0,0,0,3.42-1.07Z"/><path class="cls-2" d="M1775,1600.22a3.61,3.61,0,0,1,0-5.23,3.93,3.93,0,0,1,2.79-1,4,4,0,0,1,2.79,1,3.23,3.23,0,0,1,1.12,2.52,3.7,3.7,0,0,1-1.1,2.71,3.81,3.81,0,0,1-2.81,1.1A3.93,3.93,0,0,1,1775,1600.22Zm-.29,5.35h6.11v26.1h-6.11Z"/><path class="cls-2" d="M1793.46,1630.31a12.51,12.51,0,0,1-5-4.77,13.46,13.46,0,0,1-1.78-6.92,13.32,13.32,0,0,1,1.78-6.89,12.51,12.51,0,0,1,5-4.74,15.84,15.84,0,0,1,14.32,0,12.54,12.54,0,0,1,5,4.74,13.32,13.32,0,0,1,1.78,6.89,13.46,13.46,0,0,1-1.78,6.92,12.54,12.54,0,0,1-5,4.77,15.84,15.84,0,0,1-14.32,0Zm12.71-5.77a9.05,9.05,0,0,0,0-11.83,8,8,0,0,0-11.12,0,9.11,9.11,0,0,0,0,11.83,8,8,0,0,0,11.12,0Z"/><path class="cls-2" d="M1843.13,1608.16c2,1.92,3,4.78,3,8.56v15H1840V1617.5a7.37,7.37,0,0,0-1.61-5.16,6,6,0,0,0-4.6-1.73,7.07,7.07,0,0,0-5.33,2,8.12,8.12,0,0,0-2,5.85v13.19h-6.11v-26.1h5.81v3.37a9.47,9.47,0,0,1,3.82-2.73,13.7,13.7,0,0,1,5.18-.93A10.92,10.92,0,0,1,1843.13,1608.16Z"/><path class="cls-2" d="M1872.68,1608q3,2.76,3,8.33v15.3H1870v-3.17a7.06,7.06,0,0,1-3.2,2.61,12.53,12.53,0,0,1-5,.91,12.23,12.23,0,0,1-5.13-1,7.85,7.85,0,0,1-3.4-2.78,7.08,7.08,0,0,1-1.2-4,6.93,6.93,0,0,1,2.62-5.64q2.61-2.13,8.24-2.13h6.74V1616a5.31,5.31,0,0,0-1.64-4.2,7.06,7.06,0,0,0-4.86-1.47,14.24,14.24,0,0,0-4.33.68,10.87,10.87,0,0,0-3.59,1.91l-2.39-4.45a14.71,14.71,0,0,1,4.93-2.39,21.79,21.79,0,0,1,6.11-.83Q1869.63,1605.28,1872.68,1608Zm-5.58,18.48a5.74,5.74,0,0,0,2.52-3v-3h-6.3q-5.28,0-5.28,3.47a3.11,3.11,0,0,0,1.32,2.64,6.05,6.05,0,0,0,3.66,1A7.89,7.89,0,0,0,1867.1,1626.52Z"/><path class="cls-2" d="M1883.55,1595.4h6.11v36.27h-6.11Z"/><path class="cls-2" d="M1623.74,1688.55a16.77,16.77,0,0,1-6.55-6.28,18.38,18.38,0,0,1,0-18.09,17,17,0,0,1,6.58-6.28,19.18,19.18,0,0,1,9.36-2.27,19.63,19.63,0,0,1,7.67,1.46,15.66,15.66,0,0,1,5.87,4.26l-4.11,3.86a12,12,0,0,0-9.14-4,12.75,12.75,0,0,0-6.3,1.54,11.05,11.05,0,0,0-4.35,4.28,13,13,0,0,0,0,12.41,11.05,11.05,0,0,0,4.35,4.28,12.75,12.75,0,0,0,6.3,1.54,11.88,11.88,0,0,0,9.14-4.06l4.11,3.91a15.65,15.65,0,0,1-5.89,4.26,19.86,19.86,0,0,1-7.7,1.46A19.35,19.35,0,0,1,1623.74,1688.55Z"/><path class="cls-2" d="M1655.83,1689a12.51,12.51,0,0,1-5-4.77,13.46,13.46,0,0,1-1.79-6.92,13.33,13.33,0,0,1,1.79-6.89,12.51,12.51,0,0,1,5-4.74,15.84,15.84,0,0,1,14.32,0,12.54,12.54,0,0,1,5,4.74,13.42,13.42,0,0,1,1.78,6.89,13.56,13.56,0,0,1-1.78,6.92,12.54,12.54,0,0,1-5,4.77,15.84,15.84,0,0,1-14.32,0Zm12.71-5.77a9.05,9.05,0,0,0,0-11.83,7.46,7.46,0,0,0-5.57-2.25,7.38,7.38,0,0,0-5.55,2.25,9.11,9.11,0,0,0,0,11.83,7.38,7.38,0,0,0,5.55,2.25A7.46,7.46,0,0,0,1668.54,1683.2Z"/><path class="cls-2" d="M1723.53,1666.8q2.9,2.85,2.89,8.58v14.95h-6.11v-14.17a7.66,7.66,0,0,0-1.52-5.16,5.45,5.45,0,0,0-4.35-1.73,6.39,6.39,0,0,0-4.94,2,8.35,8.35,0,0,0-1.85,5.8v13.24h-6.11v-14.17A7.66,7.66,0,0,0,1700,1671a5.45,5.45,0,0,0-4.35-1.73,6.36,6.36,0,0,0-5,2,8.34,8.34,0,0,0-1.83,5.82v13.24h-6.12v-26.1h5.82v3.32a9.42,9.42,0,0,1,3.67-2.68,12.39,12.39,0,0,1,4.89-.93,11.69,11.69,0,0,1,5.2,1.1,8.38,8.38,0,0,1,3.6,3.25,10.78,10.78,0,0,1,4.15-3.2,13.45,13.45,0,0,1,5.62-1.15A10.6,10.6,0,0,1,1723.53,1666.8Z"/><path class="cls-2" d="M1755.53,1665.6a12.09,12.09,0,0,1,4.72,4.69,14,14,0,0,1,1.71,7,14.15,14.15,0,0,1-1.71,7,12,12,0,0,1-4.72,4.71,13.86,13.86,0,0,1-6.82,1.67,10.56,10.56,0,0,1-8.36-3.52v12.66h-6.11v-35.59h5.82v3.42a9.29,9.29,0,0,1,3.74-2.78,12.6,12.6,0,0,1,4.91-.93A13.86,13.86,0,0,1,1755.53,1665.6Zm-2,17.6a9.11,9.11,0,0,0,0-11.83,7.38,7.38,0,0,0-5.55-2.25,7.87,7.87,0,0,0-4,1,7.22,7.22,0,0,0-2.78,2.86,9.49,9.49,0,0,0,0,8.6,7.16,7.16,0,0,0,2.78,2.86,7.88,7.88,0,0,0,4,1A7.38,7.38,0,0,0,1753.57,1683.2Z"/><path class="cls-2" d="M1793.05,1664.23v26.1h-5.82V1687a9.7,9.7,0,0,1-3.67,2.71,11.71,11.71,0,0,1-4.74,1c-3.49,0-6.23-1-8.24-2.91s-3-4.82-3-8.63v-14.91h6.11v14.08a7.53,7.53,0,0,0,1.59,5.25,5.79,5.79,0,0,0,4.52,1.74,6.84,6.84,0,0,0,5.2-2,8.14,8.14,0,0,0,1.94-5.84v-13.2Z"/><path class="cls-2" d="M1816.75,1688.92a7.38,7.38,0,0,1-2.61,1.32,11.92,11.92,0,0,1-3.25.44,9.22,9.22,0,0,1-6.65-2.25c-1.56-1.5-2.35-3.68-2.35-6.55v-12.57h-4.3v-4.88h4.3v-6H1808v6h7v4.88h-7v12.42a4.14,4.14,0,0,0,.93,2.91,3.49,3.49,0,0,0,2.69,1,5.39,5.39,0,0,0,3.42-1.07Z"/><path class="cls-2" d="M1845.35,1679.24h-20.48a7.11,7.11,0,0,0,2.81,4.57,9.26,9.26,0,0,0,5.65,1.68,9.49,9.49,0,0,0,7.08-2.83l3.28,3.76a11.08,11.08,0,0,1-4.45,3.18,17.61,17.61,0,0,1-13.64-.63,12.4,12.4,0,0,1-5.06-4.77,13.46,13.46,0,0,1-1.78-6.92,13.75,13.75,0,0,1,1.73-6.87,12.39,12.39,0,0,1,4.82-4.76,14.05,14.05,0,0,1,6.94-1.71,13.73,13.73,0,0,1,6.82,1.68,12,12,0,0,1,4.69,4.75,14.29,14.29,0,0,1,1.69,7.06C1845.45,1677.85,1845.42,1678.46,1845.35,1679.24Zm-18.06-8.68a7.31,7.31,0,0,0-2.47,4.62h14.81a7.11,7.11,0,0,0-7.38-6.35A7.33,7.33,0,0,0,1827.29,1670.56Z"/><path class="cls-2" d="M1866.42,1663.94v5.81a8.4,8.4,0,0,0-1.42-.14,7.36,7.36,0,0,0-5.57,2.08,8.25,8.25,0,0,0-2,6v12.66h-6.12v-26.1h5.82V1668Q1859.77,1663.95,1866.42,1663.94Z"/><path class="cls-2" d="M1873.56,1689.85a15.64,15.64,0,0,1-4.84-2.11l2.34-4.64a15.25,15.25,0,0,0,4.23,1.88,17.71,17.71,0,0,0,4.87.71q5.47,0,5.47-2.88a1.92,1.92,0,0,0-1.39-1.91,24.26,24.26,0,0,0-4.47-1,35.81,35.81,0,0,1-5.26-1.12,8,8,0,0,1-3.52-2.23,6.2,6.2,0,0,1-1.49-4.42,6.94,6.94,0,0,1,3.1-5.94q3.11-2.22,8.39-2.22a24,24,0,0,1,5.37.61,14.9,14.9,0,0,1,4.4,1.64l-2.34,4.64a14.52,14.52,0,0,0-7.48-2,8.26,8.26,0,0,0-4.08.81,2.42,2.42,0,0,0-1.4,2.13,2.12,2.12,0,0,0,1.5,2.07,22.8,22.8,0,0,0,4.61,1.15,35.37,35.37,0,0,1,5.14,1.13,8,8,0,0,1,3.44,2.15,6,6,0,0,1,1.45,4.3,6.82,6.82,0,0,1-3.18,5.87c-2.12,1.46-5,2.2-8.65,2.2A23.54,23.54,0,0,1,1873.56,1689.85Z"/><path class="cls-2" d="M1893.94,1699.82a43.81,43.81,0,0,0,4.4-10.9,51.25,51.25,0,0,0,0-24,43.81,43.81,0,0,0-4.4-10.9h5.82a33.88,33.88,0,0,1,4.42,10.24,49.69,49.69,0,0,1,1.54,12.64,49.13,49.13,0,0,1-1.54,12.59,35.32,35.32,0,0,1-4.42,10.29Z"/><path class="cls-2" d="M1112.48,845.18v3h-14.25v-19h13.87v3h-10.34V837h9.18v2.9h-9.18v5.24Z"/><path class="cls-2" d="M1116.1,828h3.39v20.15h-3.39Z"/><path class="cls-2" d="M1137.52,842h-11.38a3.94,3.94,0,0,0,1.57,2.54,5.12,5.12,0,0,0,3.13.93,5.27,5.27,0,0,0,3.94-1.57l1.82,2.09a6.17,6.17,0,0,1-2.47,1.77,9.2,9.2,0,0,1-3.37.59,8.89,8.89,0,0,1-4.21-1,6.78,6.78,0,0,1-2.81-2.65,7.47,7.47,0,0,1-1-3.84,7.59,7.59,0,0,1,1-3.81,6.83,6.83,0,0,1,2.68-2.65,7.71,7.71,0,0,1,3.85-.95,7.63,7.63,0,0,1,3.79.93,6.63,6.63,0,0,1,2.61,2.64,7.92,7.92,0,0,1,.94,3.92C1137.58,841.21,1137.56,841.54,1137.52,842Zm-10-4.82a4,4,0,0,0-1.37,2.56h8.23a4,4,0,0,0-1.34-2.55,4,4,0,0,0-2.77-1A4.1,4.1,0,0,0,1127.49,837.16Z"/><path class="cls-2" d="M1154.14,833.64l-6.22,14.5h-3.5l-6.22-14.5h3.53l4.51,10.76,4.64-10.76Z"/><path class="cls-2" d="M1176.41,843.74h-9.5l-1.88,4.4h-3.64l8.56-19h3.47l8.59,19h-3.7Zm-1.17-2.77-3.58-8.31L1168.1,841Z"/><polyline class="cls-1" points="1077.27 872.48 1196.77 872.48 1196.77 849.64"/><polyline class="cls-1" points="1077.27 731.98 1196.77 731.98 1196.77 782.83"/><polyline class="cls-1" points="1077.27 807.2 1196.77 807.2 1196.77 824.36"/><line class="cls-1" x1="1196.77" y1="678.6" x2="1196.77" y2="707.6"/><line class="cls-1" x1="1317.27" y1="678.6" x2="1317.27" y2="707.6"/><polyline class="cls-1" points="1433.96 731.98 1317.27 731.98 1317.27 789.48"/><polyline class="cls-1" points="1433.96 872.05 1317.27 872.05 1317.27 814.55"/><circle class="cls-2" cx="1411.74" cy="801.45" r="7.41"/><path class="cls-2" d="M1373,784.89l26.52,5.6a2.75,2.75,0,0,1,1.74,4.21l-3.38,5.22a2.75,2.75,0,0,0,0,3l3.38,5.22a2.79,2.79,0,0,1-1.74,4.22L1373,818a2.78,2.78,0,0,1-3.27-2.05,2.82,2.82,0,0,0-3.07-2.09l-6.36.87a2.81,2.81,0,0,1-3.14-2.37l-.27-1.88a2.74,2.74,0,0,0-2.58-2.36l-20.39-1.22a4.09,4.09,0,0,1-3.83-4.11V800a4.11,4.11,0,0,1,3.83-4.11l20.39-1.22a2.76,2.76,0,0,0,2.58-2.36l.27-1.88a2.82,2.82,0,0,1,3.14-2.37l6.36.87a2.8,2.8,0,0,0,3.07-2.09A2.8,2.8,0,0,1,1373,784.89Z"/><path class="cls-2" d="M1110.29,760.54l-.45,2a4.06,4.06,0,0,0,1.11,3.77l2.83,2.83a4,4,0,0,1,0,5.74l-2.83,2.83a4.19,4.19,0,0,0-1.11,3.77l.45,2a4.09,4.09,0,0,0,4.29,3.18l24.64-2a4.07,4.07,0,0,0,3.46-2.6h0a4.09,4.09,0,0,1,3.56-2.62l31.94-1.94a4,4,0,0,0,3.8-4v-2.77a4,4,0,0,0-3.8-4l-31.94-1.94a4.07,4.07,0,0,1-3.56-2.63,4,4,0,0,0-3.46-2.59l-24.64-2A3.94,3.94,0,0,0,1110.29,760.54Z"/><circle class="cls-2" cx="1100.92" cy="771.98" r="7.36"/><path class="cls-2" d="M1348.32,1021.67v3h-14.26v-19h13.88v3h-10.35v4.95h9.18v2.9h-9.18v5.24Z"/><path class="cls-2" d="M1351.93,1004.48h3.4v20.15h-3.4Z"/><path class="cls-2" d="M1373.36,1018.47H1362a4,4,0,0,0,1.56,2.54,5.15,5.15,0,0,0,3.14.94,5.31,5.31,0,0,0,3.94-1.58l1.82,2.09a6.2,6.2,0,0,1-2.48,1.77,9.83,9.83,0,0,1-7.57-.36,6.77,6.77,0,0,1-2.81-2.64,8,8,0,0,1,0-7.66,6.8,6.8,0,0,1,2.67-2.65,7.88,7.88,0,0,1,3.86-.95,7.56,7.56,0,0,1,3.79.94,6.67,6.67,0,0,1,2.61,2.63,8,8,0,0,1,.93,3.92C1373.41,1017.7,1373.4,1018,1373.36,1018.47Zm-10-4.82a4.09,4.09,0,0,0-1.37,2.57h8.23a3.95,3.95,0,0,0-4.1-3.53A4.14,4.14,0,0,0,1363.32,1013.65Z"/><path class="cls-2" d="M1390,1010.13l-6.22,14.5h-3.5l-6.22-14.5h3.53l4.51,10.76,4.64-10.76Z"/><path class="cls-2" d="M1415.89,1016.47a4.85,4.85,0,0,1,.92,3,4.4,4.4,0,0,1-1.9,3.82,9.52,9.52,0,0,1-5.54,1.34h-9.45v-19h8.91a8.71,8.71,0,0,1,5.18,1.32,4.22,4.22,0,0,1,1.82,3.63,4.67,4.67,0,0,1-.65,2.49,4.42,4.42,0,0,1-1.79,1.69A5,5,0,0,1,1415.89,1016.47Zm-12.44-8.08v5.25h5a5.08,5.08,0,0,0,2.83-.67,2.17,2.17,0,0,0,1-1.94,2.2,2.2,0,0,0-1-2,5.08,5.08,0,0,0-2.83-.67Zm9.8,10.73c0-1.83-1.36-2.74-4.1-2.74h-5.7v5.48h5.7C1411.89,1021.86,1413.25,1021,1413.25,1019.12Z"/><path class="cls-2" d="M1109.78,1677.67v3h-14.26v-19h13.88v3h-10.34v4.94h9.17v2.9h-9.17v5.25Z"/><path class="cls-2" d="M1113.39,1660.48h3.4v20.15h-3.4Z"/><path class="cls-2" d="M1134.82,1674.46h-11.38A3.94,3.94,0,0,0,1125,1677a5.11,5.11,0,0,0,3.14.94,5.3,5.3,0,0,0,3.94-1.58l1.82,2.09a6.17,6.17,0,0,1-2.47,1.77,9.79,9.79,0,0,1-7.58-.35,6.91,6.91,0,0,1-2.81-2.65,7.47,7.47,0,0,1-1-3.84,7.61,7.61,0,0,1,1-3.82,6.9,6.9,0,0,1,2.68-2.65,7.82,7.82,0,0,1,3.85-1,7.53,7.53,0,0,1,3.79.94,6.67,6.67,0,0,1,2.61,2.63,8,8,0,0,1,.94,3.93C1134.88,1673.69,1134.86,1674,1134.82,1674.46Zm-10-4.82a4.1,4.1,0,0,0-1.38,2.57h8.23a4,4,0,0,0-1.33-2.56,4,4,0,0,0-2.77-1A4.1,4.1,0,0,0,1124.79,1669.64Z"/><path class="cls-2" d="M1151.44,1666.12l-6.22,14.51h-3.5l-6.22-14.51H1139l4.51,10.76,4.64-10.76Z"/><path class="cls-2" d="M1165,1679.64a9.4,9.4,0,0,1-3.64-3.49,10.19,10.19,0,0,1,0-10.05,9.38,9.38,0,0,1,3.66-3.49,10.7,10.7,0,0,1,5.2-1.27,10.89,10.89,0,0,1,4.26.82,8.67,8.67,0,0,1,3.26,2.36l-2.28,2.15a6.65,6.65,0,0,0-5.08-2.23,7.12,7.12,0,0,0-3.5.86,6.13,6.13,0,0,0-2.42,2.37,7.28,7.28,0,0,0,0,6.9,6.15,6.15,0,0,0,2.42,2.38,7.11,7.11,0,0,0,3.5.85,6.63,6.63,0,0,0,5.08-2.25l2.28,2.17a8.7,8.7,0,0,1-3.27,2.36,10.85,10.85,0,0,1-4.28.82A10.73,10.73,0,0,1,1165,1679.64Z"/><path class="cls-2" d="M1348.28,1677.67v3H1334v-19h13.88v3h-10.35v4.94h9.18v2.9h-9.18v5.25Z"/><path class="cls-2" d="M1351.89,1660.48h3.4v20.15h-3.4Z"/><path class="cls-2" d="M1373.32,1674.46h-11.38a3.94,3.94,0,0,0,1.56,2.54,5.09,5.09,0,0,0,3.14.94,5.3,5.3,0,0,0,3.94-1.58l1.82,2.09a6.17,6.17,0,0,1-2.47,1.77,9.79,9.79,0,0,1-7.58-.35,6.91,6.91,0,0,1-2.81-2.65,7.47,7.47,0,0,1-1-3.84,7.61,7.61,0,0,1,1-3.82,6.83,6.83,0,0,1,2.68-2.65,7.82,7.82,0,0,1,3.85-1,7.56,7.56,0,0,1,3.79.94,6.67,6.67,0,0,1,2.61,2.63,8,8,0,0,1,.93,3.93C1373.37,1673.69,1373.36,1674,1373.32,1674.46Zm-10-4.82a4.06,4.06,0,0,0-1.38,2.57h8.23a3.95,3.95,0,0,0-4.1-3.53A4.1,4.1,0,0,0,1363.29,1669.64Z"/><path class="cls-2" d="M1389.94,1666.12l-6.22,14.51h-3.5l-6.22-14.51h3.53l4.51,10.76,4.64-10.76Z"/><path class="cls-2" d="M1399.88,1661.62h8.31a11.85,11.85,0,0,1,5.4,1.18,8.68,8.68,0,0,1,3.67,3.34,10.19,10.19,0,0,1,0,10,8.68,8.68,0,0,1-3.67,3.34,11.86,11.86,0,0,1-5.4,1.19h-8.31Zm8.15,16a8.14,8.14,0,0,0,3.68-.8,5.79,5.79,0,0,0,2.44-2.28,7.29,7.29,0,0,0,0-6.87,5.75,5.75,0,0,0-2.44-2.29,8.14,8.14,0,0,0-3.68-.8h-4.62v13Z"/><polyline class="cls-1" points="1317.27 1607.55 1317.27 1517.56 1433.96 1517.56 1433.96 1777.04 1317.96 1777.04 1317.96 1681.85"/><line class="cls-1" x1="1317.27" y1="1638.65" x2="1433.96" y2="1638.65"/><line class="cls-1" x1="1317.27" y1="1627.98" x2="1317.27" y2="1649.3"/><circle class="cls-2" cx="1411.74" cy="1578.95" r="7.41"/><path class="cls-2" d="M1373,1562.39l26.52,5.6a2.75,2.75,0,0,1,1.74,4.21l-3.38,5.22a2.75,2.75,0,0,0,0,3l3.38,5.22a2.78,2.78,0,0,1-1.74,4.21l-26.52,5.61a2.78,2.78,0,0,1-3.27-2.06,2.82,2.82,0,0,0-3.07-2.08l-6.36.87a2.81,2.81,0,0,1-3.14-2.37l-.27-1.88a2.76,2.76,0,0,0-2.58-2.37l-20.39-1.21a4.09,4.09,0,0,1-3.83-4.11v-2.78a4.11,4.11,0,0,1,3.83-4.11l20.39-1.22a2.76,2.76,0,0,0,2.58-2.37l.27-1.87a2.81,2.81,0,0,1,3.14-2.37l6.36.87a2.8,2.8,0,0,0,3.07-2.09A2.8,2.8,0,0,1,1373,1562.39Z"/><path class="cls-2" d="M1110.29,1565l-.45,2a4.05,4.05,0,0,0,1.11,3.77l2.83,2.83a4,4,0,0,1,0,5.74l-2.83,2.84a4.16,4.16,0,0,0-1.11,3.76l.45,2a4.09,4.09,0,0,0,4.29,3.18l24.64-2a4.07,4.07,0,0,0,3.46-2.59h0a4.09,4.09,0,0,1,3.56-2.63l31.94-1.94a4,4,0,0,0,3.8-4v-2.77a4,4,0,0,0-3.8-4l-31.94-1.94a4.08,4.08,0,0,1-3.56-2.62,4,4,0,0,0-3.46-2.59l-24.64-2A3.92,3.92,0,0,0,1110.29,1565Z"/><circle class="cls-2" cx="1100.92" cy="1576.47" r="7.36"/><polyline class="cls-1" points="1193.96 1607.55 1193.96 1517.56 1077.27 1517.56 1077.27 1777.04 1193.27 1777.04 1193.27 1681.85"/><line class="cls-1" x1="1193.96" y1="1638.65" x2="1077.27" y2="1638.65"/><line class="cls-1" x1="1193.96" y1="1627.98" x2="1193.96" y2="1649.3"/><line class="cls-1" x1="1317.27" y1="1699.92" x2="1433.96" y2="1699.92"/><line class="cls-1" x1="1078.68" y1="1699.92" x2="1195.37" y2="1699.92"/><polyline class="cls-1" points="1426.93 2023.55 1426.93 1835.54 1078.68 1835.54 1078.68 2023.55"/><line class="cls-1" x1="1453.93" y1="1865.54" x2="1639.92" y2="1865.54"/><line class="cls-1" x1="1662.01" y1="1949.85" x2="1662.01" y2="1865.54"/><line class="cls-1" x1="869.28" y1="1865.54" x2="1055.27" y2="1865.54"/><line class="cls-1" x1="2150.75" y1="1064.98" x2="2048.67" y2="1064.98"/><line class="cls-1" x1="2149.75" y1="1132.98" x2="2048.67" y2="1132.98"/><line class="cls-1" x1="2124.75" y1="1098.98" x2="2068.67" y2="1098.98"/><line class="cls-1" x1="2024.67" y1="1132.98" x2="2024.67" y2="1064.98"/><path class="cls-2" d="M981.71,260.6l1.64-.37a3.28,3.28,0,0,1,3.09.91l2.33,2.32a3.31,3.31,0,0,0,4.71,0l2.33-2.32a3.39,3.39,0,0,1,3.09-.91l1.65.37a3.36,3.36,0,0,1,2.61,3.52l-1.68,20.23a3.32,3.32,0,0,1-2.13,2.83h0a3.36,3.36,0,0,0-2.15,2.93l-1.59,26.21a3.33,3.33,0,0,1-3.32,3.13H990a3.31,3.31,0,0,1-3.32-3.13l-1.59-26.21a3.36,3.36,0,0,0-2.16-2.93,3.28,3.28,0,0,1-2.12-2.83l-1.68-20.23A3.23,3.23,0,0,1,981.71,260.6Z"/><circle class="cls-2" cx="991.1" cy="252.91" r="6.04"/><circle class="cls-2" cx="1517.24" cy="252.95" r="6.08"/><path class="cls-2" d="M1530.84,284.77l-4.6-21.77a2.25,2.25,0,0,0-3.45-1.42l-4.29,2.77a2.28,2.28,0,0,1-2.46,0l-4.28-2.77a2.28,2.28,0,0,0-3.46,1.42l-4.6,21.77a2.3,2.3,0,0,0,1.69,2.69,2.31,2.31,0,0,1,1.71,2.51l-.71,5.23a2.29,2.29,0,0,0,1.94,2.57l1.54.23a2.26,2.26,0,0,1,2,2.11l1,16.74a3.36,3.36,0,0,0,3.37,3.15h2.28a3.38,3.38,0,0,0,3.37-3.15l1-16.74a2.26,2.26,0,0,1,1.94-2.11l1.55-.23a2.3,2.3,0,0,0,1.94-2.57l-.71-5.23a2.27,2.27,0,0,1,1.71-2.51A2.31,2.31,0,0,0,1530.84,284.77Z"/><path class="cls-2" d="M1473.68,1938.25a9.26,9.26,0,0,1-3.64-3.49,10.19,10.19,0,0,1,0-10,9.45,9.45,0,0,1,3.66-3.49,10.7,10.7,0,0,1,5.2-1.26,10.93,10.93,0,0,1,4.26.81,8.8,8.8,0,0,1,3.26,2.37l-2.28,2.14a6.67,6.67,0,0,0-5.08-2.22,7.11,7.11,0,0,0-3.5.85,6.09,6.09,0,0,0-2.42,2.38,7.28,7.28,0,0,0,0,6.9,6.13,6.13,0,0,0,2.42,2.37,7.12,7.12,0,0,0,3.5.86,6.61,6.61,0,0,0,5.08-2.26l2.28,2.18a8.7,8.7,0,0,1-3.27,2.36,11,11,0,0,1-4.28.81A10.73,10.73,0,0,1,1473.68,1938.25Z"/><path class="cls-2" d="M1491.51,1938.48a6.84,6.84,0,0,1-2.76-2.65,7.92,7.92,0,0,1,0-7.67,6.92,6.92,0,0,1,2.76-2.63,8.79,8.79,0,0,1,8,0,6.92,6.92,0,0,1,2.76,2.63,7.92,7.92,0,0,1,0,7.67,6.84,6.84,0,0,1-2.76,2.65,8.79,8.79,0,0,1-8,0Zm7.06-3.2a5,5,0,0,0,0-6.57,4.14,4.14,0,0,0-3.1-1.25,4.06,4.06,0,0,0-3.08,1.25,5.06,5.06,0,0,0,0,6.57,4.1,4.1,0,0,0,3.08,1.25A4.18,4.18,0,0,0,1498.57,1935.28Z"/><path class="cls-2" d="M1519.1,1926.18a6.34,6.34,0,0,1,1.66,4.75v8.31h-3.4v-7.87a4.06,4.06,0,0,0-.9-2.87,3.3,3.3,0,0,0-2.55-1,3.93,3.93,0,0,0-3,1.12,4.54,4.54,0,0,0-1.08,3.25v7.33h-3.4v-14.5h3.23v1.87a5.37,5.37,0,0,1,2.12-1.52,7.7,7.7,0,0,1,2.88-.51A6.06,6.06,0,0,1,1519.1,1926.18Z"/><path class="cls-2" d="M1528.82,1924v.87h4v2.71h-3.88v11.68h-3.4v-11.68h-2.39v-2.71h2.39v-.92a5,5,0,0,1,1.36-3.68,6.21,6.21,0,0,1,6.9-.56l-1,2.55a3.22,3.22,0,0,0-1.87-.6C1529.54,1921.64,1528.82,1922.42,1528.82,1924Z"/><path class="cls-2" d="M1555.35,1939.24l-3.88-5.57a6.53,6.53,0,0,1-.73,0h-4.29v5.54h-3.54v-19h7.83a10.41,10.41,0,0,1,4.3.82,6.25,6.25,0,0,1,2.81,2.33,6.57,6.57,0,0,1,1,3.61,6.44,6.44,0,0,1-1,3.7,6.19,6.19,0,0,1-3,2.31l4.38,6.24Zm-1.27-15a5.4,5.4,0,0,0-3.51-1h-4.12v7.58h4.12a5.4,5.4,0,0,0,3.51-1,3.49,3.49,0,0,0,1.19-2.82A3.41,3.41,0,0,0,1554.08,1924.2Z"/><path class="cls-2" d="M1565,1938.48a6.88,6.88,0,0,1-2.75-2.65,7.92,7.92,0,0,1,0-7.67,7,7,0,0,1,2.75-2.63,8.81,8.81,0,0,1,8,0,6.92,6.92,0,0,1,2.76,2.63,7.92,7.92,0,0,1,0,7.67,6.84,6.84,0,0,1-2.76,2.65,8.81,8.81,0,0,1-8,0Zm7.06-3.2a5,5,0,0,0,0-6.57,4.43,4.43,0,0,0-6.17,0,5.06,5.06,0,0,0,0,6.57,4.43,4.43,0,0,0,6.17,0Z"/><path class="cls-2" d="M1582.51,1938.48a6.84,6.84,0,0,1-2.76-2.65,7.92,7.92,0,0,1,0-7.67,6.92,6.92,0,0,1,2.76-2.63,8.81,8.81,0,0,1,8,0,7,7,0,0,1,2.75,2.63,7.85,7.85,0,0,1,0,7.67,6.88,6.88,0,0,1-2.75,2.65,8.81,8.81,0,0,1-8,0Zm7.06-3.2a5,5,0,0,0,0-6.57,4.44,4.44,0,0,0-6.18,0,5.06,5.06,0,0,0,0,6.57,4.44,4.44,0,0,0,6.18,0Z"/><path class="cls-2" d="M1620.12,1926.17a6.42,6.42,0,0,1,1.61,4.76v8.31h-3.4v-7.87a4.26,4.26,0,0,0-.84-2.87,3,3,0,0,0-2.42-1,3.54,3.54,0,0,0-2.74,1.12,4.61,4.61,0,0,0-1,3.22v7.36h-3.4v-7.87a4.26,4.26,0,0,0-.84-2.87,3,3,0,0,0-2.42-1,3.54,3.54,0,0,0-2.75,1.11,4.62,4.62,0,0,0-1,3.23v7.36h-3.4v-14.5h3.24v1.85a5.36,5.36,0,0,1,2-1.5,7,7,0,0,1,2.72-.51,6.53,6.53,0,0,1,2.89.61,4.77,4.77,0,0,1,2,1.8,5.9,5.9,0,0,1,2.3-1.77,7.49,7.49,0,0,1,3.13-.64A5.89,5.89,0,0,1,1620.12,1926.17Z"/><path class="cls-2" d="M1528.05,1968.84v3h-14v-2.36l7.55-7.17a8.59,8.59,0,0,0,1.73-2.13,4.07,4.07,0,0,0,.45-1.81,2.44,2.44,0,0,0-.9-2,4.21,4.21,0,0,0-2.63-.7,5.32,5.32,0,0,0-4.46,2l-2.47-1.9a7.23,7.23,0,0,1,3-2.32,10.45,10.45,0,0,1,4.22-.83,7.72,7.72,0,0,1,5,1.47,4.8,4.8,0,0,1,1.84,4,6.52,6.52,0,0,1-.65,2.9,11.24,11.24,0,0,1-2.5,3.1l-5.08,4.83Z"/><path class="cls-2" d="M1533.86,1971a7.77,7.77,0,0,1-2.83-3.37,13.92,13.92,0,0,1,0-10.51,7.83,7.83,0,0,1,2.83-3.37,7.33,7.33,0,0,1,4.07-1.15,7.44,7.44,0,0,1,4.09,1.15,7.85,7.85,0,0,1,2.84,3.37,13.92,13.92,0,0,1,0,10.51A7.79,7.79,0,0,1,1542,1971a7.44,7.44,0,0,1-4.09,1.15A7.33,7.33,0,0,1,1533.86,1971Zm7.29-3.6a11.29,11.29,0,0,0,0-10,3.9,3.9,0,0,0-6.41,0,11.29,11.29,0,0,0,0,10,3.9,3.9,0,0,0,6.41,0Z"/><path class="cls-2" d="M1560.12,1962.46a5.15,5.15,0,0,1,1.38,3.67,5.6,5.6,0,0,1-.84,3,5.74,5.74,0,0,1-2.54,2.16,9.55,9.55,0,0,1-4.14.8,13.15,13.15,0,0,1-3.92-.58,10,10,0,0,1-3.22-1.62l1.52-2.74a7.66,7.66,0,0,0,2.51,1.37,9.35,9.35,0,0,0,3.06.5,4.89,4.89,0,0,0,2.94-.77,2.46,2.46,0,0,0,1.08-2.1,2.43,2.43,0,0,0-1-2.08,5.26,5.26,0,0,0-3.11-.75h-1.74v-2.42l4.32-5.13h-8.64v-3h13v2.36l-4.62,5.49A6.39,6.39,0,0,1,1560.12,1962.46Z"/><path class="cls-2" d="M1577.45,1968.84v3h-14v-2.36l7.55-7.17a8.59,8.59,0,0,0,1.73-2.13,4.05,4.05,0,0,0,.44-1.81,2.43,2.43,0,0,0-.89-2,4.22,4.22,0,0,0-2.64-.7,5.32,5.32,0,0,0-4.45,2l-2.47-1.9a7.23,7.23,0,0,1,3-2.32,10.45,10.45,0,0,1,4.22-.83,7.74,7.74,0,0,1,4.95,1.47,4.8,4.8,0,0,1,1.84,4,6.52,6.52,0,0,1-.65,2.9,11.24,11.24,0,0,1-2.5,3.1l-5.08,4.83Z"/><path class="cls-2" d="M896.11,1930.56l0-12.6-6.24,10.42h-1.58L882,1918.12v12.44h-3.37v-19h2.91l7.54,12.6,7.42-12.6h2.9l0,19Z"/><path class="cls-2" d="M918.3,1916.06v14.5h-3.23v-1.85a5.53,5.53,0,0,1-2,1.51,6.57,6.57,0,0,1-2.63.53,6.29,6.29,0,0,1-4.58-1.62,6.38,6.38,0,0,1-1.67-4.79v-8.28h3.39v7.82a4.21,4.21,0,0,0,.89,2.92,3.23,3.23,0,0,0,2.51,1,3.8,3.8,0,0,0,2.89-1.13,4.49,4.49,0,0,0,1.07-3.24v-7.33Z"/><path class="cls-2" d="M923.78,1930.29a8.72,8.72,0,0,1-2.68-1.17l1.3-2.58a8.34,8.34,0,0,0,2.35,1,9.45,9.45,0,0,0,2.7.4c2,0,3-.54,3-1.6a1.07,1.07,0,0,0-.77-1.06,13.38,13.38,0,0,0-2.49-.57,21.11,21.11,0,0,1-2.92-.63,4.47,4.47,0,0,1-1.95-1.23,3.47,3.47,0,0,1-.83-2.46,3.86,3.86,0,0,1,1.73-3.3,7.77,7.77,0,0,1,4.65-1.24,13.85,13.85,0,0,1,3,.34,8.37,8.37,0,0,1,2.44.91l-1.3,2.58a8.09,8.09,0,0,0-4.15-1.09,4.57,4.57,0,0,0-2.27.45,1.35,1.35,0,0,0-.78,1.18,1.19,1.19,0,0,0,.83,1.16,12.92,12.92,0,0,0,2.57.64,20.34,20.34,0,0,1,2.85.62,4.5,4.5,0,0,1,1.91,1.2,3.29,3.29,0,0,1,.81,2.39,3.77,3.77,0,0,1-1.77,3.25,8.3,8.3,0,0,1-4.81,1.23A13.4,13.4,0,0,1,923.78,1930.29Z"/><path class="cls-2" d="M936.9,1913.08a2,2,0,0,1,0-2.9,2.19,2.19,0,0,1,1.55-.59,2.25,2.25,0,0,1,1.55.56,1.81,1.81,0,0,1,.62,1.4,2,2,0,0,1-.61,1.5,2.12,2.12,0,0,1-1.56.62A2.19,2.19,0,0,1,936.9,1913.08Zm-.16,3h3.39v14.5h-3.39Z"/><path class="cls-2" d="M947.19,1929.8a7.05,7.05,0,0,1-2.79-2.65,7.79,7.79,0,0,1,0-7.67,7,7,0,0,1,2.78-2.64,8.54,8.54,0,0,1,4.06-.95,7.82,7.82,0,0,1,3.76.87,5.59,5.59,0,0,1,2.43,2.5l-2.6,1.52a4.19,4.19,0,0,0-1.57-1.51,4.56,4.56,0,0,0-5.2.74,4.43,4.43,0,0,0-1.25,3.3,4.5,4.5,0,0,0,1.24,3.3,4.59,4.59,0,0,0,5.21.73,4.19,4.19,0,0,0,1.57-1.51l2.6,1.52a5.82,5.82,0,0,1-2.45,2.51,7.69,7.69,0,0,1-3.74.89A8.58,8.58,0,0,1,947.19,1929.8Z"/><path class="cls-2" d="M857.36,1944.14h3.53v16h9.94v3H857.36Z"/><path class="cls-2" d="M873.46,1945.67a1.92,1.92,0,0,1-.62-1.45,1.94,1.94,0,0,1,.62-1.46,2.22,2.22,0,0,1,1.55-.58,2.25,2.25,0,0,1,1.55.56,1.8,1.8,0,0,1,.62,1.4,2,2,0,0,1-.61,1.5,2.11,2.11,0,0,1-1.56.61A2.18,2.18,0,0,1,873.46,1945.67Zm-.16,3h3.39v14.51H873.3Z"/><path class="cls-2" d="M893,1949.4a6.77,6.77,0,0,1,2.62,2.61,8.44,8.44,0,0,1,0,7.78,6.67,6.67,0,0,1-2.62,2.62,7.68,7.68,0,0,1-3.79.93,7.06,7.06,0,0,1-2.73-.52,5.16,5.16,0,0,1-2.08-1.55v1.88h-3.23V1943h3.39v7.41a5.87,5.87,0,0,1,2.05-1.44,6.65,6.65,0,0,1,2.6-.49A7.79,7.79,0,0,1,893,1949.4Zm-1.09,9.78a5.06,5.06,0,0,0,0-6.57,4.11,4.11,0,0,0-3.08-1.25,4.36,4.36,0,0,0-2.2.56,4,4,0,0,0-1.55,1.58,4.89,4.89,0,0,0-.57,2.4,4.82,4.82,0,0,0,.57,2.38,4,4,0,0,0,1.55,1.59,4.36,4.36,0,0,0,2.2.56A4.11,4.11,0,0,0,891.89,1959.18Z"/><path class="cls-2" d="M908.17,1948.48v3.23a4.7,4.7,0,0,0-.79-.08,4.09,4.09,0,0,0-3.09,1.16,4.55,4.55,0,0,0-1.12,3.32v7h-3.39v-14.51H903v2.12Q904.48,1948.48,908.17,1948.48Z"/><path class="cls-2" d="M921.41,1950a5.92,5.92,0,0,1,1.7,4.63v8.5H919.9v-1.77a4,4,0,0,1-1.78,1.45,7.68,7.68,0,0,1-5.63,0,4.36,4.36,0,0,1-1.89-1.55,4,4,0,0,1-.67-2.24,3.86,3.86,0,0,1,1.46-3.14,7.25,7.25,0,0,1,4.57-1.18h3.75v-.21a3,3,0,0,0-.91-2.34,4,4,0,0,0-2.7-.81,7.53,7.53,0,0,0-2.4.38,5.84,5.84,0,0,0-2,1l-1.33-2.47a8.23,8.23,0,0,1,2.74-1.33,12.14,12.14,0,0,1,3.4-.46A7,7,0,0,1,921.41,1950Zm-3.1,10.26a3.19,3.19,0,0,0,1.4-1.67v-1.68h-3.5c-2,0-2.94.64-2.94,1.93a1.73,1.73,0,0,0,.74,1.46,3.37,3.37,0,0,0,2,.54A4.36,4.36,0,0,0,918.31,1960.28Z"/><path class="cls-2" d="M935.84,1948.48v3.23a4.7,4.7,0,0,0-.79-.08,4.09,4.09,0,0,0-3.09,1.16,4.59,4.59,0,0,0-1.11,3.32v7h-3.4v-14.51h3.23v2.12Q932.15,1948.48,935.84,1948.48Z"/><path class="cls-2" d="M938.88,1945.67a1.92,1.92,0,0,1-.62-1.45,1.94,1.94,0,0,1,.62-1.46,2.39,2.39,0,0,1,3.1,0,1.77,1.77,0,0,1,.62,1.4,2,2,0,0,1-.61,1.5,2.08,2.08,0,0,1-1.56.61A2.19,2.19,0,0,1,938.88,1945.67Zm-.16,3h3.4v14.51h-3.4Z"/><path class="cls-2" d="M957,1950a5.92,5.92,0,0,1,1.7,4.63v8.5H955.5v-1.77a3.88,3.88,0,0,1-1.77,1.45,7.7,7.7,0,0,1-5.64,0,4.48,4.48,0,0,1-1.89-1.55,4,4,0,0,1-.66-2.24,3.85,3.85,0,0,1,1.45-3.14,7.26,7.26,0,0,1,4.58-1.18h3.74v-.21a3,3,0,0,0-.91-2.34,3.93,3.93,0,0,0-2.7-.81,7.62,7.62,0,0,0-2.4.38,5.94,5.94,0,0,0-2,1l-1.33-2.47a8.29,8.29,0,0,1,2.75-1.33,12,12,0,0,1,3.39-.46A7,7,0,0,1,957,1950Zm-3.09,10.26a3.18,3.18,0,0,0,1.39-1.67v-1.68h-3.5c-1.95,0-2.93.64-2.93,1.93a1.72,1.72,0,0,0,.73,1.46,3.39,3.39,0,0,0,2,.54A4.41,4.41,0,0,0,953.92,1960.28Z"/><path class="cls-2" d="M975.68,1950.08a6.32,6.32,0,0,1,1.66,4.76v8.31h-3.4v-7.88a4,4,0,0,0-.89-2.86,3.29,3.29,0,0,0-2.55-1,3.92,3.92,0,0,0-3,1.13,4.46,4.46,0,0,0-1.09,3.24v7.34h-3.4v-14.51h3.24v1.88a5.24,5.24,0,0,1,2.11-1.52,7.5,7.5,0,0,1,2.88-.52A6.08,6.08,0,0,1,975.68,1950.08Z"/><path class="cls-2" d="M902.07,1992.75v3h-14v-2.37l7.55-7.17a8,8,0,0,0,1.72-2.13,4.06,4.06,0,0,0,.45-1.8,2.46,2.46,0,0,0-.89-2,4.22,4.22,0,0,0-2.64-.71,5.3,5.3,0,0,0-4.45,2l-2.47-1.9a7.32,7.32,0,0,1,3-2.32,10.42,10.42,0,0,1,4.22-.83,7.71,7.71,0,0,1,4.94,1.47,4.83,4.83,0,0,1,1.85,4,6.73,6.73,0,0,1-.65,2.91,11.42,11.42,0,0,1-2.5,3.09l-5.08,4.84Z"/><path class="cls-2" d="M907.88,1994.85a7.85,7.85,0,0,1-2.82-3.36,13.92,13.92,0,0,1,0-10.51,7.82,7.82,0,0,1,2.82-3.37,7.76,7.76,0,0,1,8.16,0,7.72,7.72,0,0,1,2.84,3.37,13.92,13.92,0,0,1,0,10.51,7.75,7.75,0,0,1-2.84,3.36,7.76,7.76,0,0,1-8.16,0Zm7.3-3.6a11.27,11.27,0,0,0,0-10,3.72,3.72,0,0,0-3.22-1.69,3.68,3.68,0,0,0-3.19,1.69,11.27,11.27,0,0,0,0,10,3.68,3.68,0,0,0,3.19,1.69A3.72,3.72,0,0,0,915.18,1991.25Z"/><path class="cls-2" d="M928.74,1976.73v19h-3.53v-16h-4v-3Z"/><path class="cls-2" d="M946.29,1992.75v3h-14v-2.37l7.55-7.17a8.24,8.24,0,0,0,1.73-2.13,4.18,4.18,0,0,0,.44-1.8,2.43,2.43,0,0,0-.89-2,4.22,4.22,0,0,0-2.64-.71,5.32,5.32,0,0,0-4.45,2l-2.47-1.9a7.32,7.32,0,0,1,3-2.32,10.45,10.45,0,0,1,4.22-.83,7.74,7.74,0,0,1,5,1.47,4.83,4.83,0,0,1,1.84,4,6.73,6.73,0,0,1-.65,2.91,11.23,11.23,0,0,1-2.5,3.09l-5.08,4.84Z"/><path class="cls-2" d="M1021.9,1992.75v3h-14v-2.36l7.55-7.17a8,8,0,0,0,1.72-2.13,4.07,4.07,0,0,0,.45-1.81,2.45,2.45,0,0,0-.89-2,4.22,4.22,0,0,0-2.64-.71,5.3,5.3,0,0,0-4.45,2l-2.47-1.9a7.32,7.32,0,0,1,3-2.32,10.42,10.42,0,0,1,4.22-.83,7.69,7.69,0,0,1,4.94,1.47,4.83,4.83,0,0,1,1.85,4,6.73,6.73,0,0,1-.65,2.91,11.57,11.57,0,0,1-2.5,3.09l-5.08,4.84Z"/><path class="cls-2" d="M1027.71,1994.85a7.82,7.82,0,0,1-2.82-3.37,13.92,13.92,0,0,1,0-10.51,7.85,7.85,0,0,1,2.82-3.36,7.77,7.77,0,0,1,8.17,0,7.73,7.73,0,0,1,2.83,3.36,13.8,13.8,0,0,1,0,10.51,7.7,7.7,0,0,1-2.83,3.37,7.77,7.77,0,0,1-8.17,0Zm7.3-3.6a11.27,11.27,0,0,0,0-10,3.88,3.88,0,0,0-6.41,0,11.27,11.27,0,0,0,0,10,3.88,3.88,0,0,0,6.41,0Z"/><path class="cls-2" d="M1048.57,1976.72v19H1045v-16h-4v-3Z"/><path class="cls-2" d="M1064.46,1986.37a5.12,5.12,0,0,1,1.38,3.66,5.63,5.63,0,0,1-.84,3,5.87,5.87,0,0,1-2.54,2.16,9.7,9.7,0,0,1-4.14.8,13.15,13.15,0,0,1-3.92-.59,10,10,0,0,1-3.22-1.61l1.52-2.75a7.87,7.87,0,0,0,2.51,1.38,9.62,9.62,0,0,0,3.06.5,4.89,4.89,0,0,0,2.94-.78,2.61,2.61,0,0,0,.06-4.18,5.26,5.26,0,0,0-3.11-.75h-1.74v-2.41l4.32-5.14h-8.64v-3h13v2.37l-4.62,5.48A6.4,6.4,0,0,1,1064.46,1986.37Z"/><path class="cls-2" d="M1002.08,868.34v3h-14V869l7.55-7.17a8,8,0,0,0,1.72-2.13,4,4,0,0,0,.45-1.8,2.46,2.46,0,0,0-.89-2,4.22,4.22,0,0,0-2.64-.71,5.31,5.31,0,0,0-4.45,2l-2.47-1.9a7.34,7.34,0,0,1,3-2.33,10.42,10.42,0,0,1,4.22-.82,7.71,7.71,0,0,1,4.94,1.46,4.83,4.83,0,0,1,1.85,4,6.7,6.7,0,0,1-.65,2.91,11.44,11.44,0,0,1-2.5,3.1l-5.08,4.83Z"/><path class="cls-2" d="M1007.89,870.44a7.79,7.79,0,0,1-2.82-3.36,13.92,13.92,0,0,1,0-10.51,7.82,7.82,0,0,1,2.82-3.37,7.83,7.83,0,0,1,8.17,0,7.7,7.7,0,0,1,2.83,3.37,13.8,13.8,0,0,1,0,10.51,7.67,7.67,0,0,1-2.83,3.36,7.77,7.77,0,0,1-8.17,0Zm7.3-3.59a11.29,11.29,0,0,0,0-10.05,3.74,3.74,0,0,0-3.22-1.69,3.7,3.7,0,0,0-3.19,1.69,11.29,11.29,0,0,0,0,10.05,3.7,3.7,0,0,0,3.19,1.68A3.73,3.73,0,0,0,1015.19,866.85Z"/><path class="cls-2" d="M1026.17,870.44a7.72,7.72,0,0,1-2.82-3.36,13.8,13.8,0,0,1,0-10.51,7.75,7.75,0,0,1,2.82-3.37,7.81,7.81,0,0,1,8.16,0,7.72,7.72,0,0,1,2.84,3.37,13.92,13.92,0,0,1,0,10.51,7.69,7.69,0,0,1-2.84,3.36,7.76,7.76,0,0,1-8.16,0Zm7.29-3.59a11.29,11.29,0,0,0,0-10.05,3.88,3.88,0,0,0-6.41,0,11.29,11.29,0,0,0,0,10.05,3.9,3.9,0,0,0,6.41,0Z"/><path class="cls-2" d="M1052.6,860.31a5.5,5.5,0,0,1,3.17,5.12,5.79,5.79,0,0,1-.92,3.25,6.19,6.19,0,0,1-2.5,2.16,8.12,8.12,0,0,1-3.53.76,7.67,7.67,0,0,1-6.07-2.45q-2.16-2.45-2.16-7a11.79,11.79,0,0,1,1.17-5.47,8,8,0,0,1,3.27-3.45,9.77,9.77,0,0,1,4.88-1.18,11.59,11.59,0,0,1,2.75.31,7.46,7.46,0,0,1,2.24.91l-1.3,2.66A6.45,6.45,0,0,0,1050,855a5.54,5.54,0,0,0-4.29,1.68,6.89,6.89,0,0,0-1.55,4.86v0a5.28,5.28,0,0,1,2.14-1.48,8,8,0,0,1,2.94-.5A7.82,7.82,0,0,1,1052.6,860.31Zm-1.28,7.64a3.22,3.22,0,0,0,0-4.72,4.16,4.16,0,0,0-2.77-.86,4.07,4.07,0,0,0-2.78.92,3,3,0,0,0,0,4.63,4.23,4.23,0,0,0,2.89.91A4,4,0,0,0,1051.32,868Z"/><path class="cls-2" d="M1027.48,777.33l-12.6,0,10.43,6.25v1.57L1015,791.42h12.44v3.37h-19v-2.91l12.6-7.55-12.6-7.41V774l19,0Z"/><path class="cls-2" d="M1013,755.14h14.5v3.23h-1.85a5.24,5.24,0,0,1,1.51,2,6.57,6.57,0,0,1,.53,2.63,5.72,5.72,0,0,1-6.41,6.25H1013v-3.4h7.82a4.2,4.2,0,0,0,2.92-.88,3.25,3.25,0,0,0,1-2.51,3.8,3.8,0,0,0-1.12-2.89,4.52,4.52,0,0,0-3.25-1.08H1013Z"/><path class="cls-2" d="M1027.21,749.65a8.68,8.68,0,0,1-1.17,2.69l-2.58-1.3a8.2,8.2,0,0,0,1-2.35,9.9,9.9,0,0,0,.39-2.7c0-2-.53-3-1.6-3a1.07,1.07,0,0,0-1.06.78,13,13,0,0,0-.57,2.48,19.18,19.18,0,0,1-.63,2.92,4.42,4.42,0,0,1-1.23,2,3.47,3.47,0,0,1-2.46.83,3.88,3.88,0,0,1-3.3-1.73,7.87,7.87,0,0,1-1.23-4.66,13.16,13.16,0,0,1,.34-3,8.56,8.56,0,0,1,.9-2.45l2.58,1.31a8.05,8.05,0,0,0-1.08,4.15,4.6,4.6,0,0,0,.45,2.27,1.32,1.32,0,0,0,1.18.77,1.17,1.17,0,0,0,1.15-.82,13.11,13.11,0,0,0,.64-2.57,18.86,18.86,0,0,1,.63-2.85,4.48,4.48,0,0,1,1.19-1.92,3.35,3.35,0,0,1,2.39-.8,3.78,3.78,0,0,1,3.26,1.77,8.34,8.34,0,0,1,1.22,4.8A12.87,12.87,0,0,1,1027.21,749.65Z"/><path class="cls-2" d="M1010,736.54a2,2,0,0,1-2.9,0,2.19,2.19,0,0,1-.58-1.55,2.25,2.25,0,0,1,.55-1.55,1.79,1.79,0,0,1,1.4-.63,2.05,2.05,0,0,1,1.51.62,2.08,2.08,0,0,1,.61,1.56A2.2,2.2,0,0,1,1010,736.54Zm3,.16v-3.4h14.5v3.4Z"/><path class="cls-2" d="M1026.72,726.24a7,7,0,0,1-2.65,2.8,7.85,7.85,0,0,1-7.67,0,7,7,0,0,1-2.63-2.78,8.42,8.42,0,0,1-.95-4.06,7.79,7.79,0,0,1,.87-3.76,5.65,5.65,0,0,1,2.49-2.44l1.52,2.61a4.14,4.14,0,0,0-1.5,1.56,4.24,4.24,0,0,0-.51,2.05,4.3,4.3,0,0,0,1.24,3.15,4.39,4.39,0,0,0,3.3,1.25,4.46,4.46,0,0,0,3.3-1.23,4.32,4.32,0,0,0,1.24-3.17,4.24,4.24,0,0,0-.51-2.05,4.14,4.14,0,0,0-1.5-1.56l1.52-2.61a6,6,0,0,1,2.51,2.46,7.66,7.66,0,0,1,.88,3.74A8.51,8.51,0,0,1,1026.72,726.24Z"/><path class="cls-2" d="M1027.48,692.81l-5.57,3.89a6.41,6.41,0,0,1,0,.73v4.29h5.54v3.53h-19v-7.82a10.38,10.38,0,0,1,.82-4.3,6.28,6.28,0,0,1,2.33-2.82,7.15,7.15,0,0,1,7.31.07,6.2,6.2,0,0,1,2.3,3l6.25-4.37Zm-15,1.28a5.37,5.37,0,0,0-1,3.5v4.13H1019v-4.13a5.37,5.37,0,0,0-1-3.5,3.43,3.43,0,0,0-2.81-1.2A3.39,3.39,0,0,0,1012.44,694.09Z"/><path class="cls-2" d="M1021.32,672.15v11.38a4,4,0,0,0,2.54-1.57,5.12,5.12,0,0,0,.93-3.13,5.27,5.27,0,0,0-1.57-3.94l2.09-1.82a6.05,6.05,0,0,1,1.76,2.47,9.79,9.79,0,0,1-.35,7.58,6.85,6.85,0,0,1-2.65,2.81,7.47,7.47,0,0,1-3.84,1,7.66,7.66,0,0,1-3.82-1,6.87,6.87,0,0,1-2.64-2.68,7.72,7.72,0,0,1-.95-3.86,7.62,7.62,0,0,1,.93-3.78,6.63,6.63,0,0,1,2.64-2.61,7.92,7.92,0,0,1,3.92-.94C1020.55,672.09,1020.88,672.11,1021.32,672.15Zm-4.82,10a4,4,0,0,0,2.56,1.37v-8.23a4,4,0,0,0-2.55,1.33,4.41,4.41,0,0,0,0,5.53Z"/><path class="cls-2" d="M1012.22,665.09h.87v-4h2.71V665h11.68v3.39H1015.8v2.39h-2.71v-2.39h-.93a4.94,4.94,0,0,1-3.68-1.36,6.22,6.22,0,0,1-.55-6.89l2.55,1a3.22,3.22,0,0,0-.6,1.87C1009.88,664.37,1010.66,665.09,1012.22,665.09Z"/><path class="cls-2" d="M1027.78,636.73l-2.31,2.39a9.52,9.52,0,0,1,2.28,6.39,9.1,9.1,0,0,1-.65,3.55,5.82,5.82,0,0,1-1.81,2.47,4.12,4.12,0,0,1-2.62.9,5,5,0,0,1-3.11-1,11,11,0,0,1-2.64-3.37,8.37,8.37,0,0,1-2.14,1.63,4.51,4.51,0,0,1-2,.49,4,4,0,0,1-3.24-1.51,6.13,6.13,0,0,1-1.24-4,5.71,5.71,0,0,1,1.13-3.7,3.74,3.74,0,0,1,3.06-1.38,4,4,0,0,1,2.6.91,10.26,10.26,0,0,1,2.31,3l3.91-4.1a12.91,12.91,0,0,0-3.2-1.06l.89-2.74a12.93,12.93,0,0,1,4.35,1.71l2.28-2.39Zm-16.55,9.67a1.79,1.79,0,0,0,1.45.65,2.33,2.33,0,0,0,1.24-.35,9.33,9.33,0,0,0,1.58-1.36,9.45,9.45,0,0,0-1.56-2.26,2,2,0,0,0-1.45-.64,1.64,1.64,0,0,0-1.33.58,2.43,2.43,0,0,0-.49,1.62A2.62,2.62,0,0,0,1011.23,646.4Zm12.31-5.27-4.8,5a7.68,7.68,0,0,0,1.72,2.29,2.86,2.86,0,0,0,1.86.67,2.26,2.26,0,0,0,1.93-1.06,4.83,4.83,0,0,0,.73-2.8A6.36,6.36,0,0,0,1023.54,641.13Z"/><path class="cls-2" d="M1027.48,611.89l-5.57,3.88a6.53,6.53,0,0,1,0,.73v4.29h5.54v3.53h-19V616.5a10.38,10.38,0,0,1,.82-4.3,6.25,6.25,0,0,1,2.33-2.81,7.12,7.12,0,0,1,7.31.06,6.19,6.19,0,0,1,2.3,3l6.25-4.38Zm-15,1.27a5.39,5.39,0,0,0-1,3.5v4.13H1019v-4.13a5.39,5.39,0,0,0-1-3.5,3.42,3.42,0,0,0-2.81-1.19A3.38,3.38,0,0,0,1012.44,613.16Z"/><path class="cls-2" d="M1021.32,591.22V602.6a4,4,0,0,0,2.54-1.56,5.17,5.17,0,0,0,.93-3.14,5.29,5.29,0,0,0-1.57-3.94l2.09-1.82a6.05,6.05,0,0,1,1.76,2.47,9.79,9.79,0,0,1-.35,7.58,6.85,6.85,0,0,1-2.65,2.81,7.47,7.47,0,0,1-3.84,1,7.66,7.66,0,0,1-3.82-1,6.8,6.8,0,0,1-2.64-2.68,7.71,7.71,0,0,1-.95-3.85,7.63,7.63,0,0,1,.93-3.79,6.76,6.76,0,0,1,2.64-2.61,8,8,0,0,1,3.92-.94C1020.55,591.16,1020.88,591.18,1021.32,591.22Zm-4.82,10a4.08,4.08,0,0,0,2.56,1.38V594.4a3.93,3.93,0,0,0-2.55,1.33,4.39,4.39,0,0,0,0,5.52Z"/><path class="cls-2" d="M1027.21,586.87a8.68,8.68,0,0,1-1.17,2.69l-2.58-1.3a8.2,8.2,0,0,0,1-2.35,9.85,9.85,0,0,0,.39-2.7c0-2-.53-3-1.6-3a1.06,1.06,0,0,0-1.06.77,13.23,13.23,0,0,0-.57,2.48,19.18,19.18,0,0,1-.63,2.92,4.36,4.36,0,0,1-1.23,2,3.47,3.47,0,0,1-2.46.83,3.88,3.88,0,0,1-3.3-1.73,7.86,7.86,0,0,1-1.23-4.65,13.19,13.19,0,0,1,.34-3,8.56,8.56,0,0,1,.9-2.45l2.58,1.31a8.05,8.05,0,0,0-1.08,4.15A4.6,4.6,0,0,0,1016,585a1.32,1.32,0,0,0,1.18.77,1.17,1.17,0,0,0,1.15-.82,13.11,13.11,0,0,0,.64-2.57,18.86,18.86,0,0,1,.63-2.85,4.48,4.48,0,0,1,1.19-1.92,3.35,3.35,0,0,1,2.39-.8,3.78,3.78,0,0,1,3.26,1.77,8.34,8.34,0,0,1,1.22,4.8A12.87,12.87,0,0,1,1027.21,586.87Z"/><path class="cls-2" d="M1021.32,560.34v11.38a4,4,0,0,0,2.54-1.56,5.15,5.15,0,0,0,.93-3.14,5.3,5.3,0,0,0-1.57-3.94l2.09-1.82a6.08,6.08,0,0,1,1.76,2.48,9.76,9.76,0,0,1-.35,7.57,6.79,6.79,0,0,1-2.65,2.81,7.47,7.47,0,0,1-3.84,1,7.66,7.66,0,0,1-3.82-1,6.78,6.78,0,0,1-2.64-2.67,7.78,7.78,0,0,1-.95-3.86,7.66,7.66,0,0,1,.93-3.79,6.76,6.76,0,0,1,2.64-2.61,8,8,0,0,1,3.92-.93C1020.55,560.29,1020.88,560.3,1021.32,560.34Zm-4.82,10a4.07,4.07,0,0,0,2.56,1.37v-8.23a4,4,0,0,0-2.55,1.33,4.41,4.41,0,0,0,0,5.53Z"/><path class="cls-2" d="M1012.82,548.64h3.23a3.82,3.82,0,0,0-.08.78,4.09,4.09,0,0,0,1.15,3.1,4.62,4.62,0,0,0,3.33,1.11h7V557H1013V553.8h2.12Q1012.82,552.33,1012.82,548.64Z"/><path class="cls-2" d="M1013,531.64l14.5,6.22v3.5l-14.5,6.22v-3.53l10.75-4.51L1013,534.89Z"/><path class="cls-2" d="M1021.32,516.35v11.38a4,4,0,0,0,2.54-1.57,5.12,5.12,0,0,0,.93-3.13,5.27,5.27,0,0,0-1.57-3.94l2.09-1.82a6.05,6.05,0,0,1,1.76,2.47,9.79,9.79,0,0,1-.35,7.58,6.85,6.85,0,0,1-2.65,2.81,7.47,7.47,0,0,1-3.84,1,7.66,7.66,0,0,1-3.82-1,6.87,6.87,0,0,1-2.64-2.68,7.75,7.75,0,0,1-.95-3.86,7.62,7.62,0,0,1,.93-3.78,6.63,6.63,0,0,1,2.64-2.61,7.92,7.92,0,0,1,3.92-.94C1020.55,516.29,1020.88,516.31,1021.32,516.35Zm-4.82,10a4,4,0,0,0,2.56,1.37v-8.23a4,4,0,0,0-2.55,1.33,4.41,4.41,0,0,0,0,5.53Z"/><path class="cls-2" d="M1579.55,297.14v4h-18.92V298l10.19-9.68a11.1,11.1,0,0,0,2.33-2.88,5.52,5.52,0,0,0,.6-2.44,3.3,3.3,0,0,0-1.21-2.75,5.67,5.67,0,0,0-3.55-1,7.15,7.15,0,0,0-6,2.68l-3.34-2.57a9.84,9.84,0,0,1,4-3.13,14,14,0,0,1,5.7-1.12,10.41,10.41,0,0,1,6.67,2,6.49,6.49,0,0,1,2.5,5.39,9,9,0,0,1-.88,3.92,15.24,15.24,0,0,1-3.38,4.18l-6.85,6.53Z"/><path class="cls-2" d="M1587.39,300a10.58,10.58,0,0,1-3.81-4.55,18.8,18.8,0,0,1,0-14.19,10.55,10.55,0,0,1,3.81-4.54,10.51,10.51,0,0,1,11,0,10.52,10.52,0,0,1,3.83,4.54,18.8,18.8,0,0,1,0,14.19,10.55,10.55,0,0,1-3.83,4.55,10.51,10.51,0,0,1-11,0Zm9.85-4.86q1.59-2.28,1.59-6.78t-1.59-6.79a5.26,5.26,0,0,0-8.66,0q-1.59,2.28-1.59,6.79t1.59,6.78a5.26,5.26,0,0,0,8.66,0Z"/><path class="cls-2" d="M1623.06,286.3a7.48,7.48,0,0,1,3.16,2.77,7.56,7.56,0,0,1,1.13,4.14,7.73,7.73,0,0,1-1.24,4.38,8.22,8.22,0,0,1-3.38,2.92,10.83,10.83,0,0,1-4.76,1q-5.28,0-8.2-3.3t-2.91-9.46a16,16,0,0,1,1.58-7.39,11,11,0,0,1,4.41-4.66,13.28,13.28,0,0,1,6.59-1.59,15.88,15.88,0,0,1,3.72.42,10,10,0,0,1,3,1.23l-1.76,3.59a8.77,8.77,0,0,0-4.88-1.25,7.48,7.48,0,0,0-5.79,2.28q-2.09,2.26-2.09,6.56v0a7.16,7.16,0,0,1,2.9-2,11,11,0,0,1,4-.68A10.26,10.26,0,0,1,1623.06,286.3Zm-1.72,10.3a4.33,4.33,0,0,0,0-6.36,6.42,6.42,0,0,0-7.5.08,4,4,0,0,0-1.44,3.15,3.93,3.93,0,0,0,1.41,3.1,5.74,5.74,0,0,0,3.9,1.23A5.37,5.37,0,0,0,1621.34,296.6Z"/><path class="cls-2" d="M1635.05,300a10.58,10.58,0,0,1-3.81-4.55,18.8,18.8,0,0,1,0-14.19,10.55,10.55,0,0,1,3.81-4.54,10.51,10.51,0,0,1,11,0,10.45,10.45,0,0,1,3.83,4.54,18.68,18.68,0,0,1,0,14.19,10.48,10.48,0,0,1-3.83,4.55,10.51,10.51,0,0,1-11,0Zm9.85-4.86q1.59-2.28,1.59-6.78t-1.59-6.79a5.05,5.05,0,0,0-4.35-2.27,5,5,0,0,0-4.3,2.27q-1.61,2.28-1.6,6.79t1.6,6.78a5,5,0,0,0,4.3,2.27A5,5,0,0,0,1644.9,295.12Z"/><path class="cls-2" d="M1699.68,297.14v4h-18.92V298L1691,288.3a11.1,11.1,0,0,0,2.33-2.88,5.53,5.53,0,0,0,.61-2.44,3.33,3.33,0,0,0-1.21-2.75,5.72,5.72,0,0,0-3.56-1,7.15,7.15,0,0,0-6,2.68l-3.34-2.57a9.84,9.84,0,0,1,4-3.13,14,14,0,0,1,5.7-1.12,10.46,10.46,0,0,1,6.68,2,6.51,6.51,0,0,1,2.49,5.39,9,9,0,0,1-.88,3.92,15.36,15.36,0,0,1-3.37,4.18l-6.86,6.53Z"/><path class="cls-2" d="M1707.52,300a10.58,10.58,0,0,1-3.81-4.55,18.8,18.8,0,0,1,0-14.19,10.55,10.55,0,0,1,3.81-4.54,10.51,10.51,0,0,1,11,0,10.45,10.45,0,0,1,3.83,4.54,18.68,18.68,0,0,1,0,14.19,10.48,10.48,0,0,1-3.83,4.55,10.51,10.51,0,0,1-11,0Zm9.85-4.86q1.59-2.28,1.59-6.78t-1.59-6.79a5.05,5.05,0,0,0-4.35-2.27,5,5,0,0,0-4.3,2.27q-1.6,2.28-1.6,6.79t1.6,6.78a5,5,0,0,0,4.3,2.27A5,5,0,0,0,1717.37,295.12Z"/><path class="cls-2" d="M1743.05,287.55a7,7,0,0,1,2.6,5.74,7.61,7.61,0,0,1-4.54,7.15,12.9,12.9,0,0,1-5.61,1.1,18.17,18.17,0,0,1-5.32-.79,13.24,13.24,0,0,1-4.33-2.18l2-3.71a10.63,10.63,0,0,0,3.43,1.85,12.54,12.54,0,0,0,4.12.68,6.72,6.72,0,0,0,4-1,3.62,3.62,0,0,0-.11-5.87q-1.56-1-5.33-1h-6.2l1.32-14h15.07v4h-11l-.55,5.94H1735C1738.64,285.44,1741.31,286.14,1743.05,287.55Z"/><path class="cls-2" d="M1765.25,278.44q2.91,3.3,2.91,9.46a16,16,0,0,1-1.57,7.38,10.89,10.89,0,0,1-4.42,4.66,13.27,13.27,0,0,1-6.58,1.6,15.81,15.81,0,0,1-3.72-.43,10.39,10.39,0,0,1-3-1.22l1.76-3.6a8.77,8.77,0,0,0,4.88,1.25,7.48,7.48,0,0,0,5.79-2.27q2.09-2.28,2.09-6.57v0a7.19,7.19,0,0,1-2.9,2,11,11,0,0,1-4,.67,10.29,10.29,0,0,1-4.54-1,7.4,7.4,0,0,1-3.15-2.77,7.52,7.52,0,0,1-1.14-4.14,7.7,7.7,0,0,1,1.25-4.38,8.17,8.17,0,0,1,3.37-2.91,10.73,10.73,0,0,1,4.76-1C1760.57,275.14,1763.31,276.24,1765.25,278.44Zm-4.07,7.92a4,4,0,0,0,1.45-3.16,3.93,3.93,0,0,0-1.41-3.09,5.78,5.78,0,0,0-3.91-1.23,5.42,5.42,0,0,0-3.63,1.19,4.33,4.33,0,0,0,0,6.36,5.64,5.64,0,0,0,3.74,1.17A5.57,5.57,0,0,0,1761.18,286.36Z"/><path class="cls-2" d="M1840.87,297.14v4H1822V298l10.19-9.68a11.32,11.32,0,0,0,2.33-2.88,5.52,5.52,0,0,0,.6-2.44,3.3,3.3,0,0,0-1.21-2.75,5.67,5.67,0,0,0-3.55-1,7.18,7.18,0,0,0-6,2.68l-3.33-2.57a9.84,9.84,0,0,1,4-3.13,14,14,0,0,1,5.7-1.12,10.41,10.41,0,0,1,6.67,2,6.52,6.52,0,0,1,2.5,5.39,9,9,0,0,1-.88,3.92,15.43,15.43,0,0,1-3.38,4.18l-6.85,6.53Z"/><path class="cls-2" d="M1848.71,300a10.58,10.58,0,0,1-3.81-4.55,18.68,18.68,0,0,1,0-14.19,10.55,10.55,0,0,1,3.81-4.54,9.93,9.93,0,0,1,5.5-1.56,10,10,0,0,1,5.52,1.56,10.52,10.52,0,0,1,3.83,4.54,18.8,18.8,0,0,1,0,14.19,10.55,10.55,0,0,1-3.83,4.55,10,10,0,0,1-5.52,1.56A9.93,9.93,0,0,1,1848.71,300Zm9.84-4.86q1.6-2.28,1.6-6.78t-1.6-6.79a5.26,5.26,0,0,0-8.65,0q-1.59,2.28-1.59,6.79t1.59,6.78a5.26,5.26,0,0,0,8.65,0Z"/><path class="cls-2" d="M1884.24,287.55a7,7,0,0,1,2.6,5.74,7.64,7.64,0,0,1-4.55,7.15,12.83,12.83,0,0,1-5.61,1.1,18.16,18.16,0,0,1-5.31-.79,13.14,13.14,0,0,1-4.33-2.18l2-3.71a10.53,10.53,0,0,0,3.43,1.85,12.49,12.49,0,0,0,4.12.68,6.74,6.74,0,0,0,4-1,3.38,3.38,0,0,0,1.45-2.88,3.33,3.33,0,0,0-1.56-3q-1.56-1-5.34-1H1869l1.32-14h15.07v4h-11l-.55,5.94h2.46Q1881.63,285.44,1884.24,287.55Z"/><path class="cls-2" d="M1909.33,290.15a6.26,6.26,0,0,1,1.08,3.65,6.74,6.74,0,0,1-1.3,4.11,8.12,8.12,0,0,1-3.68,2.69,16.74,16.74,0,0,1-11.06,0,8,8,0,0,1-3.64-2.69,6.79,6.79,0,0,1-1.29-4.11,6.33,6.33,0,0,1,1.07-3.65,7.18,7.18,0,0,1,3-2.47,5.85,5.85,0,0,1-3.19-5.39,6.23,6.23,0,0,1,1.19-3.78,7.62,7.62,0,0,1,3.36-2.49,14.64,14.64,0,0,1,10,0,7.8,7.8,0,0,1,3.38,2.49,6.19,6.19,0,0,1,1.21,3.78,5.76,5.76,0,0,1-.85,3.15,6.48,6.48,0,0,1-2.42,2.24A7.31,7.31,0,0,1,1909.33,290.15Zm-5.26,6.55a3.54,3.54,0,0,0,1.54-3.05,3.48,3.48,0,0,0-1.54-3,7,7,0,0,0-4.18-1.1,6.83,6.83,0,0,0-4.14,1.1,3.51,3.51,0,0,0-1.5,3,3.58,3.58,0,0,0,1.5,3.05,6.9,6.9,0,0,0,4.14,1.1A7.1,7.1,0,0,0,1904.07,296.7Zm-7.72-16.87a3.15,3.15,0,0,0-1.3,2.68,3.12,3.12,0,0,0,1.3,2.62,5.79,5.79,0,0,0,3.54,1,5.91,5.91,0,0,0,3.59-1,3.31,3.31,0,0,0,0-5.3,6.12,6.12,0,0,0-3.58-.95A5.92,5.92,0,0,0,1896.35,279.83Z"/><path class="cls-2" d="M2022.31,297.14v4h-18.92V298l10.19-9.68a11.32,11.32,0,0,0,2.33-2.88,5.52,5.52,0,0,0,.6-2.44,3.3,3.3,0,0,0-1.21-2.75,5.67,5.67,0,0,0-3.55-1,7.18,7.18,0,0,0-6,2.68l-3.33-2.57a9.84,9.84,0,0,1,4-3.13,14,14,0,0,1,5.7-1.12,10.41,10.41,0,0,1,6.67,2,6.52,6.52,0,0,1,2.5,5.39,9,9,0,0,1-.88,3.92,15.43,15.43,0,0,1-3.38,4.18l-6.85,6.53Z"/><path class="cls-2" d="M2030.15,300a10.58,10.58,0,0,1-3.81-4.55,18.68,18.68,0,0,1,0-14.19,10.55,10.55,0,0,1,3.81-4.54,9.93,9.93,0,0,1,5.5-1.56,10,10,0,0,1,5.52,1.56,10.52,10.52,0,0,1,3.83,4.54,18.8,18.8,0,0,1,0,14.19,10.55,10.55,0,0,1-3.83,4.55,10,10,0,0,1-5.52,1.56A9.93,9.93,0,0,1,2030.15,300Zm9.84-4.86q1.6-2.28,1.6-6.78t-1.6-6.79a5.26,5.26,0,0,0-8.65,0q-1.59,2.28-1.59,6.79t1.59,6.78a5.26,5.26,0,0,0,8.65,0Z"/><path class="cls-2" d="M2065.68,287.55a7,7,0,0,1,2.6,5.74,7.64,7.64,0,0,1-4.55,7.15,12.83,12.83,0,0,1-5.61,1.1,18.16,18.16,0,0,1-5.31-.79,13.14,13.14,0,0,1-4.33-2.18l2-3.71a10.53,10.53,0,0,0,3.43,1.85,12.49,12.49,0,0,0,4.12.68,6.74,6.74,0,0,0,4-1,3.38,3.38,0,0,0,1.45-2.88,3.33,3.33,0,0,0-1.56-3q-1.56-1-5.34-1h-6.19l1.32-14h15.07v4h-11l-.55,5.94h2.46Q2063.07,285.44,2065.68,287.55Z"/><path class="cls-2" d="M2089.91,275.5v3.19l-10,22.48h-5.1l9.64-21.63H2074.4v4.36H2070v-8.4Z"/></svg>