<svg id="Layer_1" data-name="Layer 1" xmlns="http://www.w3.org/2000/svg" viewBox="0 0 447.81 258.04"><defs><style>.cls-1,.cls-3,.cls-4{fill:#f7b45c;}.cls-1{stroke:#8e0f23;stroke-miterlimit:10;}.cls-2{fill:#8e0f23;}.cls-3{font-size:28.58px;}.cls-3,.cls-4{font-family:Shackleton-Regular, Shackleton;}.cls-4{font-size:28.61px;}.cls-5{font-size:31.01px;fill:#b6dae4;font-family:Shackleton-Narrow, Shackleton;}.cls-6{letter-spacing:-0.01em;}.cls-7{letter-spacing:-0.05em;}.cls-8{letter-spacing:-0.05em;}.cls-9{letter-spacing:0.01em;}.cls-10{letter-spacing:0em;}.cls-11{letter-spacing:-0.01em;}.cls-12{letter-spacing:0.03em;}.cls-13{letter-spacing:-0.01em;}.cls-14{letter-spacing:0.01em;}.cls-15{letter-spacing:0.01em;}</style></defs><title>PullOfHorses_Logo</title><path class="cls-1" d="M146.69,24c0,12.19-9.3,22.05-23.07,22.05H105.57V59.21c0,4.09,1.86,6.42,4.93,7.72v.19H86.41v-.19c3.07-1.3,4.93-3.63,4.93-7.72V9.91c0-4.1-1.86-6.42-4.93-7.72V2h37.21C137.39,2,146.69,11.86,146.69,24Zm-14.42,0c0-4.46-3.07-9.3-10.42-9.3H105.48v18.7h16.37C129.2,33.35,132.27,28.51,132.27,24Z" transform="translate(23.97 3.55)"/><path class="cls-1" d="M155.62,40.51l-.09-30.6c0-4.1-1.86-6.42-4.93-7.72V2h24.09v.19c-3.07,1.3-4.93,3.62-4.93,7.72V39.49c0,9.39,6.42,15.35,14.51,15.35s14.6-6,14.6-15.35l-.09-29.58c0-4.1-1.86-6.42-4.93-7.72V2h24.09v.19C214.87,3.49,213,5.81,213,9.91v30.6c0,16.37-12.46,27.81-28.74,27.81S155.62,56.88,155.62,40.51Z" transform="translate(23.97 3.55)"/><path class="cls-1" d="M279.15,49.35l-4.93,17.77H224.45v-.19c3.07-1.3,4.93-3.63,4.93-7.72l-.09-49.3c0-4.1-1.86-6.42-4.93-7.72V2h24.09v.19c-3.07,1.3-4.93,3.62-4.93,7.72V54.46h20.65c5.86,0,10.42-1,14.8-5.21Z" transform="translate(23.97 3.55)"/><path class="cls-1" d="M337.38,49.35l-4.93,17.77H282.69v-.19c3.07-1.3,4.93-3.63,4.93-7.72l-.1-49.3c0-4.1-1.86-6.42-4.93-7.72V2h24.1v.19c-3.07,1.3-4.93,3.62-4.93,7.72V54.46h20.65c5.86,0,10.42-1,14.79-5.21Z" transform="translate(23.97 3.55)"/><path class="cls-1" d="M63.94,97.87v49.22c0,4.08,1.86,6.41,4.92,7.71V155h-24v-.18c3.07-1.3,4.92-3.63,4.92-7.71V128.61H21v18.48c0,4.08,1.86,6.41,4.92,7.71V155h-24v-.18c3.06-1.3,4.92-3.63,4.92-7.71L6.74,97.87c0-4.09-1.86-6.41-4.92-7.71V90H25.87v.18C22.8,91.46,21,93.78,21,97.87v17.46H49.73V97.87c0-4.09-1.85-6.41-4.92-7.71V90h24v.18C65.8,91.46,63.94,93.78,63.94,97.87Z" transform="translate(23.97 3.55)"/><path class="cls-1" d="M74.06,122.48c0-20,13.93-33.71,33.71-33.71s33.71,13.74,33.71,33.71-13.93,33.71-33.71,33.71S74.06,142.45,74.06,122.48Zm52.84,0c0-12.07-7.89-20.62-19.13-20.62s-19.22,8.55-19.22,20.62,7.89,20.61,19.22,20.61S126.9,134.55,126.9,122.48Z" transform="translate(23.97 3.55)"/><path class="cls-1" d="M212.15,154.8V155h-25v-.18c3-1.49,3.62-3.81,1.77-7.9l-6.41-14.11H165.91v14.3c0,4.08,1.85,6.41,4.92,7.71V155H146.78v-.18c3.06-1.3,4.92-3.63,4.92-7.71V97.87c0-4.09-1.86-6.41-4.92-7.71V90h37.7c13.56,0,23.12,8.91,23.12,21.45a20.5,20.5,0,0,1-11.33,18.76l8.17,17.55A14.57,14.57,0,0,0,212.15,154.8Zm-46.34-34.46h17.28c6.13,0,10.12-3.8,10.12-8.91s-4-8.82-10.12-8.82H165.81Z" transform="translate(23.97 3.55)"/><path class="cls-1" d="M224.87,152.85a5.12,5.12,0,0,0-4.55,2.32l-6.13-26.28.47-.19c7.71,9.38,19.41,14.49,29.81,14.49,7.89,0,13.09-2.23,13.09-6.69s-5.66-5.94-17.36-8c-10.59-2-24.15-5.85-24.15-19.51,0-12.25,12.63-20.05,28.32-20.05,9.57,0,13.94,2.41,17.09,2.41a4.37,4.37,0,0,0,4-2l4.36,24-.37.09c-5.85-7.89-15.51-12.07-25.35-12.07-8,0-13.65,2.7-13.65,6.87,0,4.65,7.33,5.85,14.2,7.34,12.91,2.32,27.49,6.13,27.49,20.24,0,12.26-11.79,20.06-26.84,20.06C235.09,156,227.94,152.85,224.87,152.85Z" transform="translate(23.97 3.55)"/><path class="cls-1" d="M336.59,137.34,331.76,155H277.9v-.18c3.06-1.3,4.92-3.63,4.92-7.71V97.87c0-4.09-1.86-6.41-4.92-7.71V90h52.47l4.73,17.73-.18.19c-4.37-3.9-8.55-5.29-14.68-5.29h-23.3v12.9h18.85c4.36,0,6.87-2,8.26-5.29h.19v23.12h-.19c-1.39-3.34-3.9-5.29-8.26-5.29H296.94v14.3h24.6c6.13,0,10.4-1.39,14.86-5.2Z" transform="translate(23.97 3.55)"/><path class="cls-1" d="M351.45,152.85a5.1,5.1,0,0,0-4.55,2.32l-6.13-26.28.46-.19c7.71,9.38,19.41,14.49,29.81,14.49,7.89,0,13.09-2.23,13.09-6.69s-5.66-5.94-17.36-8c-10.59-2-24.15-5.85-24.15-19.51C342.62,96.76,355.25,89,371,89c9.56,0,13.93,2.41,17.08,2.41a4.36,4.36,0,0,0,4-2l4.36,24-.37.09c-5.85-7.89-15.51-12.07-25.35-12.07-8,0-13.65,2.7-13.65,6.87,0,4.65,7.33,5.85,14.21,7.34,12.9,2.32,27.48,6.13,27.48,20.24,0,12.26-11.79,20.06-26.83,20.06C361.66,156,354.51,152.85,351.45,152.85Z" transform="translate(23.97 3.55)"/><path class="cls-2" d="M28.59,30.82c12.54-.67,22.62,3,30.36,2.62,1.15-.06,3.26-.34,3.7-.36.19,0,.39,0,.39,0,0,.52-2.24,1.31-5.63,1.49-6.78.36-19-2.81-30.41-2.2-13.18.7-18.73,3.66-20,3.73-.26,0-.33-.08-.33-.21C6.62,35.23,14.51,31.57,28.59,30.82Z" transform="translate(23.97 3.55)"/><path class="cls-2" d="M370.13,70.06c6.89-.36,14,3.21,18.75,3,.71,0,2-.25,2.27-.26s.24,0,.24.06c0,.55-1.74,1.34-3.83,1.45-4.17.21-12.46-2.81-18.36-2.5-8.11.41-10.72,2.77-11.5,2.81-.16,0-.21-.09-.21-.23C357.45,73.6,361.47,70.5,370.13,70.06Z" transform="translate(23.97 3.55)"/><text class="cls-3" transform="matrix(0.21, -0.98, 0.98, 0.21, 26.31, 36.89)"> </text><text class="cls-3" transform="translate(28.27 32.07) rotate(-11.27)">T</text><text class="cls-3" transform="translate(45.56 28.22) rotate(0.04)">H</text><text class="cls-3" transform="translate(68.11 29.03) rotate(5.54)">E</text><text class="cls-4" transform="translate(370.16 75.86) rotate(-67.48)"> </text><text class="cls-4" transform="translate(370.15 73.09) rotate(-15.65)"> </text><text class="cls-4" transform="translate(375.49 70.78) rotate(-5.79)">O</text><text class="cls-4" transform="matrix(1, 0.05, -0.05, 1, 396.35, 68.63)">F</text><text class="cls-5" transform="translate(26.71 210.29)"><tspan xml:space="preserve">ON  </tspan><tspan class="cls-6" x="53.77" y="0">N</tspan><tspan class="cls-7" x="75.22" y="0">A</tspan><tspan x="94.42" y="0">TIO</tspan><tspan class="cls-6" x="141.08" y="0">NA</tspan><tspan class="cls-8" x="183.19" y="0">L</tspan><tspan class="cls-9" x="198.13" y="0"> </tspan><tspan class="cls-10" x="204.52" y="0"> </tspan><tspan class="cls-6" x="210.72" y="0">A</tspan><tspan x="231.37" y="0" xml:space="preserve">ND  </tspan><tspan class="cls-11" x="285.36" y="0">L</tspan><tspan class="cls-12" x="301.67" y="0">O</tspan><tspan class="cls-13" x="322.32" y="0">C</tspan><tspan class="cls-6" x="339.25" y="0">A</tspan><tspan class="cls-8" x="359.9" y="0">L</tspan><tspan x="374.84" y="0"> </tspan><tspan x="0" y="37.21">HIS</tspan><tspan class="cls-6" x="47.66" y="37.21">T</tspan><tspan x="64.62" y="37.21">ORI</tspan><tspan class="cls-14" x="113.8" y="37.21">E</tspan><tspan x="132" y="37.21" xml:space="preserve">S  </tspan><tspan class="cls-6" x="161.05" y="37.21">A</tspan><tspan x="181.7" y="37.21" xml:space="preserve">ND  IDENTITI</tspan><tspan class="cls-15" x="358.62" y="37.21">E</tspan><tspan x="376.83" y="37.21">S</tspan></text></svg>